<?xml version="1.0" encoding="UTF-8"?>
<svg id="Layer_1" data-name="Layer 1" xmlns="http://www.w3.org/2000/svg" viewBox="0 0 106.47 216.85">
  <defs>
    <style>
      .cls-1 {
        fill: #90975d;
      }
    </style>
  </defs>
  <path class="cls-1" d="M106.47,43.84v8.9c-.08.06-.18.12-.21.34-.15,1.12-1.06,2.25-2.35,2.34-11.21.77-23.66-1.08-33.5-6.73-5.41-3.11-9.7-7.45-12.78-12.88-5.31-9.35-7.14-20.96-6.67-31.87l25.81,25.79c1.1,1.09,2.77.99,3.8-.01.95-.92,1.2-2.64.11-3.73L54.77.06c11.97-.48,24.94,1.69,34.79,8.52,7.41,5.14,11.74,12.58,14.32,21.11,1.42,4.7,2.02,9.39,2.6,14.15Z"/>
  <path class="cls-1" d="M78.38,109.41v4.06s-.08.05-.1.15c-.07.51-.48,1.02-1.07,1.07-5.11.35-10.79-.49-15.27-3.07-2.47-1.42-4.42-3.4-5.83-5.87-2.42-4.26-3.25-9.56-3.04-14.53l11.77,11.76c.5.5,1.26.45,1.73,0,.43-.42.55-1.21.05-1.7l-11.81-11.82c5.46-.22,11.37.77,15.86,3.88,3.38,2.34,5.35,5.73,6.53,9.62.65,2.14.92,4.28,1.18,6.45Z"/>
  <path class="cls-1" d="M9.85,78.29l-6.96.57c-.05-.06-.11-.14-.28-.14-.88-.04-1.83-.68-1.98-1.69-1.33-8.71-.69-18.57,3.1-26.63,2.08-4.43,5.2-8.07,9.24-10.83,6.97-4.76,15.93-6.93,24.49-7.28l-18.5,21.85c-.78.93-.6,2.23.25,2.97.78.68,2.14.77,2.92-.15l18.6-21.93c1.15,9.33.29,19.61-4.41,27.75-3.54,6.13-9.07,9.99-15.58,12.56-3.58,1.41-7.22,2.18-10.9,2.94Z"/>
  <path class="cls-1" d="M67.17,176.54h-6.98c-.04-.06-.09-.14-.27-.17-.88-.12-1.76-.83-1.83-1.85-.61-8.79.85-18.57,5.28-26.29,2.44-4.24,5.85-7.61,10.1-10.03,7.33-4.17,16.45-5.6,25-5.24l-20.23,20.25c-.86.86-.78,2.17,0,2.98.72.74,2.07.94,2.93.09l20.34-20.32c.37,9.39-1.33,19.57-6.68,27.29-4.03,5.81-9.87,9.21-16.56,11.23-3.68,1.11-7.37,1.58-11.1,2.04Z"/>
  <path class="cls-1" d="M24.39,161.5l-2.87,2.87s-.1-.02-.18.04c-.41.31-1.07.38-1.51,0-3.86-3.36-7.28-7.97-8.63-12.97-.74-2.74-.73-5.53.03-8.27,1.3-4.73,4.46-9.06,8.12-12.42v16.63c0,.71.58,1.21,1.24,1.22.6.01,1.24-.47,1.24-1.17v-16.71c4.02,3.71,7.5,8.59,8.47,13.96.73,4.04-.27,7.84-2.19,11.42-1.06,1.97-2.38,3.68-3.72,5.4Z"/>
  <path class="cls-1" d="M36.73,216.85h-2.48s-.03-.05-.09-.06c-.31-.04-.63-.29-.65-.66-.22-3.12.3-6.59,1.87-9.33.86-1.51,2.08-2.7,3.59-3.56,2.6-1.48,5.84-1.99,8.88-1.86l-7.18,7.19c-.3.31-.28.77,0,1.06.25.26.74.33,1.04.03l7.22-7.21c.13,3.33-.47,6.95-2.37,9.69-1.43,2.06-3.5,3.27-5.88,3.99-1.31.39-2.62.56-3.94.72Z"/>
</svg>