<?xml version="1.0" encoding="UTF-8"?>
<svg id="Layer_1" data-name="Layer 1" xmlns="http://www.w3.org/2000/svg" viewBox="0 0 66.74 66.74">
  <defs>
    <style>
      .cls-1 {
        fill: #cdd0b3;
      }

      .cls-2 {
        fill: #6d7246;
      }
    </style>
  </defs>
  <path class="cls-2" d="M66.46,15.18l.03,36.55s-.11.04-.12.14c-.95,7.78-7.24,13.81-14.89,14.61l-36.42-.03c-8.03-1.07-14.15-7.28-14.81-15.45V15.71C.91,7.38,7.39.91,15.71.25h35.29c8.22.66,14.47,6.85,15.46,14.93ZM60.96,49.85V16.82c0-6.12-4.94-11.06-11.06-11.06H16.82c-6.12,0-11.06,4.94-11.06,11.06v33.08c.01,6.12,4.94,11.06,11.06,11.06h33.08c6.12,0,11.06-4.93,11.06-11.11Z"/>
  <path class="cls-1" d="M60.96,16.82v33.03c0,6.18-4.94,11.11-11.06,11.11H16.82c-6.12,0-11.05-4.94-11.06-11.06V16.82c0-6.12,4.94-11.06,11.06-11.06h33.08c6.12,0,11.06,4.94,11.06,11.06ZM55.43,15.41c0-2.28-1.84-4.13-4.12-4.13s-4.13,1.85-4.13,4.13,1.85,4.13,4.13,4.13,4.12-1.85,4.12-4.13ZM49.91,33.36c0-9.15-7.41-16.56-16.55-16.56s-16.55,7.41-16.55,16.56,7.41,16.55,16.55,16.55,16.55-7.41,16.55-16.55Z"/>
  <path class="cls-2" d="M51.31,11.28c2.28,0,4.12,1.85,4.12,4.13s-1.84,4.13-4.12,4.13-4.13-1.85-4.13-4.13,1.85-4.13,4.13-4.13Z"/>
  <path class="cls-2" d="M33.36,16.8c9.14,0,16.55,7.41,16.55,16.56s-7.41,16.55-16.55,16.55-16.55-7.41-16.55-16.55,7.41-16.56,16.55-16.56ZM44.39,33.36c0-6.1-4.94-11.04-11.03-11.04s-11.03,4.94-11.03,11.04,4.94,11.03,11.03,11.03,11.03-4.94,11.03-11.03Z"/>
</svg>