<?xml version="1.0" encoding="UTF-8"?>
<svg id="Layer_1" data-name="Layer 1" xmlns="http://www.w3.org/2000/svg" viewBox="0 0 89.27 55.58">
  <defs>
    <style>
      .cls-1 {
        fill: #90975d;
      }
    </style>
  </defs>
  <path class="cls-1" d="M0,11.74V2.84c.08-.06.18-.12.21-.34C.36,1.39,1.27.26,2.57.17c11.21-.77,23.66,1.08,33.5,6.73,5.41,3.11,9.7,7.45,12.78,12.88,5.31,9.35,7.14,20.96,6.67,31.87l-25.81-25.79c-1.1-1.09-2.77-.99-3.8.01-.95.92-1.2,2.64-.11,3.73l25.9,25.92c-11.97.48-24.94-1.69-34.79-8.52-7.41-5.14-11.74-12.58-14.32-21.11C1.18,21.19.58,16.5,0,11.74Z"/>
  <path class="cls-1" d="M60.96,52.5l.13-3.93,10.54-10.54c1.13-1.13,1.15-2.78.1-3.88s-2.82-1.14-3.96.02l-7.04,7.02c-.52-5.26-1.45-10.09-3.06-14.94,4.21-4.8,9.85-7.39,15.97-8.74,4.28-.91,8.55-1.19,12.91-.93,1.63.1,2.73,1.34,2.72,2.93l-.02,5.26c-.65,11.33-4.71,22.05-15.47,27.1-4.18,1.96-8.58,3.04-13.27,3.47.26-.91.42-1.81.45-2.84Z"/>
</svg>