<?xml version="1.0" encoding="UTF-8"?>
<svg id="Layer_1" data-name="Layer 1" xmlns="http://www.w3.org/2000/svg" viewBox="0 0 46.83 66.33">
  <defs>
    <style>
      .cls-1 {
        fill: #cdd0b3;
      }

      .cls-2 {
        fill: #6d7246;
      }
    </style>
  </defs>
  <path class="cls-1" d="M23.35,4.08c12.08-.05,21.3,10.94,19.02,22.99-1,5.26-3.45,10.27-6.22,14.95-1.82,3.08-3.72,5.95-5.79,8.88l-6.95,9.83-6.15-8.7c-3.91-5.53-7.95-11.63-10.59-17.83-1.01-2.36-1.75-4.71-2.21-7.13C2.19,15.06,11.33,4.12,23.35,4.08ZM34.99,23.36c0-6.39-5.18-11.57-11.58-11.57s-11.57,5.18-11.57,11.57,5.18,11.58,11.57,11.58,11.58-5.18,11.58-11.58Z"/>
  <path class="cls-2" d="M23.41,11.79c6.4,0,11.58,5.18,11.58,11.57s-5.18,11.58-11.58,11.58-11.57-5.18-11.57-11.58,5.18-11.57,11.57-11.57ZM31.13,23.36c0-4.26-3.46-7.71-7.72-7.71s-7.71,3.45-7.71,7.71,3.45,7.72,7.71,7.72,7.72-3.46,7.72-7.72Z"/>
  <path class="cls-2" d="M22.03,65.52l-6.15-8.76-6.13-8.92c-2.16-3.14-3.95-6.39-5.61-9.82-1.5-3.13-2.63-6.29-3.34-9.57C-2.24,14.54,7.67,1.28,21.86.25h3.11c14.24,1.02,24.14,14.37,21.04,28.3-.74,3.31-1.88,6.49-3.41,9.64-1.69,3.48-3.52,6.77-5.72,9.96l-5.98,8.69-6.1,8.68-.9.56h-1l-.87-.56ZM42.37,27.07c2.28-12.05-6.94-23.04-19.02-22.99-12.02.04-21.16,10.98-18.89,22.99.46,2.42,1.2,4.77,2.21,7.13,2.64,6.2,6.68,12.3,10.59,17.83l6.15,8.7,6.95-9.83c2.07-2.93,3.97-5.8,5.79-8.88,2.77-4.68,5.22-9.69,6.22-14.95Z"/>
</svg>