<?xml version="1.0" encoding="UTF-8"?>
<svg id="Layer_1" data-name="Layer 1" xmlns="http://www.w3.org/2000/svg" viewBox="0 0 75.35 53.11">
  <defs>
    <style>
      .cls-1 {
        fill: #cdd0b3;
      }

      .cls-2 {
        fill: #6d7246;
      }
    </style>
  </defs>
  <path class="cls-2" d="M75.1,5.65v41.81c-.11.09-.15.16-.21.41-.7,2.77-3.2,4.99-6.25,4.99H6.71c-3.45-.01-6.06-2.71-6.46-6.03V6.29C.66,2.87,3.35.25,6.85.25h61.79c3.1.01,5.61,2.28,6.28,5.11.04.2.11.23.18.29ZM70.7,45.37l.02-37.64-18.95,18.83,18.93,18.81ZM42.2,29.88l25.4-25.26H7.75l25.4,25.25c2.58,2.41,6.47,2.41,9.05.01ZM7.76,48.49h59.81l-18.91-18.8-3.44,3.38c-4.27,4.04-10.93,4.01-15.16-.08l-3.37-3.3L7.76,48.49ZM4.64,45.39l18.94-18.83L4.64,7.73v37.66Z"/>
  <polygon class="cls-1" points="70.72 7.73 70.7 45.37 51.77 26.56 70.72 7.73"/>
  <path class="cls-1" d="M67.6,4.62l-25.4,25.26c-2.58,2.4-6.47,2.4-9.05-.01L7.75,4.62h59.85Z"/>
  <path class="cls-1" d="M67.57,48.49H7.76l18.93-18.8,3.37,3.3c4.23,4.09,10.89,4.12,15.16.08l3.44-3.38,18.91,18.8Z"/>
  <polygon class="cls-1" points="23.58 26.56 4.64 45.39 4.64 7.73 23.58 26.56"/>
</svg>