<?xml version="1.0" encoding="UTF-8"?>
<svg id="Layer_1" data-name="Layer 1" xmlns="http://www.w3.org/2000/svg" viewBox="0 0 110.36 107.96">
  <defs>
    <style>
      .cls-1 {
        fill: #90975d;
      }
    </style>
  </defs>
  <path class="cls-1" d="M110.36,43.84v8.9c-.08.06-.18.12-.21.34-.15,1.12-1.06,2.25-2.35,2.34-11.21.77-23.66-1.08-33.5-6.73-5.41-3.11-9.7-7.45-12.78-12.88-5.31-9.35-7.14-20.96-6.67-31.87l25.81,25.79c1.1,1.09,2.77.99,3.8-.01.95-.92,1.2-2.64.11-3.73L58.66.06c11.97-.48,24.94,1.69,34.79,8.52,7.41,5.14,11.74,12.58,14.32,21.11,1.42,4.7,2.02,9.39,2.6,14.15Z"/>
  <path class="cls-1" d="M76.5,102.61v4.06s-.08.05-.1.15c-.07.51-.48,1.02-1.07,1.07-5.11.35-10.79-.49-15.27-3.07-2.47-1.42-4.42-3.4-5.83-5.87-2.42-4.26-3.25-9.56-3.04-14.53l11.77,11.76c.5.5,1.26.45,1.73,0,.43-.42.55-1.21.05-1.7l-11.81-11.82c5.46-.22,11.37.77,15.86,3.88,3.38,2.34,5.35,5.73,6.53,9.62.65,2.14.92,4.28,1.18,6.45Z"/>
  <path class="cls-1" d="M9.85,73.28l-6.96.57c-.05-.06-.11-.14-.28-.14-.88-.04-1.83-.68-1.98-1.69C-.7,63.31-.05,53.45,3.73,45.39c2.08-4.43,5.2-8.07,9.24-10.83,6.97-4.76,15.93-6.93,24.49-7.28l-18.5,21.85c-.78.93-.6,2.23.25,2.97.78.68,2.14.77,2.92-.15l18.6-21.93c1.15,9.33.29,19.61-4.41,27.75-3.54,6.13-9.07,9.99-15.58,12.56-3.58,1.41-7.22,2.18-10.9,2.94Z"/>
</svg>