<?xml version="1.0" encoding="UTF-8"?>
<svg id="Layer_1" data-name="Layer 1" xmlns="http://www.w3.org/2000/svg" viewBox="0 0 66.11 66.31">
  <defs>
    <style>
      .cls-1 {
        fill: #cdd0b3;
      }

      .cls-2 {
        fill: #6d7246;
      }
    </style>
  </defs>
  <path class="cls-2" d="M64.05,48.52c2.55,2.55,2.31,6.46-.09,8.93l-4.38,4.49c-1.99,2.31-4.53,3.85-7.56,4.12h-3.2c-3.64-.49-7.04-1.53-10.41-3.05-12.76-5.77-23.1-15.06-30.68-26.8-2.67-4.13-4.77-8.48-6.27-13.14-.64-1.96-1.02-3.84-1.21-5.88v-3.12c.25-2.43,1.18-4.64,2.91-6.37l5.47-5.45c2.64-2.63,6.68-2.71,9.39,0l8.59,8.59c2.64,2.64,2.69,6.46.13,9.16-1.7,1.78-3.37,3.51-5.25,5.21.73,1.68,1.57,3.15,2.64,4.64,4.12,5.72,10.29,11.74,16.74,14.81l5.24-5.19c2.33-2.31,6.15-2.7,8.59-.27l9.35,9.32ZM61.82,54.79c.89-1.22.87-2.89-.26-4.02l-9.01-8.99c-1.18-1.19-2.97-.99-4.06.08l-5.69,5.61c-.87.86-2.16.93-3.23.36l-2.61-1.38c-5.42-3.2-10.56-8.11-14.42-13.09-1.79-2.31-3.33-4.71-4.38-7.42-.38-.97-.09-2.04.63-2.74,1.92-1.88,3.85-3.66,5.64-5.64,1.1-1.24,1.12-2.94-.02-4.11l-3.95-4.01-4.97-4.93c-1.26-1.25-3.15-1.22-4.44.06l-5.39,5.37c-2.76,2.75-2.4,7.14-1.37,10.8,1.16,4.18,2.9,8.09,5.15,11.84,7.44,12.47,18.58,22.58,32.05,28.12,2.96,1.21,5.96,1.98,9.12,2.1,2.36.08,4.46-.83,5.99-2.55,1.01-1.13,2.08-2.09,3.11-3.2l2.11-2.26Z"/>
  <path class="cls-1" d="M61.56,50.77c1.13,1.13,1.15,2.8.26,4.02l-2.11,2.26c-1.03,1.11-2.1,2.07-3.11,3.2-1.53,1.72-3.63,2.63-5.99,2.55-3.16-.12-6.16-.89-9.12-2.1-13.47-5.54-24.61-15.65-32.05-28.12-2.25-3.75-3.99-7.66-5.15-11.84-1.03-3.66-1.39-8.05,1.37-10.8l5.39-5.37c1.29-1.28,3.18-1.31,4.44-.06l4.97,4.93,3.95,4.01c1.14,1.17,1.12,2.87.02,4.11-1.79,1.98-3.72,3.76-5.64,5.64-.72.7-1.01,1.77-.63,2.74,1.05,2.71,2.59,5.11,4.38,7.42,3.86,4.98,9,9.89,14.42,13.09l2.61,1.38c1.07.57,2.36.5,3.23-.36l5.69-5.61c1.09-1.07,2.88-1.27,4.06-.08l9.01,8.99Z"/>
</svg>