<?xml version="1.0" encoding="UTF-8"?>
<svg id="Layer_1" data-name="Layer 1" xmlns="http://www.w3.org/2000/svg" viewBox="0 0 466.3 780.86">
  <defs>
    <style>
      .cls-1 {
        fill: #7a5a37;
      }

      .cls-2 {
        fill: #d6dda5;
      }

      .cls-3 {
        fill: #bac381;
      }

      .cls-4 {
        fill: #90975d;
      }
    </style>
  </defs>
  <path class="cls-1" d="M297.71,128.72l.75,24.37,8.68-11.82c-.11,2.03,2.06,5.49,3.99,6.81l-9.83,16.17-3.51,2.72c-.59.46-1.68,1.58-2.09,2.21l-2.56,4.02.89,2.57-8.19,6.78-9.77-1.9c-5.09,24.77-1.53,50.33-7.59,79.26l14.29-.71c.97-.05,3.34,2.82,3.53,3.62l-3.23,1.67c-5.06-3.73-14.41,2.64-14.73,7.41,0,.9,3.29,4.3,2.53,4.8l-4.29,2.77-5.27,30.66-8.61,56.76c-.49,3.2,1.81,9.55,1.75,12.64l-.94,49.97,18.37-18.49c6.59-13.41,6.73-28.87,9.15-42.35l4.08-22.7c.68-3.76,4.48-9.16,8.17-11.8l2.85.66-.76,7.63-.36,3.62-5.5,19.95-6.86,34.32,20.1-22.26,4.56,3.78c1,.95-.44,4.19-1.14,5.46-2.52,4.52-7.71,10.33-11.58,14.4l-12.47,13.12-6.89,7.12c-5.06,5.24-9.94,11.66-12.32,18.07-3-.1-9.63,5.78-9.31,10.63l2.88,44.31.72,3.2,1.28,33.08.52,3.96-.78,12.57.53,11.47-.68,26.42,39.4-14.54c19.55-7.21,9.17-17.59,15.73-30.37l2.91-9.43,5.35-.33-5.89,29.21c17.31-7.06,13.35-24.89,28.36-22.8l8.6,5.62c3.34,2.18,5.67,5.88,5.77,10.33-6.68-1.8-16.97-2.35-20.53,3.54l-4.64,7.68c-9.63,1.18-18.12,5.28-25.74,10.85-5.55,4.06-13.82,7.8-20.79,10.29l-28.97,10.37-1.25,43.8,1.13,117.11c5.84.92,8.47,4.47,9.68,9.08,1.2-.64,12.62,6.32,13.1,7.75l-1.07,2.41-2.95-.67-2.68,1.61c-2.84-.91-4.83-2.16-5.89.67l-11.82,3-5.13-.92c-1.72-.31-5.05-.23-8.42-.36-.38-.01,1.94-2-1.15-.05-4.42,2.79-10.1-1.18-8.74-4.88.02-.05-1.18-.75-1.64-.18-.82,1.01-4.45,4.53-4.39,3.25l.09-2.04c.22-4.82-.43,6.71-2.73,2.83l-3.02.1-5.7-1.54,2.55-2.31-14.6-.94,11.55-7.65,2.15-3.43,1.41-68.73,1.76-48.21,1.92-37.9-40.42-15.18c-3.86-1.45-11.4-1.67-15.9-2.1l-2.27-.22-12-1.29-2.14-.23-17.72-6.58-6.38-2.37c-1.58-.59-1.44-4.64-1.88-6.53-2.51-10.78-28.46-11.36-25.11-30.12,1.14-6.36,10.22,16.95,17.61,14.37,4.5-1.57,11.06-2.78,12.15.33,1.49,4.27,4.85,10.79,7.73,12.3,2.17-11.26,2.26-16.28,9.33-25.07l3.11,12.21,5.6-4.33,2.74,1.96-13.31,19.24c15.74,8.67,28.69,4.47,36.48,8.71l16.5,5.64,25.58,10.81.68-34.24c.24-12.06-1.2-26.73-8.53-35.73-1.22-1.5-2.75-4.78-3.45-6.35l-8.82-19.73c-7.9-17.68-19.91-43-33.87-45.24l-2.53-1.25c-5.99-3.41-10.15-7-15.89-14.77,5.21-.04,6.35.86,9.32,2.9l9.18,6.32,1.82-2.07c-5.08-8.58-11.19-16.18-18.31-24.88-4.91-6.01-9.19-17.9-15.62-21.34l-15.98-8.54,9.17-4.24-7.74-5.8c1.54-1.66,3.63-5.89,3.55-8.14,7.78,5.02,11.06,16.33,25.71,22.63,4.5-12.44,3.43-23.69,1.24-34.53l3.78-13,3.71,5.14-.19,8.09c-.12,2.38-2.14,6.08-3.6,9.46,1.65.85,4.78,2.49,6.16,2.34l-.41,18.01-.1,10.38c-.02,2.42-2.33,7.64-.91,9.64,1.42,2.01,5.1,4.88,7.21,6.33l3.88,7.09,9.38,11.64,14.53,23.97,11.75,22.19c3.22,6.08,7.39,11.37,14.5,11.98.21-26.46,1.33-49.68,0-75.18-.44-8.41-6.18-18.55-7.97-25.98-5.42-22.44-14.34-43.44-24-63.84.82-4.01.41-7.63-1.2-13.52l5.01-.83,5.69,11.8c8.54,16.85,12.51,33.06,21.91,51.19l1.37-40.72-.99-16.33.13-4.58.04-7.51.12-20.53v-3.56s-.19-16.64-.19-16.64l-.03-4.91.36-12.42.11-10.48-.03-6.11-.2-35.87c-8.96-1.75-16.94-4.57-23.17-10.51,1.29-3.23-3.02-10.14-6.95-9.98l-2.96-13.49-3.81-.75,2.36-10.33,7.91,5.42c.63,4.04,2.47,9.93,4.12,13.46,1.54,9.14,9.76,14.07,19.64,17.9,5.9-2.37,6.53-13.31,2.92-15.25-4.34-2.33-8.31-4.41-10.36-6.76-1.22-1.41-2.56-5.7-2.54-7.55l.16-12.98c.05-3.64,2.01-10.38,3.2-14.35,2.3,5.28,3.48,8.85,5.19,10.79,1.05,1.19,4.56,2.83,6.12,3.11s10.09-9.44,11.94-19.11c1.29-.08,3.95-2.7,5.08-3.32,1.41-.77,4.15-.08,5.74.66l-.85,8.14-6.02,11.45-20.37,12.88c2.22,7.47,8.66,12.3,14.28,16.28l-2.24,11.99c-.83,4.63-.45,10.52-.1,16.61l.86,14.77.08,29.24.16,56.34.09,25.89,6.26,45c5.73-11.55,5.26-22.95,7.22-34.97l4.97-30.43,4.15-38.21c1.8-2.89,3.18-9.2,3.51-13.67l1.68-22.68-4.91-6.86c-2.21-3.08,12.68-4.4,7.5-22.75l-1.11-3.93c-2.84-11.04-6.7-23.12-7.36-34.57l-.89-15.47,2.79-12.44c1.19.43,4.18-1.44,5.32-2.04,4.9-2.56-1.76,10.07-1.39,23.2.28,9.61-.64,17.97,4.27,28.79l1.97-20.96c.68-7.22.61-16.33,5.35-21.11l2.45.55c4.33,8.16-4.3,20.3,5.01,25.28,4.36-3.45,10.56-9.21,13.55-13.59l-2.81-23.93-.9-14.44,9.72-2.28-.38,7.98ZM169.59,452.77l1.08-2.03-1.08,2.03Z"/>
  <path class="cls-4" d="M120.91,384.5l7.74,5.8-9.17,4.24,15.98,8.54c6.43,3.44,10.71,15.33,15.62,21.34,7.12,8.7,13.23,16.3,18.31,24.88l1.29,1.44-1.08,2.03-2.03-1.4-9.18-6.32c-2.97-2.04-4.1-2.94-9.32-2.9,5.74,7.77,9.9,11.36,15.89,14.77l-2.04,8.29-2.08.82,3.11,4.2,3.53-12.06c13.96,2.24,25.96,27.56,33.87,45.24l8.82,19.73-4.65-.31,1.7,14.31-12.3-8.81-4.9,13.32-5-11.22-6.25,6.78-3.18-8.96.34,10.41c.07,2.27,5.75,1.14,8.29.82,1.53,1.15,6.51,5.26,7.8,3.83l5.94-6.55,10.12,3.37,5.54-10.64c7.32,9,8.77,23.67,8.53,35.73-7.16.83-11.91-2.72-15.38-10.72-.84,1.13-3.49,5.34-5.13,5.48l-6.77.6c-.76,1.5-3.36,7.31-4.9,6.57l-8.2-3.96,6.07,15.73-8.46,4.09c-7.79-4.24-20.74-.03-36.48-8.71l13.31-19.24-2.74-1.96-5.6,4.33-3.11-12.21c-7.07,8.8-7.16,13.82-9.33,25.07-2.88-1.51-6.24-8.03-7.73-12.3-1.09-3.11-7.65-1.9-12.15-.33-7.39,2.58-16.47-20.74-17.61-14.37-3.36,18.76,22.59,19.34,25.11,30.12l-4.58,3.67-6.4,6.59c6.62,4.58,14.84,5.05,19.24-1.35l17.72,6.58-1.13,14.57-11.69-14.31-3.15,8.65c-.32.87-2.98,3.68-3.47,2.91l-3.18-4.91c-.4-.62-.66-3.83-.71-4.55s-2.97.02-3.23.69l-1.27,3.27,8.23,10.48-9.73-1.01c-4.88,1.45-8.86,1.92-14.07,2.58l-9.1,1.15c-1.77.22-4.45-4.14-5.89-5.17l-11.66-2.74-6.3-10.02-3.01-1.12c-.84-.31-3.97-1.49-3.28-1.23.46.17,1.48,4.67,1.12,5.01-2.23,2.13-7.77,2.32-11.03.64l.13-1.99c.1-1.6-2.06-4.82-3.09-6.22s-4.87-1.28-7.06-1.3c-3.59-4.19-8.33-6.69-13.75-7.27.06-1.47-.58-5.04-2.02-5.29-2.63-.45-8.35-.74-8.59-2.62l-1.02-8.15c-.27-2.16-3.41-6.51-2.32-8.42l3.62-6.35c-1.84-1.01-6.11-3.92-5.52-5.49l2.44-6.44c-.69-1.69-3.79-6.14-2.58-7.53l5.21-6.03c-1.12-4.88-.72-9.54,1.46-14.03l-2.66-4.91c-.36-.67,2.07-1.37,2.74-1.06l4.08,1.87c2.13.98,4.92,1.81,6.76,2.03,1.47.18,4.96-3.42,4.59-4.86-.66-2.61-1.98-6.76-.58-7.66l6.32-4.04-7.11-4.99c-1.14-.8-.75-5.09.59-5.46l5.98-1.62c.96-.26,5.07,1.15,4.38,1.91l-4.06,4.5,19.47,7.32,1.82-7.71c.66-2.8-7.57-3.02-9.2-9.59l12.69.21-9.15-3.65,16.11-7.89-10.56-6.28-.97,1.03,5.43,6.34-14.83,5.14c-1.61-1.67-3.58-3.99-4.58-5.79-.83-1.5,2.93-5.42,3.58-7l4.09-9.85,7.19-2.06c1.67-.48,1.63-4.81,1.86-9.04l12.47,1.88,1.73,1.74c.44.44,2.08,2.97,1.46,2.88l-5.06-.73-4.51-.65c-2.97-.43,2.39,11.08,1.03,11.38l-9.74,2.18,16.34.91-2.89-7.12-2.22-1.68,3.02-1.53,1.15.98,5.22,3.02,1.17-1.27.59-15.41,10.51,10.13,3.16-13.53,12.53,8.02-.74-11.64-.08-2.86,9.73,6.6,5.87-5.71c1.47-1.43,1.78-6.87.33-8.36s-5.77-2.63-7.61-1.66l-4.98-18.51-2.55-4.2.14-5.05,7.45,1.17ZM87.14,448.5l1.33-2.49-1.33,2.49ZM145.27,458.11l-8.25,6.19.06-11.01-11.92,2.34,2.56-7.27c-3.87,1.68-6.52,3.49-7.28,5.26-.6,1.41,2.46,5.26,4.1,5.13,2.22-.17,7.34-.48,7.86,1.13l2.05,6.28c.84,2.57,8.11-1.25,9.36-2.96l4.49,5.54c.7.87,4.76-1.09,5.14-1.57l-8.16-9.05ZM62.65,454.03c.98-.23,2.37-.56,1.21-.29l-1.21.29ZM112.83,487.72c.23-.83.67-7.26-1.17-7.13l-7.18.48c-1.46.1-6.02-1.79-5.06-2.92l3.11-3.62,3.98-4.63-14.82-5.88,10.18-3.99c1.15-.45.92-5.46-.25-5.09l-5.64,1.8c-2.2.7-5.94,5-5.77,7.32.17,2.32,3.85,5.94,6.02,7.61l-.71,9.09c-.39,4.91,13.62,1.57,14.37,3.95l1.57,4.99,1.36-1.97ZM161.12,463.79l-5.19-6.84c-1.1.43-3.77,5.07-2.18,5.64l6.23,2.26,1.13-1.06ZM128.63,492.19c.92,1.13,3.7,3.23,4.89,2.37l4.81-3.46c2.4-1.73,7.77-2.87,11.33-3.23l9.17-10.81-3.12-5.11c-.59-.97-2.04,4.28-2.65,5.27l-3.7,5.97c-.84,1.36-5.31-.48-5.56-2.06l-1.15-7.15c-.51-3.08-1.19-3.3-1.27.23l-2.49,13.22c-.45,2.4-6.27,3.48-8.27,2.99l-1.99,1.79ZM168.49,479.82l.73-5.94c.1-.86-3.23-.98-3.44-.73-.49,2.37-.98,5.96-2.36,6.77l-4.58,2.68,7,2.63c1.09.41,2.52-4.23,2.66-5.41ZM129.58,489.62c-.03-1.29-2.03-6.56-3.25-5.44l-4.19,3.82-4.44,4.04c-.9.82-3.17-2.16-3.9-3.13l-2.01,1.72c.99,1.61,4.34,4.84,6.32,3.95l9.38-4.2,2.08-.76ZM74.95,494.34c-3.52-4.88-6.46-5.71-10.69-4.87,2.79,3.18,7.68,5.59,10.69,4.87ZM193.54,520.04c-1.92-4.16-3.81-9.14-5.25-8.37l-8.03,4.27-1.84-8.85-15.59-.7,7.49-7.06-12.21-4.2,12.52-4.52c-4.64-3.13-14.28,1.22-13.32,5.28.35,1.5,5.85,3.33,5.47,4.7l-2.16,7.86,14.06,2.08-5.24,4.06c-8.79,6.8,11.72,2.77,18.72,5.27,2.37.85,8.21,4.48,9,2.28s1.58-6.22,1.94-9.09l-5.56,6.99ZM41.44,518.1l-8.11-7.23,18.02-1.36-6.82-12.03,18.51,3.48-2.96-7.44c-4.38,5.55-8.9-1.22-16.3,3.56-1.54.99.43,5.05,1.75,8.79l-13.73,3.69,3.84,10.9c.33.95,1.91,2.5,2.53,1.72l3.27-4.09ZM112.8,539.76c-2.66-.18-7.56-.1-7.69-1.86l-.63-8.92-13.51,2.99,3.97-9.9-16.26-1.89c-.2.18.46,4.01,1.68,4.14l6.82.75,2.16,10.25,13.23-1.55c-.43,5.43.64,8.91,4.53,10.41,2.01.77,3.53-.64,5.7-4.42ZM32.26,523.57l-4.68.24-1.28,4.36c-.25.84,2.68,1.79,3.09,1.01l2.87-5.61ZM53.79,553.43c5.83,3.39,13.87,5.61,20.48,1.43l-20.07-2.85,11.28-13.91-12.52-2.02c-.17-2.33.79-6.31,2.53-6.88l9.24-3.02c-4.61-3.56-10.15-1.78-14.07,3.89l-18.72,1.77c2.47,2.1,3.66,2.9,3.49,3.85l-.75,4.07,11.58-7.67c6.01,5.29,8.09,6.64,11.95,9.02-1.42,2.53-3.99,9.02-4.42,12.32ZM135.21,530.58l-7.68-4.63-2.47,14.45-5.4-6.55c-.97-1.17-3.64-2.95-4.67-1.99-.78.72-2.93,3.57-2.04,4.14l4.35,2.81c1.72,1.11,6.68,3.92,8.14,2.55l6.23-5.85c1.33-1.25,6.38-.09,8.21-.1s1.86-6.41,1.35-8.18l-1.22-4.21c-.23-.8-3.25.37-3.11,1.2l.63,3.6,1.01,2.06-2.74,1.05-.59-.37ZM178.14,525.17l-1.01,1.01,1.01,1.01,1.01-1.01-1.01-1.01ZM33.38,541.27l-.04,1.31v1.36l.04,1.31.04-1.31v-1.36l-.04-1.31ZM100.89,568.3l-3.3-13.31c-.96,9.6-3.38,19.57-11.46,20.71l-1.85,1.17,3.24,2.84,10.89-11.78,2.48.38ZM82.74,570.39l-.52-6.96-8.32,9.29,7.71-.95c.32-.04.47-.32,1.13-1.38ZM107.77,565.4l-.04,1.31v1.36l.04,1.31.04-1.31v-1.36l-.04-1.31ZM102.73,569.63l-1.95,1.74c3.13,2.94,5,1.88,1.95-1.74ZM83.64,571.43l-1.01.99,1.02,3.01,1-1.01-1.01-3ZM69.9,574.39l-1.31.04,1.31.04h1.36l1.31-.04-1.31-.04h-1.36ZM104.64,583.95l3.53-8.38c-5.54,3.28-7.45,6.28-7.99,11.83l10.81-.44-6.35-3.02Z"/>
  <path class="cls-3" d="M323.43,2.46l.97,12.06,3.34-.11-1.57-11.9,5.75.12,5.31,9.95c-3.79.51-7.78,3.07-9.62,6.24l1.48,1.7,4.62-3.62c3.87,4.01,6.14,12.99,3.13,18.44-3.68-.19-8.19-2.32-8.36-4.49l-.72-9.05-1.25-1.49-5.59-3.35-1.25.87c8.19,16.03-9.39,19.47-7,29.61l9.85-12.63c6.53,2.75,8.84,3.49,15.21,4.88l9.05,9.03-13.05-1.97,5.13,14.57-9.87-7.81-2.95,11.41c-.31,1.18,1.8,5.33,2.56,4.45l2.19-2.52,2.13-3.33c1.13.56,8.43,1.92,8.28-.28l-.68-9.43,7.18-2.7c5.09-1.91-17.69-23.21,1.37-33.9l4.84,7.36c.4.61,2.37,2.78,2.61,2.13l1.12-2.99,9.2,2.32c-.59,1.88-.25,6.02-1.61,6.65l-6.14,2.88-3.46,1.62c-.68.32-1.17,1.84-1.49,2.65-.42,1.06,3.76,1.04,8.07,1.06l-4.65,13.35,17.83-4.38-12.53,13.24,23.03-4.01c-4.16,6.02-7.12,8.73-14.36,15.83l13.45,4.24,1.24-1.56-8.46-3.57c5.28-4.45,8.98-10.21,9.21-16.59l-11.7-1.38c4.31-3.71,8.61-5.63,13.16-5.6l3.83.03,1.99,2.58c-.38,5.49,1.33,14.22,5.22,17.54l6.42,5.49c1.33,1.14-2.8,5.99-2.89,7.76l-1.65,34.43c-.17,3.5.09,9.53,1.79,12.38,1.23,2.05,5.44,1.67,10.25,2.6,1.57,3.92-4.11,8.22-8.61,8.38-.02-3.18-1.41-1.17-2.32.16l-.92,20.82c-2.26-.7-6.29-1.96-6.82-.34l-2.36,7.16-8.57-3.86-7.07,5.4-7.38-16.43c-2.53-5.64-6.16-11.47-11.49-13.05l-1.18-6.69,17.02,3.76-.79-11.03,11.28-.96c-.24-7.93-6.29-15.01-13.2-15.46l5.41,9.69-15.05-3.67c5.38,9.59,6.48,10.27,9.46,19.45l-19.12-10.28c2.26,8.25,2.73,11.94.65,19.86l5.86,1.24.66,11.61-3.63.12-1.04,1.35,4.77,3.42c1.46,1.41,3.47,7.46,2.81,10.23-.57,2.42-3.99,6.07-6.03,8.34l-4.01,10.95-15.63-2.55-2.28-4.46,1.82-1.49,4.45-6.98-7.16-1.75c-.95-.23-1.13,2.94-1.13,3.45l-1.95.18-1.74-2.63-.07-1.72-2.29-10.26.21-1.87c-.56-.54-1.78-1.71-2.59-2.04l-5.78-1.8-.42-8.43,10.79,4.22.18-6.63c.05-1.65,3.22-4.2,4.51-3.16l4.74,3.81c1.16.93,2.37-4.34,2.74-7.25l10.84,1.34-11.27-10.1-2.54,12.93-4.46-11.81-9.71,12.64-1.77-1.16,5.09-8.77c-.87-1.32-2.68-3.94-3.73-3.68l-8.55,2.11,4.15-14.75-13.76,6.08c-2.57-1.45-1.29-8.71,1.21-14.73l-16.33,5.45,4.79-11.84c-2.86,1.49-6.48,4.81-6.35,6.98l-2.12.05c.53-4.32-.76-8.09-4.3-11.49l-2.22-10.85-18.1,10.97,6.82-17.22-16.87,6.04,7.16-17.23c-10.68,3.35-8.62,13.6-8.26,21.63-.66.65-2.15,2.13-1.72,2.84l2.58,4.31-1.68,4.74-12.22-2.66c6.3,8.78,9.19,12.24,11.51,21.44-10.19-1.95-11.93-6.69-19.58-14.89-1.44,4.58-1.29,10.04-.73,17.47l-11.9-12.41-5.15,13.91c.55,1.84,2.5,8.2,1.15,3.59l3.61-5.41c.7-1.05,2.96-.18,4.57.44l-3.33,19.27c-1.71-1.93-2.89-5.51-5.19-10.79-1.2,3.98-3.16,10.71-3.2,14.35l-7.3-.67c-1.54-.09-2.79,3.43-3.44,4.85-5.83-9.73,4.55-19.24.74-32.87l-2.55,13.75c-5.69-2.87-9.37-9.48-9.12-17.2l10.66,2.82-.91-10.77-2.91,5.96c-.66,1.35-5.53-.96-7.46-1.66l-3.4,12.97c1.42,3.14,3.47,7.31.32,13.43l-8.1-8.24c-.53-.53-2.61-2.12-2.72-1.36l-.88,6.09c-.44,3.06-2.52,6.27-5.93,8.54l.22-16.02c-4.3,2.05-8.82,8.37-8.84,12.74-.99.54-3.9-.9-3.75-1.98l1.57-11.55-12.75,10.79,6.68-.76c1.07-.12,3.61,1.99,2.79,2.66l-5.64,4.59-9.39,14.46-5.78-11.26c-3.09,4-6.97,10.64-9.86,16.25l-4.61.76,4.11-20.01c-3.37,1.06-6.7,2.29-7.36.96l-2.39-4.83-4.59-6.03-1.15-5.6c10.18-5.11,11.45-16.82,24.73-13.13l1.91-1.45-8.97-6.27,16.26,1.28s-2.1-3.64-3.15-5.46c-2.69-4.64-10.43,2.96-15.37.6l-2.03-11.27c-.66-3.44,7.96-4.43,11.39-3.94l-3.46,7.19c1.18,4.6,3.44,4.33,3.33-1.5l13.87,8.26-3.51-10.78,8.02,2.79c-.4.13.61-.2,1.23-.38l-5.25-7.62c-.86-1.24.22-5.21.76-6.11.56.05,2.62.25,3.25.56,2.78,1.38,7.07,6.04,8.44,8.42l3.82-14.69,10.35,17.12,1.5-14.98-1.69-1.96-2.38,3.89c-.37.61-1.74-.42-1.97-1.06l-1.2-3.28-2.61-1.31,2.44-.87,1.99.38,3.6,1.84,2.62,1.33c1.35.02,4.76.31,5.31,1.77l2.35,6.17c0,2.35,2.31,5.34,3.11.68.72-5.1,5.08-13.87,8.98-13.07,7.6,1.56,5.74,12.05,7.57,18.11l3.44-16.95-1.22-.87c-.49.27-3.13,1.52-3.14.6-.01-1,.09-4.98.86-4.48l2.51,1.6,2.23,2.71,4.45-2.55,1.45,19.44c2.97-5,2.79-11.5.65-17.44l4.5-4.26c1.28-1.21,2.08-4.69,2.69-6.49,7.56-1.53,13.78-5.48,12.8-13.99l2.36.25,9.11-10.87-.34-8.93c-.07-1.94,7.15.59,8.65,1.33.37-2.45,1.08-7.57,2.54-9.16s8.08.28,8.59,2.29l2.24,8.79c.37,1.45,1.51,3.54,2.18,4.47.44.62,3.31-.17,3.14-.91l-.97-4.21-1.31-5.68c-.28-1.22,4.63-2.48,5.14-1.34l2.34,5.15,3.55,7.69c1.31-6.2,2.25-13.2,5.54-15.8,10.27-8.11,3.51-15.09,7.06-16.28l3.13-1.31,1.01.81,7.18,8.14-9.57,13.03-2.89,3.93c-.66.89,3.05,3.73,3.62,2.78l9.06-15.02,1.8-12.71c.18-1.24,4.13-.07,4.93.93l3.65,4.53,1.2-7.65c.25-1.61,2.59-4.42,4.13-3.87l5.13,1.81ZM315.86,16.38l4.35-1.59-4.35,1.59ZM310.17,35.21l4.25-16.89-8.65,5.75,4.39,11.14ZM351.06,40.62l-1.01,1.01,1.01,1.01,1.01-1.01-1.01-1.01ZM281.07,61.28l5.01-9.44-13.02.43,14.96-8.63c-2.48-.75-10.46-.71-12.14,1.72l-6.58,9.55,8.1,2.78c1.06.36-.45,4.21-.77,5.56s.83,5.4,2.05,4.89l4.74-1.98c.88-.37,3.27-1.96,4.03-2.53s-1.14-2.27-2.07-2.06c-.62.14-4.59.25-4.3-.29ZM258.19,61.07c.7-.57,2.8-4.33,1.6-4.82l-6.35-2.56,14.37-6.3c-4.89-3.26-18.05.64-18.44,6.66-.12,1.84,3.87,5.41,3.27,6.91l-2.45,6.19c-.81,2.04,7.06,2.02,9.21,1.48l4.2-1.06c.82-.21-.6-2.93-1.4-2.66l-4.01,1.38-3.57,1.05c-.81.24-1.61-3.17-.89-3.6l4.46-2.68ZM296.77,60.72l-1.01,1.01,1.01,1.01,1.01-1.01-1.01-1.01ZM322.91,60.72l-1.01,1.01,1.01,1.01,1.01-1.01-1.01-1.01ZM386.14,80.12c.47,1,1.12,6.67-.22,8.05-2.16,2.22-10.36,3.15-12.5.99l-7.82-7.88c-10.05-10.13-7.28-18.67-15.97-18.03l5.65,8.16c.97,1.4-.61,4.32-2.83,6.62l9.85,3.47c2.19.77,3.28,6.64,3.8,10.33-4.55,2.33-10.95,1.01-16.01-2.35l6.1,17.09c-6.96,1.1-14.98-1.66-18.19-5.63-1.91-2.36.04-8.89,1.25-10.57l-.9-1.54,1.73-3.79,1.28,3.73,5.2.58c2.79-6.77,2.84-17.63-6.07-20.32l4.29,10.24.95,1.99-1.9,3.33-1.43-2.47-4.89-5.02c-.46-.47-2.28.89-2.5,1.54l-1.82,5.5-2.76-9.84c-4,11.53,7.22,16.28,2.54,36.78.26.02,2.7-3.4,4.16-5.62,4.5,4.18,14.56,6.91,21.75,4.67,4.8-28.03,43.05-10.64,28.92-31.61l-1.63,1.6ZM227.87,83.01l.99-18.63c-9.33,2.66-13.77,12.53-10.85,20.6l5.46-16.11,4.39,14.13ZM299.57,75.57c.9-.44-1.14-5.35-2.03-4.85l-3.2,1.79,1.1-9.51c-4.59,5.4-6.15,10.54-4.96,17.02l9.09-4.44ZM310.13,78.31c1.21,1.94,5.27,5.68,7.97,7.34,3.82-7.52,2.96-15.42-1.38-21.13l.42,16.83-8.37-12.73c-.46.37-2.49,3.55-1.81,4.63l3.17,5.06ZM243.86,69.33c-2.64-.45-6.03-.87-6.21.42l-.61,4.6-2.52,11.28c4.63-6.47,6.64-10.51,9.34-16.3ZM232.43,72.81l-.04,1.31v1.36l.04,1.31.04-1.31v-1.36l-.04-1.31ZM299.94,80.04c.05,1.29,2.1,6.21,2.36,5.16l1.05-4.22c.18-.7-3.44-1.67-3.41-.94ZM225.44,96.55l-1.41-7.09c-.23-1.17-5.14.37-4.8.93,1.26,2.39,4.15,7.63,2.73,9.1l-6.78,7.03,9.72-1.04c2.18-.23,1.11-5.99.53-8.94ZM305.01,98.95c.12-1.35-.04-8.13-.19-8.3-4.48.71-4.4,8.15.19,8.3ZM292.11,93.21l.34,5.77c.05.78,3.27-.36,3.29-1.14l.12-3.93c.02-.78-3.8-1.5-3.75-.7ZM158.04,94.9l-1.01,1.01,1.01,1.31,1.01-1.31-1.01-1.01ZM193.41,97.74l-3.14-3.41c-.82-.9-2.31,4.12-3.44,4.56l-7.06,2.77-3.78,1.37c-.61.22-.39.95,0,1.52l1.19-1.15,10.93.39,4.07-4.87,1.22-1.17ZM150.08,99.88l-1.07.17.56,11.98,7.52,1.92-2.18,14.11,13.29-5.78c1.33-.58,4.67-2.39,5.37-1.36l2.73,4.03,1.08-.98-1.21-7.58-19.52,7.08c2.37-7.57,5.11-10.58,10.41-14.46l-14.04,1.53c-.22-3.16,3.29-8.33,7.74-11.24l-10.68.58ZM194.84,102.53l1.98-1.99c-4.52-3.49-5.46-2.56-1.98,1.99ZM295.8,101.8c-1.15.24,1.63,3.83,2.77,3.41l3.21-1.2c.76-.28-.36-3.38-1.15-3.22l-4.83,1.01ZM178.74,108.55l2.01-1.98c-4.54-3.49-5.39-2.48-2.01,1.98ZM132.06,118.84l-1.71,1.61c-3.15,3.37-5.81,10.48-6.24,16.58l13.2-1.49-.31,6.66c-.06,1.24,1.98,2.63,3.35,3.17-3.2-14.43,9.61-20.02,2.14-19.27-6.1,5.09-7.8,6.17-13.63,7.77.81-9.77,5.43-11.87,12.63-14.53l-9.43-.5ZM178.55,125.53l-.92,1.14.92-1.14ZM395.29,125.08l-.04,1.31v1.36l.04,1.31.04-1.31v-1.36l-.04-1.31ZM400.88,138.9l-.61-3.26-9.86.93c.49-2.12,1.56-5.84.58-5.49l-4.25,1.54c.84,4.3.85,10.23.05,13.59.05.37,7.11,1.64,6.81.19l-1.55-7.42,8.83-.09ZM385.41,152.17c-2.59-3.09-4.22-4.43-4.25-5.83l-.12-6.2-.55-4.23c-.11-.87-2.96-.62-2.87.26l.62,5.94c-.13,3.83-1.79,4.4-4.23-.92-1.78-.31-2.54,8.01-.7,10.56,1.87,2.59,9.26,1.93,12.09.41ZM355.04,157.55l-5.97-7.28-.12,17.23-9.08-12.67-3.78,5.12c-.7.95-2.28.7-4.61,1,.56,2.62,4.57,10.19,5.19,8.1l1.43-4.85c.35-1.18,2.1-3.81,2.8-2.82l4.15,5.88c.79,1.12,3.94,1.1,5.14.96l2.71-8.99,2.15-1.68Z"/>
  <path class="cls-3" d="M163.03,172.23c-2.61,2.97-5.75,3.09-12.6,2.01l3.9,9.2-5.91,6.24,1.68,1.26,11.11,1.1-4.86,11.66,12.63-4.95c-1.85,8.17-12.45,9.01-16.01,5.11.21-1.9,2.62-7.67,1.06-8.46l-5.22-2.64-1.4-.87c-1.02-.65-3.28-2.32-2.83-3.45l2.49-6.29-8.33-15.06c6.08-4.37,9.07-11.56,10.15-19.03,4.16-.65,8.22-2.39,8.03-4.83.79-.43,2.72-2.62,3.12-1.81l2.39,4.87c2.06,1.99,7.63,5.23,7.08,7.83-.71,3.35-2.8,7.73-4.45,9.66l-1.97.91-.06,7.53ZM161.05,149.19h-4.02v10.05h4.02v-10.05ZM161.38,163.75l1.24-3.37-1.24,3.37Z"/>
  <polygon class="cls-3" points="339.91 14.41 338.86 18.67 337.23 12.58 340.36 12.04 339.91 14.41"/>
  <path class="cls-3" d="M368.1,428.75l8.79,5c2.5.87-.47,7.58-3.3,9.36,1.33,1.28,4.59,4.06,4.29,5.96l-1.15,7.52,11.05-5.42c.14-.35.09,2.74-.24,3.9l-1.69,5.88c7.98-3.55,11.18-9.42,13.9-18.68l.29,15.53,1.24,1.5,3.18-12.77,4.77,15.11,8.41,1.85,4.02-3.02c.99-.74,5.19,1.14,4.97,1.45-1.03,3.01-2.16,6.05-.85,6.37l5.56,1.35c-.05.99-1.75,5.5-.37,5.88l8.21,2.3-4.04,7.93,9.46.11c1.64.02,2.8,5.79,1.61,6.91-9.71,9.21-18.53,6.81-18.53,9.67-.01,5.56,6.01-3.82,13.46.53l-11.51,7.71,12.87,5.45-13.96,3.31,13.52,8.41-12.36,6.1,18.53-3.39-8.57-8.51,5.8-6.33-6.28-6.71c-1.15-1.23,4.09-6.81,5.75-6.45l9.88,2.17c1.93.42,5.76,2.55,6.24,4.47-.25,1.14-2.37,2.48-3.48,2.6l-5.01.56,10.62,5.32c1.24,2.52,3.19,7.39,3.12,10.2-.06,2.46-5.67,5.86-6.6,6.17l2.57,11.49c.55,2.44-4.24,5.95-6.59,5.23-4.48-5.18-7.44,2.94-19.3-2.39l1.93,9.52,2.04,1.19-1.84,3.95-1.54-4-4.31.58c-1.63,7.68-2.56,10.01-5.43,18.88,2.61-2.54,6.18-8.13,8.25-12.01l9.43-.8-2.08,9.59-9.56,8.71c-20.45,6.68-34.36-17.08-43.29-11.81-5.71,3.37-5.49,11.05-11.89,12.78-5.32-5.85-5.64-12.69-.26-16.3l-19.54-15.29c-.1-4.45-2.42-8.15-5.77-10.33l6.13-8.05,7.53,12.02,7.3-11.5,1.11-1.7.04-3.88c0-.82-3.14-.03-3.43.79l-4.09,11.67-5.67-14.71-14.81,11.05-1.1-10.41-2.12,5.2-5.12-3.95-7.18,3.89c-1.55.84-4.77-2.6-5.42-3.67,3.15-6.67,7.83-10.06,17.78-13.7l-6.19-4.66c-2.95,6.17-7.77,9.18-15.17,10.53l-.39-11.12-12.61,4.95,2.38-13.45-14.51,4.64,8.57-11.59-13.17-2.7,8.67-4.03-9.95-4.18-3.33,10,9.82,2.9-2.27,9.8-13.19-6.38c-2.34-1.26-6.75-2.55-6.52-4.61l.9-7.88c.97-8.5,2.46-14.27,11-15.1.67.63,5.38,3.67,4.3,4.84l-4.73,5.12,13.81-4.44-11.51-7.44,19.17-1.49c-7.11-2.64-13.97-2.69-21.31-1.2-.35-5.86,3.83-12.43,9.75-13.56.68-2.33,1.27-5.07,2.42-5.42l4.59-1.36,2.73,4.44.77-1.15c-.31-1.3,1.08-5.67,2.52-5.03l6.86,3.07.6-2.02-1.69-7.69c7.22-1.01,13.32,9.18,9.56,14.04-1.23,1.59-6.63,2.42-7.32,4.22l-3.02,7.86-3.45,7.98c-.8,1.85,5.86,6.67,5.6,4.85l-1.62-5.27c-.21-.67.73-2.5,1.4-2.3l4.81,1.48c.08-.09,3.91-4.6,1.91-2.25l-4.35-8.44c-.7-1.36,3.75-3.5,5.26-3.03l7.04,2.17-2.62-12.88c4.73,1.41,8.07,3.56,14.81,7.82.23-1.1-3.29-6.08-6.21-9.43-.77-5.49,1.95-12.14,6.97-19.29l6.83,13.48c1.83-6.98.34-16.53-7.95-18.89l.4-1.21c5.5.34,10.16,1.98,15.28,4.62l8.96,3.34ZM368.31,443.41c.07-1.74-3.39-7.54-5.71-6.88-1.6.45-4.85,5.67-4.37,7.26s2.34,4.15,3.1,4.8l1.58-8.28c.13-.66,1.9,1.65,2.35,2.22l1.81,2.25,1.24-1.37ZM369.34,444.9l-1.64,1.07,1.09,5.89c-.04-.19,2.37-2,4.01-5.97.04-.09-3.67-1.05-3.46-.99ZM317.57,450.67l2.01-1.41-2.01,1.41ZM310.24,453.69l-2.31.83c2.31,3.04,3.36,2.79,2.31-.83ZM374.72,485.24l-8.89-14.78-5.43,11.37-.54-13.04-10.93,1.81,7.37-9.7-9.62,3.69c-2.35.9-3.47,8.88-.97,9.08,3.73.31,8.94.27,9.56,2.31l2.4,7.92c.63,2.08,7.11-1.56,8.01-2.4l11.48,7.79,7.07-10.73-8.28-7.52-1.22,14.2ZM384.73,525.86c-1.09,10.37-1.55,11.02-4.27,16.43-.12.33,4.73.63,5.01-.89l1.58-8.7,15.57,3.82,1.97-11.11,11.93,1.64-2.15-15.21,7.99,1.29c1.87-7.23-.56-13.52-5.82-17.17l9.8-8.83-12.49-8.51,2.17-9.73c-1.56-1.63-5.53-4.18-7.37-3.2l-7.19,3.82,8.99,1.47-4.86,8.86,16.26,8.12-14.23,6.76c5.39,3.78,9.75,7.42,12.32,11.43l-13.64-1.29,7.19,19.07-14.31-5.77.5,14.19-14.97-6.52ZM321.63,491.87l6.39-14.13-6.79,1.2c-1.17.21-.68,3.74-.75,4.97l-.53,10.08,1.68-2.12ZM356.72,495.76l-1.48-10.1-9.9,12.87-3.66-11.37-18.7,5.61-1.39,1.6.42,12.47,11-3.15,2.2,4.93c.59-3.07,1.3-8.42.03-8l-5.99,1.96-4.52,1.48c-1.01.33-1.61-5.25-.89-6.02,2.95-3.16,12.42-5.58,16.33-4.42,1.2,3.22,3.17,8.37,4.69,7.38l5.67-3.72c.95-.62,2.54-1.51,2.48-1.58,0,0,1.69,1.13,2.03,1.34l1.68-1.27ZM355.4,498.5l3.77,4.16c1.25,1.39,5.15-3.42,4.83-5.27-.4-2.31-1.14-6.76-1.13-6.67l-5.55,6.29-1.92,1.49ZM376.05,515.44l4.6-2.85c.99-.61.95-3.47,1-5.9.09-4.07-2.64-9.53-4.92-9.08l1.08,15-1.76,2.83ZM368.27,510.81c.43,1.22-2.15,5.75-2.74,4.62l-2.11-4.02c-.63-1.21-3.55-4.59-4.25-3.41l-6.11,10.4-2.33-14.02-.34,15.98c9.41-1.92,10.66-2.05,18.64-1.75l2.89-10.87c.17-.65-2.32-2.26-2.98-2.37s-2.58,0-2.36.64l1.68,4.8ZM374.25,513.41l1.38-2.22-1.38,2.22ZM448.98,519.53c4.54,3.49,5.46,2.55,2.02-2.01l-2.02,2.01ZM453.84,521.16l-1.37,1.05,3.07,6.97,1.41-1.17-3.11-6.85ZM418.95,528.3l3.88-.29-3.88.29ZM424.06,528.64l-1.42,1.5,4.72,9.35-13.65-2.87,3.83,13.4-11.18-.2c.03,8.28-.79,10.52-5.44,15.27l5.45-.5c2.02-.19,1.5-11.6,3.15-11.48l7.64.58c1.68.13,3.85-3.67,3.37-5.2l-2.33-7.33,11.55,1.14c.57-6.13-1.56-11.28-5.69-13.66ZM457.63,532.65l.05-3.16-.05,3.16ZM375.59,534.38l-1.65,1.9,1.11,1.34,2-1.84-1.46-1.39ZM376.31,539.13l1.72-2.4-1.72,2.4ZM405.34,545.28l-1.01,1.01,1.01,1.01,1.01-1.01-1.01-1.01ZM396.41,560.11l-4.35-10.47-4.85,10.42,7.97,1.33,1.23-1.28ZM396.6,563.31l1.48-1.95-1.48,1.95ZM424.74,562.31l-7.7,11.43-1.69-12.78c-3.74,4.78-3.83,10.23-1.69,15.51l12.91-6.34c1.19-.58-1.23-7.47-1.84-7.82Z"/>
  <path class="cls-3" d="M345.58,227.11l2.74.08,5.36-2.45-5.15,12.08,7.92-6.74,3.07,13.09,9.79-11.29,2.87,12.62c4.96-7.58,9.63-11.54,16.04-8.77l-1.56,13.82,5.19-2.1c1.15-.46,2.51,2.04,2.64,3.25l.59,5.55,9.48-12.62,1.52.07,2.31-2.47,3.69-.36c2.13,5.56.69,11.45-1.94,20.59l13.58-4.66-.73,10.85,6.65-2.04c1.71-.53,5.69,1.57,6.36,2.81l-6.47,9.26,14.86-3.97-.57,8.3c-.16,2.27-7.65,2.99-8.52,2.51,2.49,2.01,6.42,7.01,7.89,10.71-6.43,1.49-10.25-.12-14.63-3.11l-.71,8.04c-.14,1.59-4.28,5.02-5.19,3.87l-6.83-8.66-.92,1.66-2.75,8.36c-.65,1.97-5.96.71-9.61-1l1.72,7.34-8.16,2.28,13.65,6.26-1.74-7.9,10.32-7.01c1.65,1.27,7.28,5.34,8.31,3.5l5.03-9.01,15.22-.54c-5.32-15.3,7.93-20.74-1.92-29.04l9.95-.27c2.48,1.58,2.63,6.82,2.4,10.68l1.19,13.05-6.26,6.06-4.5.03c-1.14,0-1.28,3.1-1.3,4.24-5.14-.16-10.5.93-14.62,3.87l8.07,6.39,13.98,4.02c-7.65,2.13-9.79,5.03-10.89,11.67l-2.75,1.96-2.26,1.16-4.3-.64c-1.27-.19-.95-3.8-1.16-5.18-2.49-3.77-3.11-5.18-2.28-12.98l-10.26.11,8.28,3.42-10.52,7.75,12.22,1.52c-4.04,9.29-11.88,4.57-15.66,1.82-.77-.56-3-1.55-3.64-1.72-.97-.26-3.39,1.52-2.67,2.23s3.05,2.49,4.02,2.81l5.51,1.82c1.03.34-.31,3.95-.83,4.34l-10.32-2.77,5.41,10.75-8.22-2.18-1.49,1.02-5.34,1.51,6.71,10.23-11.62-5.11,2.97,6.18c.57,1.19-2.02,7.16-2.95,6.17l-9.21-9.83c-3.74,7.22,6.57,14.54,12.98,13.56l1.17-8.24c.25-1.75,4.26.12,9.05,1.45l-1.28-12.78,10.91,1.97c2.59-9.39,6.87-16.87,17.66-13.19l-11.09,11.75,6.53,2.56c1.5.59,3.09,4.16,4.06,5.26-.48-3.55-3.34-9.92-1.86-11.96l7.29-7.86.1,6.99.28,2.6,2.25,3.28-.17,2.92-6.85,11.28c.17,1.86.66,7.32-.87,7.62l-5.82,1.11c-2.4-1.05-5.44-6.72-6.31-9.74-.67-2.31,5.87-4.35,7.93-5.55l-14.64-2.81c2.9,5.79,4.39,9.15,4.82,16.33l-11.68-11.03.84,18.23-9.05-10.18c-1.05,9.62-.79,12.14-4.22,17.87l-6.05-11.44c-.19-1.2-3.28,3.56-2.41,4.88l3.11,4.72c1.28,1.94,3,6.24,3.15,9.11-1.68,1.31-5.08,3.26-7.42,3.91-5.29,1.46-2.47-11.29-6.5-13.44-1.09-.58-5.7,1.69-6.52.78l-5.54-6.15c-1.01-1.12-4.51.04-5.98.36,1-3.49-.66-8.56-2.38-12.53l3.95-4.71-3.73-6.12c-.79-1.29,1.55-5.11,2.79-7.17,4.87,2.25,11.75,1.95,13.29-2.62l-6.03.69c-1.42.16-2.19-4.16-2.48-5.64-3.92,3.24-8.45,5.51-15.25,7.96l5.86-12.61-8.34,2.78c-.89-3.88-1.19-7.71-.78-10.62l10.86-.85c2.82-.43,3.13-7.88,3.88-10.87l3.53-14.02-4.37,5.21c-1.13,1.34-4.78-.21-8.24-1.84l.9,3.83,6.17,6.25c1.68,1.71-4.04,8.99-5.99,7.55-3.26-2.42-3.18-6.25-2.75-12.82l-9.32,7.01,2.05,2.8-5.16.42-1.64-3.3.52-11.78-11.42,4.58c-2.19.88-4.58-7.46-3.29-9.52,1.5-2.4,5.7-2.75,10.8-3.46l-6.04-2.25c-1.57-.59-2.63-4.04-3.88-6.31-1.4,3.58-2.86,8.22-4.32,9.96-1.7,2.03-6.64,2.58-10.63,2.49l8.42-12.76-7.07.44,1.02-4.83-10.09.36.06-7.33c.01-4.62,19.16-.87,9.11-7.4l-4.46-2.9c-1.02-.66-.14-5.96,1-5.55l5.61,2.01,4.52,1.62c.86.31-.32-3.09-.53-3.97l-1.56-6.4c-.34-1.41,5.42-1.15,5.69-.7l1.24-1.32-5.58-2.96c-1.79-.95-3.11,6.08-3.2,8.7l-6.53-1.52c-4.35-1.01,1.35,9.15-7.58,18.14-1.34,1.34-5.04,5.25-6.25,4.1l-6.04-5.73,12.15-3.6-15.28-1.1-.55-3.84,3.23-1.67c3.44-.21,7.16-3.17,9.85-6.78,1.82-.98,6.63-1.87,7.11-3.81l1.62-6.63c9.11-1.59,16.67-14.41,24.47-10.91,2.2.98,5.14,4.38,6.17,6.56l4.11,8.72-.99-8.67-.59-3.63,2.22-2.74c.51-.6,2.14.23,2.76.55l1.07-.89-2.42-3.38,1.17-4.97c.18-.77,2.32.57,2.74.88ZM344.5,237.23l.96-1.12-.96,1.12ZM321.89,255.52l2.7,1.41,4.53-14.57c2.06.24-3.95-.46-4.67-.55l-1.65,11.03-.91,2.67ZM333.05,245.56l-.45,8.14.45-8.14ZM385.04,268.22l2.68-7.46c.6-1.68-5.31-2.62-7.46-2.68l-5.67-9.41-5.98,6.36c-2.47,2.62-9.73-8.68-18.98-4.81l8.87,13.29,11.38-3.44,4.07-6.92,2.91,10.16,6.02-.98c1.05-.17,1.55,3.72,2.15,5.9ZM357.89,285.42l-1.53-12.06-6.94,4.51c-1.55,1-7.59,1.22-7.46-.59.13-1.81,1.44-5.06,2.68-6.46l3.42-3.84c2.07-2.32-11.05,1.52-13.4-4.55l13.11-3.98c-.05-.47-5.15-3.95-6.7-2.92l-6.65,4.42-4.36,2.9c-3.18,2.12,9.57,4.89,9.31,8.13l-.8,10.21,14.61-.29,3.76,6.84.95-2.34ZM358.43,289.91c1.16,1.68,7.57,3.86,8.48,2.02l4.31-8.66,9.25,2.88,1.66-14.8-5.64,11.96-8.22-9.75-1.37,16.48-7.73-2.34-.75,2.2ZM414.34,294.36c-.31-1.65.41-7.44,2.29-6.82l8.63,2.86c2.84-5.19-.23-14.32-6.54-17.15l3.49,14.28-11.93-8.61,1.42,12.77-8.36-8.63c-1.03,6.52,3.91,11.84,9.57,12.79l1.44-1.49ZM376.11,294.39l4.26,9.24,12.4.57,5.71-14.96c1.41-3.71-5.1-11.88-10.72-11.42l5.99,11.03-9.85-3.32,7.34,15.89-15.13-7.02ZM332.7,284.54l-3.82-2.97-3.17,3.46c-.47.52.42,3.23,1.04,2.88l5.95-3.37ZM369.9,300.43c1.12-.61-1.56.85-2.21,1.2l2.21-1.2ZM401.32,299.98l-1.01,1.01,1.01,1.01,1.01-1.01-1.01-1.01ZM371.09,301.99l-1.61,1.45,5.39,9.14c1.27,2.16,7.92-1.01,7.85-3.73-3.18-.64-6.98-.66-7.94-1.95l-3.69-4.91ZM383.19,331.58l6.11,1.14c.96.18-.8,3.06-1.61,3.56l-5.23,3.24c.27.41,5.72.31,7.89-.17,1.81-.4,3.27-6.55,1.68-7.51l-6.64-4.04c-1.05-3.07-2.09-7.62-4-8.02s-5.01,1.56-8.49,5.1l3.1-.03,5.12-3.1c.64-.39,1.25,2.6.81,3.23l-2.03,2.91-2.35,3.36c-.54.77,4.26.08,5.64.34ZM402.09,320.03l-8.87,5.32,2.31,3.84,8.87-5.32-2.31-3.84ZM369.88,336.17c0-.96-.77-1.73-1.73-1.73s-1.73.77-1.73,1.73.77,1.73,1.73,1.73,1.73-.77,1.73-1.73ZM400.49,344.11l1.46-3.29-1.46,3.29ZM365.46,357.25l-1.31.04,1.31.04h1.36l1.31-.04-1.31-.04h-1.36Z"/>
  <path class="cls-3" d="M301.28,284.25l9.08,4.46c-1.54,8.49-10.04,7.52-10.77,15.33-2.36-.23-6.99.77-10.34,1.58l5.66,7.09c.11.14.14.43.19.73l7-.58c-1.34,3.15-4.05,7.29-5.21,6.17l-3.59-3.51-.98-1.64-9.03-.08,3.52-7.12c.58-1.17.11-3.1-.06-4.08l8.63-12.27c-4.81-.41-10.23-3.33-9.08-5.25,4.01-6.73,9.97-3.32,15.01-.84Z"/>
  <path class="cls-4" d="M195.64,203.14c-1.36,3.24-.35,9.57,1.04,13.18l6.63-3.83,8.56,1.22,2.31,6.84c.48,1.43,1.02,5.85-.46,6.07l-4.38.74-6.32-6.5-3.64,7.97c-.67,1.46-5.4,1.05-5.87.97l-4.57-12.93-9.65,3.13,1.55-10.46-6.99,2.41c-1.07.37-.52-4.04-.09-5.23.37-1.02,1.2-.61,5.35.96l6.49-6.67-1.75-1.55-6.88-.32c-1.78-.08-3.27-6.96-1.68-7.6l12.2-4.92-2.37,11.65,1.5,1.25,2.19-3.26c.63-.94,5.19-.29,4.83.09l-2.97,6.24c-.46.96,4.67-.45,4.99.58Z"/>
  <path class="cls-4" d="M184.34,166.99l3.81.75,2.96,13.49-5.63,3.5c-1.81.65-4.6-2.43-6.7-5.19-12.93,8.39-1.34,15.56-8.42,26.97-.95,1.53-3.37,6.68-2.05,7.8l5.59,4.76c1.17.99,3.25,4.88,4.78,4.65l8.04-1.21,6.79,7.29,1.17,4.25c2.83,4.09,6.88-5.65,14.66-6.68.42.43.07,2.69.67,2.75l5.77.63,1.65-11.08.26-3.21c-1.31-.85-4.28-2.34-5.81-2.73l-2.02-8.43c-.62.47-3.07,3.98-3.8,3.46l-5.54-3.96-2.19,6.98-2.69-8.62c-.43-4.32.85-8.01,2.42-11.93,6.23,5.94,14.21,8.77,23.17,10.51l.2,35.87-9.77.15-3.69,6.32-6.21-8.45-1.48,9.76-5.51-6.08c-2.17,2.03-2.99,3.02-3.9,3.11l-4.72.49c-.01.28,2.76,3.59,4.16,3.93l4.78,1.17,8.46-.69,6.21-.16c1.09-.03,2.03-3.36,2.86-5.6l8.85,2.16-.11,10.48-7.5-4.41-3.49,10.61-4.52-8.63-7.25,2.64c-5.09,1.86-11.03,2.5-15.21,4.18-.46-.83-2.56-5.11-3.32-4.51l-6.04,4.77-1.12-8.11c-5.11,1-7.99-.11-12.45-3.16-2.45-6.32-3.37-13.92-4.31-22.29l-7.78-1.51-1.84-13.84-5.1,1.42c-1.51.42-6.26-1.18-5.61-2.62l3.87-8.66-13.76-.77,4.59-9.96-5.32,3.85c-1.45,1.05-2.73,6.02-1.08,6.56l9.05,2.93-.46,10.36,10.52,1.19.47,9.25c.08,1.62,4.09,2.21,4.87,2.37,1.25,14.01,4.75,28.36,8.7,42.17l-1.17.19-10.84.11-.5-14.16-11.76,1.94,1.04-10.17-2.7.16-.67,12.34c-8.46-.05-11.05-7.07-23.71-4.14l-.09,6.29c-.01.79-2.37,2.25-2.81,1.6l-3.36-4.99c-1.21-1.79-7.89-1.85-8.9.06l-4.58,8.63-6.59-1.98-1.17-3.68c-.3-.63-2.47-.93-2.61-.56.18-.34.01-1.22-.18-1.49l-2.44-2.62,6.51-9.24,4.43-1.48c.61-.21-2.08-1.15-2.7-1.38v-14.08c0-3.22-4.68-10.15-2.98-12.9l6.63-10.78,5.18.09,1.64-1.85,8.72-3.46-7.25-9.29,3.82-.1,10.85,5.14-4.25,6.59c-.81,1.26,1.53,4.93,2.18,6.32l4.08,8.72,1.6-1.47c1.29-1.12,5.59-4.57,4.11-5.47l-6.27-3.81c-.94-.57-1.82-3.92-.66-4.02l8.1-.74-8.33-8.31,19.63-10c1.69-.86,2.15-7.26.55-7.93l-6.37-2.68c.07.19-.55-1.48-.77-2.04l8.81,1.02,7.3-5.25,8.33,15.06-2.49,6.29c-.45,1.13,1.82,2.8,2.83,3.45l1.01-2.22,5.91-6.24-3.9-9.2c6.84,1.09,9.98.97,12.6-2.01l6.68-3.51c1.39-.73,1.69-5.77,1.93-7.91l8.29,10.71c2.32-2.2,4.17-3.44,4.42-4.53ZM140.9,188.76l-8.14-.45,8.14.45ZM150.1,190.94l-1.3,1.83,5.22,2.64c1.56.79-.85,6.56-1.06,8.46,3.57,3.9,14.17,3.06,16.01-5.11l-12.63,4.95,4.86-11.66-11.11-1.1ZM91.7,207.2l3.17-.97-3.17.97ZM114.03,217.74l-1.17,1.83-11.01,9.59,10.04,4.39c1.98.87,5.21-5.24,6.35-6.71l.65,7.95c.27,3.24,10.86-1.91,12.45.52l2.77,4.23,1.03-.95-1.32-6.35c-.14-.69-15.51,3.81-12.81-.95l4.05-7.17-11.04-6.38ZM100.52,231.45c-2.39-3.42-7.94-5.85-10.56-.91l10.56.91ZM87.67,231.64l-.04,1.31v1.36l.04,1.31.04-1.31v-1.36l-.04-1.31ZM146.49,246.73l-2.24-13.26c-2.08,4.8-3.01,9.35,2.24,13.26ZM181.89,238.58c-1.37,1.52-5.25,4.43-5.63,3.24l-1.03-3.24-1.75-5.56-2.22,7.42c-.54,1.81,3.2,6.46,4.86,5.57l8.47-4.57c2.41-1.3-.53-6.83-2.7-2.85ZM90.28,245.59l10.95-5.19c-1.51-1.1-9.01-3.1-10.43-.75-1.67,2.75-3.91,7.84-3.07,7.79l2.55-1.85ZM135.41,241.27l.93-1.13-.93,1.13ZM91.77,247.28l-1.6,2.1,10.03-.24-8.43-1.85Z"/>
  <path class="cls-4" d="M294.59,401.72c3.56,2.73,8.12,4.92,13.35,5.28l16.34,1.11c8.55.58,18.26,1.81,20.26,10.6-1.41.03-1,1.6-.66,2.08l-.4,1.21-9.09,11.9-15.36.09c-2.66.02-7.01,4.43-8.36,6.92l-6.12,3.17c-1,.52-.63,3.77-.53,4.17l-4.59,1.36c-1.16.34-1.74,3.09-2.42,5.42-5.92,1.13-10.1,7.7-9.75,13.56l.27,4.61c-8.54.83-10.03,6.6-11,15.1l-.9,7.88c-.23,2.06,4.18,3.34,6.52,4.61l13.19,6.38c-.39,1.69-1.77,4.79-2.88,6.12l-4.06,6.37-10.61-5.84,5.62-4.06c1.74-1.26-4.12-6.53-5.9-6.36l-2.08,3.98c-.45.86-10.38.34-10.28.56l-2.73-6.38-.82,7.99,9.74,6.28,2.16-2.25c.59-.61,2.54-.04,2.61.8.08.97.34,4.23.29,3.64l-4.03-.35c-.88-.08-2.47,3.24-1.58,3.33,8.42.89,12.05-3.09,13.88.09,1.48,2.57,2.07,6.97,1.91,10.93l6,3.31-.53,1.94-4.76.32-4.6.08c-1.06.02-.46,4.05-.05,5.08l3.86,10.56c-1.52.79-6.08,2.9-6.6,1.26l-1.78-5.63-1.26-5.57-7.48,3.25-2.44,2.03-.04,3.26c0,.56-.58.72-.93.32l-2.51-2.87-2.82-3.24c-.52-.6-1.84,1.15-2.41,1.66l.78-12.57,11.04-3.32-11.56-.65-1.28-33.08,7.95,2.78,3.04-8.7-11.72,2.72-2.88-44.31c-.32-4.85,6.31-10.72,9.31-10.63l4.34.82,2.59,12.28-4.94,6.8c-1,1.37,5.7,3.67,5.76,2.68l-.76-6.46,3.97-3.05-.83-4.95-.88-1.41.79-1.53,2,.89,5.84,1.27c1.15.25,1.15-3.86.13-4.45l-4.72-2.73c-.29.31-.29-4.81.98-4.79l8.18.13c2.19,1.29,5.18,1.27,2.11-1.22l-2.98-6.83c-.72-1.65,2.33-4.06,5.02-6.46l-5.63.6c-1.88.2-1.36,4.75-.6,8.84l-9.44,2.14c1.58-3.57,2.87-7.42,1.42-10.63l6.89-7.12,12.47-13.12ZM323.96,415.22c-1.58-1.2-5.66-2.17-7-.65l-5.14,5.83-4.27,4.84c-.69.78,3.78,3.37,3.76,3.18,1.2-7.09,5.24-12.77,11.36-12.06l1.28-1.14ZM299.2,427.43c.39-4.66.73-7.95,1.95-8.36l4.55-1.54c.19-.26-3.79-3.69-4.69-2.62l-4.32,5.12c-1.26,1.5-2.75,5.29-2.23,7.03.42,1.39,5.76,1.32,4.74.38ZM325.12,416.1l-1.43,1.65,1.32,10.14,14.09-10c-5.09-1.69-10.77,5.17-11.85,2.83l-2.13-4.62ZM282.54,534.36c-1.48-.79-6.41-.54-7.69.75-1.5,1.52-2.92,5.33-2.42,6.81l10.11-7.56ZM265.77,547l2.5-1.73-2.5,1.73Z"/>
  <path class="cls-2" d="M113.32,388.38l2.55,4.2c-4.7-.2-9.26,2.45-12.29,6.69l-9.66,13.5c-.42.59-3.93,2.12-3.95,1.41l-.18-4.44c-.15-3.83-3.14-10.53-6.54-11.53l-10.4,8.49c-1.6,4.2-5.78,8.32-8.23,6.77-2.51-5.96-5.69-9.05-10.91-12.07l-2.54-3.22c-.53-.68-3.32.66-3.05,1.48l1.37,4.13,2.42,7.3c.56,1.67-3.02,4.36-5.92,5.75l-7.57-20.8-4.79,6.3c-1.02,1.33-6.16.83-6.65.21.17-8.83-1.96-15.61-8.8-18.09l8.39.48c1.99.11,2.39,4.96,2.61,9.04l5.69,2.38-1.21-11.06c8.81-1.65,11.37-3.57,21.2-9.8l.12,13.83,16.14-12.95c-.48,9.1-1.72,14.56,3.38,19.21,3.93-5.78,5.95-12.44,6.25-17.76l-1.13-1.08-1.96-6.45c-.45-1.48-3.47-2.28-5.05-2.98l7.33-3.75,1.52,11.47.38,1.74c.48.55,5.45.85,6.6-.37l9-9.57c1.44,5.16,3.02,8.75,5.85,13.87.28.14-3.97,1.47-4.4.5l-2.9-6.59-11.07,7.96c-1.72,1.24-4.93,6.94-3.37,8.36l7.76,7.12,2.4-14.52,2.55,13.23,9.04-7.42c1.12.57,3.58,2.16,4.57,1.68l5.45-2.65ZM70.13,407.13c-4.77-9.96,1.24-18.55-6.34-18.71l-7.62,11.32,11.43,8.89,2.53-1.5Z"/>
  <path class="cls-2" d="M404.64,437.21c-.17,4.1,1.55,8.6,4.18,13.87l11.68-6.16,22.83,7.59-.34,11.14,13.48,10.39c1.65,1.27,1.18,6.46.49,8.07l-13.32-1.06,12.8,13.02-7.56-.77,7.42,8.36-1.47,3.05-9.88-2.17c-1.65-.36-6.9,5.21-5.75,6.45l6.28,6.71-5.8,6.33,8.57,8.51-18.53,3.39,12.36-6.1-13.52-8.41,13.96-3.31-12.87-5.45,11.51-7.71c-7.45-4.35-13.47,5.03-13.46-.53,0-2.86,8.82-.46,18.53-9.67,1.19-1.13.03-6.89-1.61-6.91l-9.46-.11,4.04-7.93-8.21-2.3c-1.38-.39.33-4.89.37-5.88l-5.56-1.35c-1.31-.32-.18-3.36.85-6.37.22-.31-3.98-2.19-4.97-1.45l-4.02,3.02-8.41-1.85-4.77-15.11-3.18,12.77-1.24-1.5-.29-15.53c-2.72,9.26-5.92,15.14-13.9,18.68l1.69-5.88c.33-1.16.38-4.25.24-3.9l-11.05,5.42,1.15-7.52c.29-1.9-2.96-4.69-4.29-5.96,2.82-1.79,5.8-8.5,3.3-9.36l-8.79-5c2,.75,6.17.95,8.78,1.19l15.9,14.98,11.86-7.71Z"/>
  <path class="cls-2" d="M454.9,270l-9.95.27c9.85,8.3-3.4,13.74,1.92,29.04l-15.22.54-5.03,9.01c-1.03,1.84-6.65-2.23-8.31-3.5l-10.32,7.01,1.74,7.9-13.65-6.26,8.16-2.28-1.72-7.34c3.64,1.71,8.96,2.98,9.61,1l2.75-8.36-1.98-1.18c-5.65-.95-10.6-6.27-9.57-12.79l8.36,8.63-1.42-12.77,11.93,8.61-3.49-14.28c6.31,2.83,9.38,11.97,6.54,17.15l-8.63-2.86c-1.88-.62-2.6,5.17-2.29,6.82l1.47,1.01,6.83,8.66c.91,1.15,5.05-2.28,5.19-3.87l.71-8.04c4.38,3,8.21,4.61,14.63,3.11-1.47-3.7-5.41-8.7-7.89-10.71.87.48,8.36-.24,8.52-2.51l.57-8.3-14.86,3.97,6.47-9.26c-.67-1.24-4.65-3.34-6.36-2.81l-6.65,2.04.73-10.85-13.58,4.66c2.63-9.14,4.07-15.03,1.94-20.59l7.44-.72c1.78-.17,3.38,4.26,4.25,6.53l13.21,11.86,17.92,11.43Z"/>
  <path class="cls-2" d="M294.18,5.76l-3.13,1.31c-3.54,1.19,3.22,8.16-7.06,16.28-3.3,2.6-4.24,9.6-5.54,15.8l-3.55-7.69-2.34-5.15c-.52-1.13-5.42.12-5.14,1.34l1.31,5.68.97,4.21c.17.74-2.7,1.53-3.14.91-.66-.93-1.81-3.02-2.18-4.47l-2.24-8.79c-.51-2-7.19-3.81-8.59-2.29s-2.17,6.71-2.54,9.16c-1.5-.73-8.72-3.27-8.65-1.33l.34,8.93-9.11,10.87c-3.62-9.34,7.92-16.7,3.92-18.6l-6.8-3.24c-2.2-1.05,1.54-7.85,4.04-7.77s5.45,3.18,8.76,7.3c1.58.44,5.29-5.02,7.11-9.44l24.89-1.1c1.04-.88,3.36-4.3,4.93-4.33l5.37-.09c.29-3.01.97-8.93,2.85-8.57l5.51,1.06Z"/>
  <path class="cls-2" d="M404.56,243.64l-9.48,12.62-.59-5.55c-.13-1.22-1.5-3.72-2.64-3.25l-5.19,2.1,1.56-13.82c-6.4-2.77-11.07,1.19-16.04,8.77l-2.87-12.62-9.79,11.29-3.07-13.09-7.92,6.74,5.15-12.08c1.28-.58,4-1.74,5.16-.96l4.79,3.21c1.28-1.81,4.99-6.18,6.67-4.93l6.63,4.91,16.59,3.34,3.9-5.04c1.16-1.5,6.33-2.21,7.67-.87,1.1,1.1,1.77,6.27.35,6.9l-6.61,2.93-.64,12.41,6.36-3.02ZM378.65,233.02c-5.18-.64-5.49-.68-.7-.09,2.17.27,2.93.36.7.09Z"/>
  <path class="cls-4" d="M163.17,590.41l-.37,5.83c-.14,1.31-3.79,1.47-4.67,1.4l-1.07.94c1.69,1.37,7.56,2.01,7.74-.11l.64-7.85c4.5.43,12.04.65,15.9,2.1l-8.73,1.81-.82,19.03c-.07,1.57-4.4,6.14-5.48,5.01l-4.2-4.35c-8.07-8.36-1.21,11.28-6.4,12.47l-8.05,1.84c2.79-8.91,3.93-13.94-.52-18.19l-4.08-3.9c3.57-.27,8.85-2.97,8.93-6.94l-.83-10.4,12,1.29ZM156.59,596.17c.29-.21-.96.7-1.31.95l1.31-.95Z"/>
  <path class="cls-2" d="M437.95,333.12l.06,3.75-7.29,7.86c-1.47,2.04,1.38,8.41,1.86,11.96-.96-1.09-2.56-4.67-4.06-5.26l-6.53-2.56,11.09-11.75c-10.79-3.69-15.07,3.79-17.66,13.19l-10.91-1.97,1.28,12.78c-4.79-1.33-8.8-3.2-9.05-1.45l-1.17,8.24c-6.41.98-16.72-6.34-12.98-13.56l9.21,9.83c.93.99,3.52-4.98,2.95-6.17l-2.97-6.18,11.62,5.11-6.71-10.23,5.34-1.51-1.54-1.11,1.46-3.29,1.58,3.37,8.22,2.18-5.41-10.75,10.32,2.77c.52-.39,1.87-4,.83-4.34l-5.51-1.82c-.97-.32-3.28-2.07-4.02-2.81s1.7-2.49,2.67-2.23c.65.18,2.87,1.16,3.64,1.72,3.79,2.75,11.63,7.47,15.66-1.82l-12.22-1.52,10.52-7.75-8.28-3.42,10.26-.11c-.83,7.8-.21,9.21,2.28,12.98.21,1.38-.1,4.99,1.16,5.18l4.3.64Z"/>
  <path class="cls-2" d="M340.36,12.04l-3.13.54-5.31-9.95c3.54.07,8.01,5.89,8.44,9.41Z"/>
  <path class="cls-2" d="M337.23,12.58l1.64,6.09,1.04-4.26,10.98.75,6.76,8.57-1.12,2.99c-.24.65-2.21-1.52-2.61-2.13l-4.84-7.36c-19.06,10.68,3.72,31.98-1.37,33.9l-7.18,2.7.68,9.43c.16,2.2-7.15.84-8.28.28l-2.13,3.33-2.19,2.52c-.76.88-2.87-3.27-2.56-4.45l2.95-11.41,9.87,7.81-5.13-14.57,13.05,1.97-9.05-9.03c-6.36-1.39-8.67-2.13-15.21-4.88l-9.85,12.63c-2.4-10.15,15.18-13.59,7-29.61l-3.8-1.44,4.35-1.59.7,2.16,5.59,3.35,1.1-1.48c1.85-3.17,5.83-5.73,9.62-6.24ZM327.76,21.79l.72,9.05c.17,2.17,4.68,4.3,8.36,4.49,3.01-5.45.74-14.42-3.13-18.44l-4.62,3.62-1.33,1.28Z"/>
  <path class="cls-2" d="M426.94,372.69c-2.15,3.28-8.12,10.16-12.38,11.09l-8.15,1.77c-1.63.35-2.07,4.57-2.54,6.72l-4.01-3.45-7.43,4.26c-.15-2.86-1.88-7.17-3.15-9.11l-3.11-4.72c-.87-1.32,2.23-6.08,2.41-4.88l6.05,11.44c3.43-5.73,3.17-8.25,4.22-17.87l9.05,10.18-.84-18.23,11.68,11.03c-.43-7.18-1.92-10.54-4.82-16.33l14.64,2.81c-2.06,1.19-8.61,3.24-7.93,5.55.88,3.02,3.92,8.69,6.31,9.74Z"/>
  <path class="cls-3" d="M98.19,191.02l6.15-3.8,18.29-15.9c.21.57.84,2.23.77,2.04l6.37,2.68c1.6.67,1.14,7.07-.55,7.93l-19.63,10,8.33,8.31-8.1.74c-1.16.11-.28,3.46.66,4.02l6.27,3.81c1.48.9-2.82,4.36-4.11,5.47l1.38,1.41,11.04,6.38-4.05,7.17c-2.69,4.76,12.67.26,12.81.95l1.32,6.35,1.19,1.55-.93,1.13-1.29-1.73-2.77-4.23c-1.59-2.43-12.18,2.72-12.45-.52l-.65-7.95c-1.14,1.47-4.37,7.58-6.35,6.71l-10.04-4.39,11.01-9.59c-1.45-1.31-1.68-1.48-1.81-1.77l-4.08-8.72c-.65-1.39-2.99-5.07-2.18-6.32l4.25-6.59-10.85-5.14Z"/>
  <path class="cls-2" d="M197.82,155.07l-3.21,7.01-7.91-5.42-2.36,10.33c-.25,1.08-2.09,2.33-4.42,4.53l-8.29-10.71c-.24,2.15-.53,7.18-1.93,7.91l-6.68,3.51.06-7.53-1.71-.94,1.24-3.37,2.44,3.4c1.65-1.92,3.75-6.31,4.45-9.66.55-2.6-5.02-5.83-7.08-7.83l-2.39-4.87c-.4-.81-2.33,1.37-3.12,1.81.02-4.37,4.54-10.69,8.84-12.74l-.22,16.02c3.41-2.27,5.48-5.48,5.93-8.54l.88-6.09c.11-.76,2.2.82,2.72,1.36l8.1,8.24c3.15-6.12,1.1-10.29-.32-13.43l3.4-12.97c1.92.69,6.8,3,7.46,1.66l2.91-5.96.91,10.77-10.66-2.82c-.25,7.73,3.42,14.34,9.12,17.2l2.55-13.75c3.82,13.63-6.57,23.14-.74,32.87ZM193.27,147.86c.25-5.91,1.02-10.01-5.45-13.79l-.74,19.74c5.31.6,5.88,1.37,5.93.36l.26-6.31ZM179.51,163.59c3.24-3.23,4.87-11.02,3.69-15.02-.91-3.1-5.62-6.08-10.31-8.49-.6,10.08.81,16.01,6.62,23.51Z"/>
  <path class="cls-2" d="M156.92,143.23c.19,2.44-3.87,4.18-8.03,4.83-1.08,7.47-4.07,14.66-10.15,19.03l-7.3,5.25-8.81-1.02-1.84-4.89c2.89-5.61,6.77-12.25,9.86-16.25l5.78,11.26,9.39-14.46,5.64-4.59c.82-.67-1.73-2.78-2.79-2.66l-6.68.76,12.75-10.79-1.57,11.55c-.15,1.08,2.76,2.51,3.75,1.98Z"/>
  <path class="cls-2" d="M382.24,36.94l-15.27-.72-2.45,12.83,16.31-2.65,1.59-6.71,3.71.09c-.86,2.66-2.36,6.16-1.4,7.19l3.71,3.51c-4.55-.03-8.85,1.9-13.16,5.6l11.7,1.38c-.24,6.38-3.93,12.14-9.21,16.59l8.46,3.57,1.55.9c14.13,20.97-24.12,3.58-28.92,31.61-7.19,2.24-17.25-.49-21.75-4.67-1.46,2.22-3.89,5.64-4.16,5.62,4.68-20.5-6.55-25.25-2.54-36.78l2.76,9.84,1.82-5.5c.22-.65,2.04-2.02,2.5-1.54l4.89,5.02,2.38-2.85-4.29-10.24c8.91,2.69,8.86,13.56,6.07,20.32l-5.2-.58-2.11,1.59c-1.2,1.69-3.16,8.22-1.25,10.57,3.21,3.96,11.23,6.73,18.19,5.63l-6.1-17.09c5.07,3.35,11.46,4.67,16.01,2.35-.52-3.69-1.62-9.56-3.8-10.33l-9.85-3.47c2.23-2.31,3.81-5.22,2.83-6.62l-5.65-8.16c8.68-.64,5.91,7.9,15.97,18.03l7.82,7.88c2.14,2.16,10.35,1.23,12.5-.99,1.34-1.38.68-7.05.22-8.05l-1.17-.94-13.45-4.24c7.24-7.09,10.21-9.81,14.36-15.83l-23.03,4.01,12.53-13.24-17.83,4.38,4.65-13.35c-4.31-.01-8.49,0-8.07-1.06.32-.81.81-2.33,1.49-2.65l3.46-1.62,6.14-2.88c1.36-.64,1.02-4.77,1.61-6.65l4.53,8.43,10.87,2.45ZM343.81,84.6l1.9-3.33-1.9,3.33ZM338.33,88.84l1.73-3.79-1.73,3.79Z"/>
  <path class="cls-2" d="M357.85,141.53l.36,5.9-5.86-1.24c2.07-7.92,1.6-11.61-.65-19.86l19.12,10.28c-2.98-9.18-4.08-9.86-9.46-19.45l15.05,3.67-5.41-9.69c6.91.45,12.96,7.53,13.2,15.46l-11.28.96.79,11.03-17.02-3.76,1.18,6.69Z"/>
  <path class="cls-3" d="M149.03,588.9l2.14.23.83,10.4c-.08,3.97-5.36,6.67-8.93,6.94l4.08,3.9-8.27,3.5c-1.27.82-5.79,3.77-4.01,2.61-2.14-6.02-3.2-7.94-5.43-10.79l-8.23-10.48,1.27-3.27c.26-.67,3.18-1.41,3.23-.69s.31,3.93.71,4.55l3.18,4.91c.5.77,3.16-2.04,3.47-2.91l3.15-8.65,11.69,14.31,1.13-14.57Z"/>
  <path class="cls-2" d="M8.27,316.08c-.24-2.21.06-7.21,1.87-8.49.71,2.45,2.63,9.6,5.04,8.71l8.71-3.2,20.6,8.72-10.85,2.54-1.26.78-3.94,4.3c2.62.51,9.25,2.93,8.18,4.91l-3.72,6.91.48.44,15.06.79-9.04,12.76,16.08-2.61c-6.43,4.18-9.26,5.24-18.04,8.29l2.69-16.61-8.11-.88-2.02-.94c-.51.34-.98-2.89-.24-3.94l3.57-5.1c-9.13-1.84-16.62-4.9-24.3-10.43l-.76-6.96ZM32.1,322.37c-3.84-4.94-13.49-5.77-21.01-2.7,6.1,6.12,13.87,6.82,20,4.28l1-1.58Z"/>
  <path class="cls-2" d="M455.68,550.77l-2.59,11.31c-.24,1.17-2.33,4.39-3.51,4.23l-4.67-.63-9.43.8c-2.07,3.88-5.64,9.47-8.25,12.01,2.87-8.87,3.8-11.2,5.43-18.88l4.31-.58,1.34-1.14-1.93-9.52c11.85,5.32,14.82-2.8,19.3,2.39ZM440.36,559.09l-1.84,3.95,1.84-3.95Z"/>
  <path class="cls-2" d="M104.79,131.69c-.35-1.72,2.89-3.8,5.57-5.53l-2.64-7.15,12.48-11.75c4.94,2.36,12.68-5.24,15.37-.6,1.06,1.82,3.16,5.47,3.15,5.46l-16.26-1.28,8.97,6.27c.44.31.4.72.63,1.72l9.43.5c-7.2,2.65-11.82,4.75-12.63,14.53,5.83-1.6,7.54-2.69,13.63-7.77,7.47-.74-5.33,4.85-2.14,19.27-1.38-.54-3.41-1.92-3.35-3.17l.31-6.66-13.2,1.49c.43-6.1,3.09-13.21,6.24-16.58l-.83-1.88c-13.29-3.7-14.56,8.02-24.73,13.13Z"/>
  <path class="cls-4" d="M358.08,366c1.72,3.97,3.38,9.04,2.38,12.53l-13.32,2.82c-1.4.98-4.18,5.3-5.88,4.86l-5.33-1.35-1.23-2.51c-.49-.89-.93-4.11.05-3.87l6.59,1.59c2.45.59,3.25-6.04,2.22-8.74l10.25-7.52,3.13-1.58c.09.96.72,2.81,1.13,3.76Z"/>
  <path class="cls-2" d="M215.74,70.77l-4.5,4.26c2.14,5.94,2.31,12.44-.65,17.44l-1.45-19.44-4.45,2.55-1.24.44-3.44,16.95c-1.83-6.06.03-16.55-7.57-18.11-3.9-.8-8.26,7.97-8.98,13.07-.8,4.66-3.11,1.66-3.11-.68l-2.35-6.17c-.56-1.46-3.96-1.75-5.31-1.77l-.79,1.03-1.5,14.98-10.35-17.12-3.82,14.69c-1.37-2.38-5.66-7.03-8.44-8.42l7.53-7.14c2.01-2.03,8.36-4.89,10.41-5.74l11.06,3.56,6.78,6.36-2.15-10.64c21.33,1.34,25.65-8.21,28.25-5.89l6.09,5.8ZM202.46,72.86l-2.51-1.6c-.78-.5-.88,3.48-.86,4.48.01.92,2.66-.33,3.14-.6l.23-2.28ZM162.03,76.62l2.44-.87-2.44.87ZM166.46,76.13l-1.82,1.8,1.2,3.28c.23.64,1.6,1.67,1.97,1.06l2.38-3.89-.14-.41-3.6-1.84Z"/>
  <path class="cls-3" d="M56.62,591.78l-6.47.26c-3.48.41,2.18,11.66-2.33,13.68-1.76.79-7.59,2.32-7.41.36l.75-8.23,2.89-8.51c.6-1.75-3.47-6.27-5.22-6.75l-5.18-1.41c-1.03-.28-.97-3.11-.93-4.19,5.42.58,10.16,3.08,13.75,7.27,2.19.02,6.04-.09,7.06,1.3s3.2,4.62,3.09,6.22Z"/>
  <polygon class="cls-3" points="50.48 287.78 46.4 295.72 43.35 296.01 35.77 284.97 50.48 287.78"/>
  <path class="cls-3" d="M156.08,268.19l1.17-.19c2.01.44,5.58,1.43,5.72,3.4l.57,8.55,9.57.5c.32.86-.86,2.25-1.56,2.83l-2.42,2.02,8.28,2.82-6.54,7.99c-2.24.31-4.72,1.75-8.31,5.2l22.75-.32c.08,1.45-.79,7.98-2.73,9.49-2.26,1.77-7.11,3.03-12.98,4.65,4.71,2.69,13.03,1.27,16.69-3.43l5.44-5.71,5.96,5.59c1.55,1.46-2.64,6.46-4.74,6.8l-5.01.83c1.61,5.89,2.02,9.51,1.2,13.52l-3.44,2.32c-1.54,1.52-5.26,3.68-6.91,4.38l-17.01-14.22,5.14,20.76.29,2.86-12.07-2.69c-.04.99.05,4.3.81,4.47l5.49,1.24c.91.21,3.37.7,3.43,1.5l.13,3.28-6.07-.04-3.71-5.14-3.78,13-12.53,6.09-15.01-10.83.59,16.63c.08,2.25-2.01,6.47-3.55,8.14l-7.45-1.17-.14,5.05-5.45,2.65c-.99.48-3.45-1.11-4.57-1.68l-9.04,7.42-2.55-13.23-2.4,14.52-7.76-7.12c-1.56-1.43,1.65-7.13,3.37-8.36l11.07-7.96,2.9,6.59c.42.96,4.67-.36,4.4-.5-2.83-5.12-4.41-8.71-5.85-13.87l-9,9.57c-1.15,1.22-6.13.92-6.6.37l-1.07,1.05c-.3,5.32-2.32,11.98-6.25,17.76-5.1-4.65-3.86-10.11-3.38-19.21l-16.14,12.95-.12-13.83c-9.84,6.23-12.39,8.14-21.2,9.8l1.21,11.06-5.69-2.38c-.21-4.08-.62-8.92-2.61-9.04l-8.39-.48h-3.86s-2.45-.07-2.45-.07c-1.27-.04-3.09-1.85-2.99-3.13l.44-6.08-9.34-5.2c4.53-7.28,3.47-9.06.42-15.12,8.17-2.19,13.72-9.72,13.37-17.3-3.38-.87-7.82-1.61-8.25-3.51l-1.75-7.64-1.1-8.18c-.2-1.46,4.52-2.14,5.58-2.14l.76,6.96c7.68,5.53,15.17,8.59,24.3,10.43l-3.57,5.1c-.74,1.06-.27,4.28.24,3.94l2.91-1.24,3.72-6.91c1.06-1.97-5.57-4.4-8.18-4.91l3.94-4.3-1.29-1.2c-6.14,2.55-13.9,1.85-20-4.28,7.52-3.07,17.17-2.24,21.01,2.7l1.55,1.99,10.85-2.54-20.6-8.72-8.71,3.2c-2.41.89-4.33-6.26-5.04-8.71,2.58-1.82,7.93-2.95,12.05-3.68l9.55-1.7-5.96-9.92c6.14-2.28,11.36.17,15.07,5.2l2.96,4.01c.6.81,2.72-1.26,2.76-2.27l-.18-3.5,2.97,1.18c.72.26,1.41-4.09,2.16-4.18l10.28-1.23-1.33-21.15,9.73,9.06-1.12-13.42,4.45.77,7.05-2.9,6.59,1.98c-.13,5.37-1.07,13.34-3.23,18.78-3.19,8.05,1.12,13.45,10.86,17.44-1.07,2.66-3.75,7.77-5.53,10.31s-12.27,2.69-12.97-.02c.03-4.78,5.33-7.56,10.64-9.86-1.81-.68-8.68-.25-11.3,1.14s-4.63,9.63-2.01,11.03c2.08,1.12,8.11,4.34,8.06,4.31l.35,17.69c.09,4.62-6.69,10.64-15.59,9.57l5.48-14.72c-2.13,1.61-5.35,4.6-6.84,6.52-1.74,2.23-.9,11.99,1.95,11.66l14.07-1.62-.88,7.54c-.26,2.25,1.4,4.55,5.39,4.77-5.36-10.41-1-24.05,1.17-25.14l7.61-3.83-10.22-1.69,2.43-10.36c2.28-9.72,25.22,3.43,25.68-13.49-7.29,3.7-9.13,7.47-16.76,3.57l10.16-3.16c-8.46-9.33-21.63-9.6-18.95-22.33,5.53,5.66,9.85,9.61,17.52,14.57l-6.6-21.34,9.02,4.91c-4.21-9.72-1.28-18.98,10.99-23.34l.41,16.47,15.22-15.56c2.85,2.84,5.68,10.09,3.9,12.39l-7.25,9.33,7.96.62c-.06,8.37-3.29,13.34-10.04,21.29,9.09-2.22,15.49-7.25,24.76,1.7l-16.64,7.59c-.36-.33.32,2.3,1.27,2.5l4.37.91,1.82-1.33,8.63-4.92c2.16-1.23,2.87-8.35,1.94-10.84l-16.69-1.55c5.95-9.43-1.99-22.54,5.42-24.66,2.74-.79,9.92-1.1,10.11-.58l-1.07,13.1c6.73-5.59,4.36-10.88,4.29-17ZM107.77,283.92l-.04,1.31v1.36l.04,1.31.04-1.31v-1.36l-.04-1.31ZM150.22,287.7c.82.87-1.16-2.48-1.66-2l-3.33,3.25c-.34.33.29.07,4.99-1.26ZM63.69,300.51l-11.31-3.09.26,7.56,11.05-4.47ZM71.29,324.82c-7.53,2.16-12.79,3.73-16.47,2.57,1.54-6.37,5.05-9.35,9.56-12.45l-14.46-2.31c-2.13-.34-.11-7.33.76-8.28-1.6.03-6.89,3.03-6.23,4.73.66,1.7,3.01,4.88,4.52,6.1l5.21,4.24-1.9,12.45c8.5,1.82,16.33-.38,19-7.04ZM38.54,309.22c.13.13-2.95-2.96-3.33-3.33l-6.11,4.26c-.95.66,1.36,2.5,2.34,2.08l7.09-3ZM144.34,315.99l-1.25,1.23,9.64,6.65-19.81,5.3c7.98,3.68,23.17,2.04,24.35-9.24.4-3.81-10.6-5.79-12.93-3.93ZM121.04,332.34c3.77-3.85,5.65-10.72,1.56-15.29l-1.56,15.29ZM99.65,332.52l8.25,5.44c1.44.95,11.25-8.15,10.22-9.9l-4.45-7.55-3.92,14.4c-5.21-.87-7.64-5.5-9.96-11.35-2,1.38-6.36,4.46-5.25,5.25l5.11,3.7ZM127.88,330.14l-1.01,1.01,1.01,1.01,1.01-1.01-1.01-1.01ZM130.55,333.72l-1.07,2.33,1.07-2.33ZM151.58,342.65l-3.56-8.79c-.62,6.71-1.59,12.83-4.97,14.73l-2.2.86,1.21,2.81c.36.83,1.78.94,3.63,1.23l4.3-9.42,1.58-1.42ZM130.54,337.41l.21,10c-3.39-1.56-5.99-3.02-6.88-4.67l-3.84-7.16c-1.02,5.98-.61,16.68-4.79,18.83-6.37,3.29-11.07-5.66-11.99-11.59-2.51,3.87-4.99,8.66-6.98,10.51l-7.74,7.17,14.83-6.76c3.12,4.46,8.8,8.08,12.42,6.74,3.03-1.12,4.86-7.01,5.94-12.57l9.12,4.19c2.24-3.77,2.98-11.34,1.87-16.36l-2.16,1.66ZM141.9,346.85l-.72-10.73c-1.47,3.55-2.01,8.49-1.93,12.23l2.65-1.49ZM33.4,341.71l-1.37,1.73,8.11.88-2.69,16.61c8.79-3.04,11.61-4.11,18.04-8.29l-16.08,2.61,9.04-12.76-15.06-.79ZM153.96,344.7l-2.48.82c-.96.32,1.08-.36,2.48-.82ZM36.18,365.35l-15.41,2.85,12.25-13.21-15.98,1.34c3.38-5.2,7.11-6.14,13.93-9.05-7.57-2.9-15.95,2.36-17.52,11.42l8.4.46-4.59,15.53,12.58-5.8.77,14.36,5.58-17.89ZM81.46,375.04l-1.52-11.47-7.33,3.75c1.59.71,4.6,1.5,5.05,2.98l1.96,6.45,1.83-1.71ZM108.79,376.19c5.51-2.92,4.97-8.45,2.71-12l-2.71,12ZM105.76,376.39l-1.48,1.01,1.48,1.01,1.01-1.01-1.01-1.01Z"/>
  <path class="cls-3" d="M188.77,300.1c-.61-1.22-2.36-3.53-3.72-3.55-1.7-.03-5.28.94-7.33,1.61l-5.46,1.79c-1.03.34-1.3-3.18-1.4-3.84,1.94-.27,6.73-.22,7.24-2.06l1.41-6.05c4.17-.23,11.18,1.33,15.88,4.29-.41,2.53-4.19,7.27-6.62,7.82Z"/>
  <path class="cls-3" d="M50.48,287.78l-1.04-3.95c-.28-1.07-3.69-1.9-4.95-1.87l-12.23.18,5.74-12.41,8.18,1.98c1.54.37,4.53,4.88,5.2,3.5l2.87-7.88c.44-.21,1.98.42,2.45.59l1.8,20.63-8.03-.76Z"/>
  <path class="cls-4" d="M326.12,373.63l3.27,10.38-2.03,3.11c-1.73,2.65-9.13-5.16-21.2.21.71-1.26,2.15-4.51,1.14-5.46l-4.56-3.78,4.48-5.85c6.91,7.15,7.5,1.28,18.89,1.39Z"/>
  <path class="cls-4" d="M316.78,147.73l.38,3.37.42,8.43-1.09,9.6c-5.78-.36-11.53-1.65-15.21-4.88l9.83-16.17,5.66-.35Z"/>
  <path class="cls-2" d="M50.48,287.78l-14.71-2.82,7.58,11.04,3.05-.29.18,3.5c-.04,1.01-2.16,3.08-2.76,2.27l-2.96-4.01c-3.71-5.02-8.93-7.48-15.07-5.2l-.93-3.11c-.08-.28,8.27-.6,7.84-3.76l-.45-3.27,12.23-.18c1.26-.02,4.67.8,4.95,1.87l1.04,3.95Z"/>
  <path class="cls-2" d="M46.4,295.72l4.08-7.94,8.03.76-1.8-20.63,12.39-1.93,1.12,13.42-9.73-9.06,1.33,21.15-10.28,1.23c-.75.09-1.45,4.43-2.16,4.18l-2.97-1.18Z"/>
  <path class="cls-3" d="M382.24,36.94c.07.91.24,2.49.18,2.75l-1.59,6.71-16.31,2.65,2.45-12.83,15.27.72Z"/>
  <path class="cls-2" d="M129.55,92.06c4.82.7,12.16-4.23,14.97-8.16-.53.9-1.62,4.87-.76,6.11l5.25,7.62c.34,1.01.65,2.27,1.06,2.25l10.68-.58c-4.45,2.92-7.97,8.08-7.74,11.24l14.04-1.53c-5.3,3.88-8.04,6.89-10.41,14.46l19.52-7.08,1.21,7.58,1.18,1.54-.92,1.14-1.34-1.7-2.73-4.03c-.7-1.03-4.04.78-5.37,1.36l-13.29,5.78,2.18-14.11-7.52-1.92-.56-11.98-1.22-2.04-8.02-2.79,3.51,10.78-13.87-8.26c.11,5.83-2.15,6.1-3.33,1.5l3.46-7.19Z"/>
  <path class="cls-4" d="M294.03,175.77l-.89-2.57,13.63,1.19c1.22,4.98-.49,13.55-4.39,14.4-5.57-1.45-8.06-8.77-8.35-13.01Z"/>
  <path class="cls-2" d="M307.37,575.44c7.62-5.58,16.12-9.67,25.74-10.85l4.64-7.68-6.35,17.51c-4.81-2.9-7.8-5.44-9.56-4.35l-8,4.94-4.53,2.8c-.61.38-1.7-1.52-1.95-2.36Z"/>
  <path class="cls-3" d="M112.53,420.22c-.09-3.12,4.97-7.38,8.32-9.14,1.84-.97,6.16.17,7.61,1.66s1.14,6.94-.33,8.36l-5.87,5.71-9.73-6.6ZM119.84,416.6l-1.01,1.01,1.01,1.01,1.01-1.01-1.01-1.01Z"/>
  <path class="cls-3" d="M343.57,371.34c1.03,2.7.23,9.33-2.22,8.74l-6.59-1.59c-.99-.24-.55,2.98-.05,3.87l1.23,2.51-6.54-.85-3.27-10.38c5.38.05,12.09-1.1,17.44-2.29Z"/>
  <path class="cls-2" d="M314.18,4.53l-1.2,7.65-3.65-4.53c-.8-.99-4.76-2.17-4.93-.93l-1.8,12.71-9.06,15.02c-.57.95-4.28-1.89-3.62-2.78l2.89-3.93,9.57-13.03-7.18-8.14,7.24-6.57,11.74,4.53Z"/>
  <path class="cls-3" d="M408.46,440.43l.66,4.43c.11.74,2.99-.42,3.13-1.16l.43-3.09c1.26-.88,4.32-1.99,5.05-.68l2.76,4.99-11.68,6.16c-2.63-5.28-4.35-9.77-4.18-13.87l3.67.73c.55.11.07,1.93.15,2.49Z"/>
  <path class="cls-3" d="M94.38,191.12l7.25,9.29-8.72,3.46,1.96,2.35-3.17.97-.43-1.47-5.18-.09c1.03-5.06,4.37-11.97,8.28-14.52Z"/>
  <path class="cls-3" d="M72.68,590.48c-3.7,5.9-8.37,9.91-14.9,10.59l-1.28-7.3c3.26,1.68,8.8,1.49,11.03-.64.36-.34-.66-4.83-1.12-5.01-.69-.26,2.44.91,3.28,1.23l3.01,1.12Z"/>
  <path class="cls-2" d="M116.17,167.19c-.99-.43-3.84-2.11-3.25-3.22l2.44-4.65c.73-1.39,2.52-5.64,1.21-6.51l-4.85-3.22c-3-1.99-5.03-8.63-5.78-12.31l4.59,6.03,2.39,4.83c.66,1.34,3.99.1,7.36-.96l-4.11,20.01Z"/>
  <path class="cls-2" d="M218.43,64.28l12.8-13.99c.98,8.51-5.24,12.46-12.8,13.99Z"/>
  <path class="cls-3" d="M456.42,494.07l3.74,4.52c.87,1.04-3.03,3.02-3.88,3.08l-7.42-8.36,7.56.77Z"/>
  <path class="cls-2" d="M463.17,517.68l-10.62-5.32,5.01-.56c1.12-.13,3.24-1.47,3.48-2.6l2.12,8.49Z"/>
  <path class="cls-3" d="M56.51,472.38l-1.27-5.11,14.83-5.14-5.43-6.34-1.98-1.76c.98-.23,2.37-.56,1.21-.29l1.74,1.02,10.56,6.28-16.11,7.89,9.15,3.65-12.69-.21Z"/>
  <path class="cls-2" d="M446.43,304.05c-.02,1.03-.8,3.86-1.73,3.89l-12.88-.02c4.12-2.94,9.48-4.03,14.62-3.87Z"/>
  <path class="cls-2" d="M54.25,267.32l-2.87,7.88c-.66,1.38-3.65-3.13-5.2-3.5l8.06-4.38Z"/>
  <path class="cls-2" d="M335.64,184.94l-3.84-5.28c0-.51.18-3.68,1.13-3.45l7.16,1.75-4.45,6.98Z"/>
  <path class="cls-3" d="M181.4,70.86l2.15,10.64-6.78-6.36,1.5-3.99c.33-.62,2.43-.34,3.13-.3Z"/>
  <polygon class="cls-2" points="323.43 2.46 326.17 2.51 327.74 14.41 324.4 14.52 323.43 2.46"/>
  <path class="cls-2" d="M341.67,231.21l2.42,3.38,1.37,1.52-.96,1.12-1.48-1.75c-.61-.32-2.25-1.15-2.76-.55l-2.22,2.74c-.17-1.03-.32-3.64.53-4.24l3.09-2.21Z"/>
  <polygon class="cls-2" points="335.52 241.25 338.64 241.29 339.63 249.96 335.52 241.25"/>
  <path class="cls-2" d="M452.23,299.79l6.26-6.06c.15,1.59.65,6.03-.95,6.03l-5.31.03Z"/>
  <path class="cls-2" d="M358.86,159.04l.1,4.89-4.77-3.42-1.3-1.28-2.71,8.99c-1.2.14-4.35.17-5.14-.96l-4.15-5.88c-.7-.99-2.45,1.64-2.8,2.82l-1.43,4.85c-.62,2.09-4.63-5.48-5.19-8.1,2.33-.29,3.91-.05,4.61-1l3.78-5.12,9.08,12.67.12-17.23,5.97,7.28.19,1.61,3.63-.12Z"/>
  <path class="cls-2" d="M328.04,175.5l-2.29-10.26,2.29,10.26Z"/>
  <path class="cls-2" d="M412.69,440.62l-.43,3.09c-.14.74-3.02,1.9-3.13,1.16l-.66-4.43,4.23.19Z"/>
  <path class="cls-2" d="M80.59,263.85l-7.05,2.9,3.27-7.14c.13-.36,2.3-.07,2.61.56l1.17,3.68Z"/>
  <path class="cls-2" d="M336.1,190.89c-1.01-.09-1.68.11-1.8-.76l-.49-3.7,2.28,4.46Z"/>
  <path class="cls-2" d="M329.85,179.85c-.87.77-1.62,1.23-1.64.58l-.1-3.21,1.74,2.63Z"/>
  <path class="cls-3" d="M80.71,246.27l1.74-2.86c.62.24,3.3,1.17,2.7,1.38l-4.43,1.48Z"/>
  <path class="cls-2" d="M440.48,352.67l.17-2.92-.17,2.92Z"/>
  <path class="cls-2" d="M438.4,346.47l-.28-2.6.28,2.6Z"/>
  <path class="cls-2" d="M440.22,331.96l2.75-1.96-2.75,1.96Z"/>
  <path class="cls-2" d="M394.26,53.1l-1.99-2.58,1.99,2.58Z"/>
  <path class="cls-2" d="M406.08,243.71l2.31-2.47-2.31,2.47Z"/>
  <path class="cls-2" d="M11.9,384.38l2.45.07-2.45-.07Z"/>
  <path class="cls-2" d="M345.58,227.11l2.74.08-2.74-.08Z"/>
  <path class="cls-2" d="M343.87,420.79c-.34-.48-.75-2.05.66-2.08l-.66,2.08Z"/>
  <path class="cls-4" d="M295.7,169.18c.4-.63,1.5-1.75,2.09-2.21l-2.09,2.21Z"/>
  <path class="cls-2" d="M325.96,163.37l-2.59-2.04c.81.33,2.02,1.49,2.59,2.04Z"/>
  <path class="cls-2" d="M404.78,141.68l-2.32.16c.92-1.33,2.3-3.34,2.32-.16Z"/>
  <path class="cls-3" d="M76.64,258.12l-2.44-2.62,2.44,2.62Z"/>
  <path class="cls-4" d="M182.85,406.4c.12-.61.06-2.24.56-2.66l2.62-2.02-1.01,3.61c-.18.63-2.18,1.75-2.17,1.06Z"/>
  <path class="cls-4" d="M213.12,396.57c1.79,7.43,7.54,17.56,7.97,25.98,1.32,25.5.2,48.72,0,75.18-7.1-.61-11.28-5.9-14.5-11.98l-11.75-22.19-14.53-23.97-9.38-11.64,3.6-1.77c.57-.42,1.94-2.63,2.34-3.2.6-.85,2.67,1.05,3.17,1.61l1.73-1.48c-.43-1.16-3.14-4.82-4.51-3.95l-5.09,3.24c-.6.38-2.93-4-3.34-4.56-.3-.4-.93-.45-1.02,0-.11.53-.63,2.83-.75,3.01-2.11-1.45-5.79-4.32-7.21-6.33-1.42-2.01.89-7.23.91-9.64,1.77-.36,4.76.11,5.42,1.39l2.07,4.01c1.06-2.14,5.31-7.99,7.37-7.07l7.23,3.2.63,5.96,3.4-2.56c.76-.58,1.43-.23,5.29-.09-2-2.93-4.88-6.78-6.15-7.98l9.37-9.43,7.56,5.6,10.17-1.32ZM196.24,400.53l-.04,1.31v1.36l.04,1.31.04-1.31v-1.36l-.04-1.31ZM202.6,409.52l-1.31.04,1.31.04h1.36l1.31-.04-1.31-.04h-1.36ZM180.78,425.79l1.67,10.09,7.09-7.36c1.08-1.12,3.34-3.66,4.69-3.34l5.23,1.23c-2.44-4.33-2.64-9.73-.93-15.88-10.21,1.41-4.16,7.28-12.5,17.14-.72.85-3.61-3.16-3.61-3.46l-1.64,1.57Z"/>
  <path class="cls-4" d="M283.06,264.49l.55,3.84-4.78,6.7-.78,25.96,8.67,1.63c.17.98.64,2.92.06,4.08l-3.52,7.12,9.03.08,2.59-1.18-5.66-7.09c3.35-.81,7.99-1.81,10.34-1.58l10.36,1.02c-.82,1.17-.96,6.97.79,7l6.87.14-.11,5.61-7.36,2.08c-1.79.49-2.42,5.36-3.04,8.74l-5.68-8.26-4.6,12.77-4.63-11.32-6.36,3.18,5.51,2.46c1.69.76,1.86,5.06,1.95,6.71-3.69,2.64-7.5,8.04-8.17,11.8l-4.08,22.7-16.28,3.71-1.5-9.74c-3.81,3.56-7.43,5.53-10.55,4.26l8.61-56.76,5.27-30.66,4.29-2.77c.76-.49-2.54-3.9-2.53-4.8.32-4.77,9.67-11.13,14.73-7.41ZM293.29,315.52l3.59,3.51c1.16,1.13,3.86-3.01,5.21-6.17l-7,.58-1.8,2.08Z"/>
  <path class="cls-4" d="M255.42,95.13l2.18,1.93,1.78,8.32,18.33-2.35,2.11,5.24-14.72,13.94c6.3,6.2,13.64,1.43,13.45-2.71l-.24-5.06c-.05-.96,3-1.51,3.65-1.65l3.67.05,2.12-.05.62,10.23.9,14.44,2.81,23.93c-2.99,4.38-9.19,10.14-13.55,13.59-9.31-4.98-.67-17.12-5.01-25.28l-4.23-7.97,8.94-3.02-11.76-11.95-9.35,3.2,4.08-6.78-4.61,1.32c-.9.26-1.79-4.07-.9-4.36l3.87-1.26,3.58-1.16c.75-.24.06-2.42-.72-2.47l-4.48-.29-3.63.62c-.85.15-2.17-1.48-3.36-2.17.9-3.23,1.31-9.02-.22-11.57l-2.58-4.31c-.43-.72,1.06-2.19,1.72-2.84l5.56.44Z"/>
  <path class="cls-2" d="M325.69,529.78l-3.87-1.5-5.62-9.67-10.34,2.77-1.02-14.85-13.02,13.23,7.59-.12c1.36-.02,2.29,3.43,1.91,4.72l-1.23,4.25c-.33,1.14,4,.45,5.49.01,4.37-1.29,8.43-.36,10.52,2.69l-2.91,9.43-16.73,7.46,1.72,5.98c.33,1.14-4.03.95-4.28-.2l-.87-4.07-6.54,3.39-3.86-10.56c-.41-1.02-1.01-5.06.05-5.08l4.6-.08,1.79,1.65c.81.5,2.73-1.06,2.97-1.98l.53-1.94,5.85-10.73-10.03-4.95,4.06-6.37c1.11-1.33,2.49-4.43,2.88-6.12l2.27-9.8-9.82-2.9,3.33-10,9.95,4.18-8.67,4.03,13.17,2.7-8.57,11.59,14.51-4.64-2.38,13.45,12.61-4.95.39,11.12c7.4-1.36,12.22-4.36,15.17-10.53l6.19,4.66c-9.95,3.64-14.63,7.02-17.78,13.7Z"/>
  <path class="cls-3" d="M221.34,254.18l-.36,12.42-4.71-.85c-3.54-.41-3.04,10.45-4,10.2-1.14-.29-4.38-1.37-4.84-2.45l-5.04-11.71-4.85,5.81c-9.51-2.81-20.33-.96-26.86,6.31l-10.22-26.36c4.46,3.05,7.34,4.16,12.45,3.16l1.12,8.11,6.04-4.77c.76-.6,2.85,3.68,3.32,4.51,4.18-1.69,10.11-2.33,15.21-4.18l7.25-2.64,4.52,8.63,3.49-10.61,7.5,4.41ZM194.29,257.06l-.48,7.18.48-7.18ZM190.21,261.78l-1.01,1.01,1.01,1.01,1.01-1.01-1.01-1.01Z"/>
  <path class="cls-2" d="M317.16,151.1l-.38-3.37,3.2-7.96-7.13-1.24c-1.77-.31-.9-5.29.07-8.85l-4.76-.21-10.45-.75.38-7.98-9.72,2.28-.62-10.23c-.13-2.17,3.49-5.5,6.35-6.98l-4.79,11.84,16.33-5.45c-2.5,6.02-3.78,13.28-1.21,14.73l13.76-6.08-4.15,14.75,8.55-2.11c1.04-.26,2.85,2.36,3.73,3.68l-5.09,8.77,1.77,1.16,9.71-12.64,4.46,11.81,2.54-12.93,11.27,10.1-10.84-1.34c-.37,2.9-1.59,8.18-2.74,7.25l-4.74-3.81c-1.3-1.04-4.47,1.51-4.51,3.16l-.18,6.63-10.79-4.22Z"/>
  <path class="cls-3" d="M217.69,216.44l-.26,3.21-1.65,11.08-5.77-.63c-.6-.07-.25-2.32-.67-2.75l4.38-.74c1.48-.21.94-4.64.46-6.07l-2.31-6.84c1.53.4,4.51,1.89,5.81,2.73Z"/>
  <path class="cls-3" d="M209.34,227.35c-7.78,1.03-11.83,10.78-14.66,6.68l-1.17-4.25c.47.09,5.21.49,5.87-.97l3.64-7.97,6.32,6.5Z"/>
  <path class="cls-3" d="M191.11,181.23c3.93-.16,8.24,6.74,6.95,9.98-1.57,3.93-2.85,7.61-2.42,11.93-.32-1.02-5.45.39-4.99-.58l2.97-6.24c.36-.38-4.2-1.02-4.83-.09l-2.19,3.26-1.01,1.49-6.49,6.67c-4.14-1.56-4.98-1.98-5.35-.96-.43,1.19-.97,5.6.09,5.23l6.99-2.41-1.55,10.46,9.65-3.13,4.57,12.93-6.79-7.29-8.04,1.21c-1.53.23-3.61-3.65-4.78-4.65l-5.59-4.76c-1.32-1.12,1.1-6.27,2.05-7.8,7.08-11.41-4.51-18.58,8.42-26.97,2.1,2.75,4.89,5.83,6.7,5.19l5.63-3.5ZM185.09,198.24l2.37-11.65-12.2,4.92c-1.58.64-.09,7.52,1.68,7.6l6.88.32,1.26-1.2Z"/>
  <path class="cls-3" d="M211.88,213.71l-8.56-1.22-6.63,3.83c-1.4-3.62-2.4-9.94-1.04-13.18l2.69,8.62,2.19-6.98,5.54,3.96c.74.53,3.18-2.99,3.8-3.46l2.02,8.43Z"/>
  <path class="cls-3" d="M182.85,406.4c-.01.68,1.99-.43,2.17-1.06l1.01-3.61c1.27,1.2,4.15,5.05,6.15,7.98-3.86-.14-4.53-.48-5.29.09l-3.4,2.56-.63-5.96Z"/>
  <path class="cls-3" d="M195.39,392.3l-9.37,9.43-2.62,2.02c-.5.42-.44,2.05-.56,2.66l-7.23-3.2c-2.07-.92-6.32,4.93-7.37,7.07l-2.07-4.01c-.66-1.28-3.66-1.74-5.42-1.39l.1-10.38c2.83-3.89,8.81-7.23,13.06-5.55l8.26,3.25c5.14,2.02,5.16-11.05,8.15-13.91,1.4-1.34,7.41,2.12,7.03,4.05l-1.97,9.96Z"/>
  <path class="cls-4" d="M250.19,311.84l-14.77,1.85,5.25,9.48-5.06,9.89-3.88-.83-.09-25.89,11.45-3.51c-1.14-1.14-5.37-6.43-3.98-7.64l5.76-5.05-.63-5.21c-.17-1.39,3.19-2.54,5.11-3.3l4.98-8-4.15,38.21Z"/>
  <path class="cls-3" d="M306.01,342.09l-5.14,10.87-5.87-6.89.36-3.62,7.93-5.36-.79,4.58c-.09.54-.45,2.76-.02,2.5l3.53-2.08Z"/>
  <path class="cls-3" d="M317.5,317.81c1.31,2.05,2.94,5.64,2.88,7.82l-7.89,1.16c-3.85,5.46-1.33,15.91,3.63,17.51l4.04-10.73,3.94,14.78-7.84,11.47-2.92.74-5.4-9.16c1.98-3.39,3.29-5.67,3.19-7.41-.08-1.39-3.92-2.61-5.12-1.9,2.17-3.26.64-8.75-2.56-12.43l-7.32,5.16-2.85-.66c-.09-1.65-.25-5.96-1.95-6.71l-5.51-2.46,6.36-3.18,4.63,11.32,4.6-12.77,5.68,8.26c.62-3.38,1.25-8.24,3.04-8.74l7.36-2.08Z"/>
  <path class="cls-2" d="M250.71,101.85c1.53,2.56,1.11,8.35.22,11.57v16.57s-5.09-1.33-5.09-1.33c-1.6-.75-4.33-1.44-5.74-.66-1.13.62-3.79,3.24-5.08,3.32-3.86.24-10.49-1.63-14.73-3.26-1.61-.62-3.87-1.5-4.57-.44l-3.61,5.41c1.35,4.61-.6-1.75-1.15-3.59l5.15-13.91,11.9,12.41c-.56-7.43-.71-12.89.73-17.47,7.65,8.21,9.39,12.94,19.58,14.89-2.32-9.2-5.22-12.66-11.51-21.44l12.22,2.66,1.68-4.74Z"/>
  <path class="cls-4" d="M241.67,193.83l3.86,6.58c6.54.07,10.79,1.01,15.47,3.33l1.11,3.93c-1.35.82-4.13,6.06-5.61,5.04l-5.96-4.07-5.91-4.04c-.97-.67-4.14,2.54-4.72,3.27l2.54,13.98-11.04-1.09-.86-14.77c-.36-6.09-.73-11.98.1-16.61l11.03,4.44Z"/>
  <path class="cls-4" d="M250.94,129.99l14.71.61c4.13.17,5.46,9.18,1.5,12.5l3.91,6.04c-4.73,4.77-4.67,13.88-5.35,21.11l-6.24-7.83c-.38-13.13,6.29-25.76,1.39-23.2-1.14.59-4.13,2.47-5.32,2.04l-10.56-4.46.85-8.14,5.1,1.33Z"/>
  <path class="cls-4" d="M210.94,171.42c2.04,2.35,6.02,4.43,10.36,6.76,3.61,1.94,2.98,12.88-2.92,15.25-9.89-3.82-18.1-8.76-19.64-17.9l12.2-4.12Z"/>
  <path class="cls-3" d="M242.45,221.86c1.43,7.87,1.23,18.63,1.23,27.14l-12.19,1.01-.08-29.24,11.04,1.09Z"/>
  <path class="cls-4" d="M306.01,342.09l-3.53,2.08c-.43.25-.07-1.97.02-2.5l.79-4.58-7.93,5.36.76-7.63,7.32-5.16c3.2,3.68,4.73,9.17,2.56,12.43Z"/>
  <path class="cls-4" d="M313.35,360.56l-8.06.4-15.79,5.06,5.5-19.95,5.87,6.89,5.14-10.87c1.2-.71,5.04.51,5.12,1.9.11,1.74-1.2,4.01-3.19,7.41l5.4,9.16Z"/>
  <path class="cls-3" d="M250.19,311.84l-4.97,30.43c-.69.65-6.32-.02-5.6-1.26l3.63-6.25-7.63-1.7,5.06-9.89-5.25-9.48,14.77-1.85Z"/>
  <path class="cls-3" d="M321.82,528.28l-.37,2.72-5.35.33c-2.1-3.06-6.15-3.98-10.52-2.69-1.49.44-5.82,1.13-5.49-.01l1.23-4.25c.37-1.29-.56-4.74-1.91-4.72l-7.59.12,13.02-13.23,1.02,14.85,10.34-2.77,5.62,9.67Z"/>
  <path class="cls-3" d="M210.16,523.13c.7,1.57,2.23,4.85,3.45,6.35l-5.54,10.64-10.12-3.37-5.94,6.55c-1.29,1.43-6.27-2.68-7.8-3.83-2.53.32-8.21,1.45-8.29-.82l-.34-10.41,3.18,8.96,6.25-6.78,5,11.22,4.9-13.32,12.3,8.81-1.7-14.31,4.65.31Z"/>
  <path class="cls-3" d="M273.51,149.7l-2.45-.55-3.91-6.04c3.96-3.32,2.62-12.33-1.5-12.5l-14.71-.61v-16.57c1.18.68,2.5,2.31,3.35,2.17l3.63-.62,4.48.29c.79.05,1.47,2.22.72,2.47l-3.58,1.16-3.87,1.26c-.89.29,0,4.61.9,4.36l4.61-1.32-4.08,6.78,9.35-3.2,11.76,11.95-8.94,3.02,4.23,7.97Z"/>
  <path class="cls-4" d="M235.02,131.32c-1.86,9.67-10.32,19.4-11.94,19.11s-5.07-1.92-6.12-3.11l3.33-19.27c4.24,1.64,10.87,3.5,14.73,3.26Z"/>
  <path class="cls-3" d="M221.43,237.59l.03,6.11-8.85-2.16c-.83,2.24-1.77,5.58-2.86,5.6l-6.21.16-8.46.69-4.78-1.17c-1.4-.34-4.17-3.65-4.16-3.93l4.72-.49c.91-.09,1.73-1.08,3.9-3.11l5.51,6.08,1.48-9.76,6.21,8.45,3.69-6.32,9.77-.15Z"/>
  <path class="cls-3" d="M161.26,376.49c-1.38.15-4.51-1.49-6.16-2.34,1.46-3.37,3.48-7.07,3.6-9.46l8.8,1.37c4.59.51,8.42,2.75,10.15,8.7l-16.39,1.72Z"/>
  <path class="cls-3" d="M278.11,548.95l-4.3-2.17-2.11,21.97-7.3-11.17-5.66,1.68-.53-11.47c.57-.51,1.89-2.26,2.41-1.66l2.82,3.24,2.51,2.87c.36.41.93.24.93-.32l.04-3.26-1.16-1.65,2.5-1.73,1.09,1.35,7.48-3.25,1.26,5.57Z"/>
  <path class="cls-4" d="M240.57,151.12l10.32-4.43-.36,4.94c-.05.65,1.7,1.73,2.23,2.08l.89,15.47c-1.84.2-5.54.14-5.72-1.46l-.85-7.4"/>
  <polygon class="cls-4" points="308.15 129.48 307.13 141.27 298.45 153.09 297.71 128.72 308.15 129.48"/>
  <path class="cls-3" d="M255.54,141.26l-2.79,12.44c-.53-.35-2.28-1.43-2.23-2.08l.36-4.94-10.32,4.43c-.08-.46-.39-2.25-1.6-2.87l6.02-11.45,10.56,4.46Z"/>
  <path class="cls-2" d="M352.52,543.04l-8.6-5.62-.51-3.91,2.12-5.2,1.1,10.41,14.81-11.05,5.67,14.71,4.09-11.67c.29-.82,3.43-1.61,3.43-.79l-.04,3.88,1,.59,1.46,1.39.99.95-1.72,2.4-1.27-1.51-1.11-1.34-.46-.79-7.3,11.5-7.53-12.02-6.13,8.05Z"/>
  <path class="cls-2" d="M265.71,170.26l-1.97,20.96c-4.92-10.82-4-19.18-4.27-28.79l6.24,7.83Z"/>
  <path class="cls-3" d="M123.04,573.41c.44,1.89.3,5.95,1.88,6.53l6.38,2.37c-4.4,6.4-12.62,5.93-19.24,1.35l6.4-6.59,4.58-3.67Z"/>
  <path class="cls-3" d="M316.78,147.73l-5.66.35c-1.94-1.31-4.1-4.78-3.99-6.81l1.02-11.79,4.76.21c-.97,3.56-1.83,8.54-.07,8.85l7.13,1.24-3.2,7.96Z"/>
  <path class="cls-2" d="M237.09,177.21l1.4,9.11c.21,1.19,2.65,3.59,3.83,3.41l3.22-.84-3.88,4.95-11.03-4.44,2.24-11.99,4.22-.19Z"/>
  <path class="cls-3" d="M170.92,427.94l-3.88-7.09c.12-.18.64-2.49.75-3.01.09-.46.72-.41,1.02,0,.41.56,2.74,4.94,3.34,4.56l5.09-3.24c1.38-.87,4.08,2.79,4.51,3.95l.67,1.13c0,.3,2.89,4.32,3.61,3.46,8.34-9.86,2.29-15.73,12.5-17.14-1.72,6.15-1.51,11.55.93,15.88l-5.23-1.23c-1.35-.32-3.61,2.22-4.69,3.34l-7.09,7.36-1.67-10.09-.76-1.22c-.5-.56-2.56-2.46-3.17-1.61-.4.57-1.77,2.78-2.34,3.2l-3.6,1.77Z"/>
  <path class="cls-3" d="M221.08,312.24l.12-20.53-.12,20.53Z"/>
  <polygon class="cls-3" points="257.19 498.17 256.47 494.97 268.19 492.25 265.15 500.95 257.19 498.17"/>
  <path class="cls-3" d="M221.19,288.15l-.18-16.64.18,16.64Z"/>
  <polygon class="cls-3" points="258.99 535.22 258.47 531.25 270.04 531.9 258.99 535.22"/>
  <path class="cls-3" d="M163.17,590.41l2.27.22-.64,7.85c-.18,2.11-6.06,1.48-7.74.11l-1.78-1.45c.36-.26,1.6-1.17,1.31-.95l1.54,1.47c.88.06,4.53-.09,4.67-1.4l.37-5.83Z"/>
  <path class="cls-3" d="M164.95,456.92l2.53,1.25-3.53,12.06-3.11-4.2-.85-1.17-6.23-2.26c-1.6-.58,1.08-5.22,2.18-5.64l5.19,6.84,1.8,1.41,2.04-8.29Z"/>
  <path class="cls-3" d="M220.91,324.33c-.3-.62-.8-1.43-.75-1.9l.88-2.67-.13,4.58Z"/>
  <path class="cls-3" d="M193.54,520.04l5.56-6.99c-.36,2.87-1.13,6.84-1.94,9.09s-6.62-1.43-9-2.28c-7.01-2.5-27.51,1.54-18.72-5.27l5.24-4.06-14.06-2.08,2.16-7.86c.38-1.37-5.12-3.19-5.47-4.7-.95-4.05,8.68-8.41,13.32-5.28l-12.52,4.52,12.21,4.2-7.49,7.06,15.59.7,1.84,8.85,8.03-4.27c1.45-.77,3.33,4.21,5.25,8.37Z"/>
  <path class="cls-3" d="M53.79,553.43c.43-3.31,3.01-9.8,4.42-12.32-3.86-2.38-5.94-3.73-11.95-9.02l-11.58,7.67.75-4.07c.17-.95-1.02-1.75-3.49-3.85l18.72-1.77c3.92-5.66,9.46-7.44,14.07-3.89l-9.24,3.02c-1.74.57-2.7,4.55-2.53,6.88l12.52,2.02-11.28,13.91,20.07,2.85c-6.61,4.17-14.65,1.96-20.48-1.43Z"/>
  <path class="cls-3" d="M111.47,489.7l-1.57-4.99c-.75-2.38-14.75.96-14.37-3.95l.71-9.09c-2.17-1.67-5.85-5.29-6.02-7.61-.17-2.32,3.57-6.61,5.77-7.32l5.64-1.8c1.16-.37,1.4,4.64.25,5.09l-10.18,3.99,14.82,5.88-3.98,4.63-3.11,3.62c-.97,1.12,3.59,3.02,5.06,2.92l7.18-.48c1.84-.12,1.4,6.3,1.17,7.13l.97,1.19c.73.97,3,3.95,3.9,3.13l4.44-4.04,4.19-3.82c1.22-1.12,3.22,4.15,3.25,5.44l1.04.78c2,.49,7.81-.59,8.27-2.99l2.49-13.22c.08-3.53.77-3.31,1.27-.23l1.15,7.15c.25,1.58,4.72,3.42,5.56,2.06l3.7-5.97c.61-.99,2.05-6.24,2.65-5.27l3.12,5.11-9.17,10.81c-3.56.36-8.93,1.51-11.33,3.23l-4.81,3.46c-1.19.85-3.97-1.24-4.89-2.37l-1.13-1.81-9.38,4.2c-1.98.89-5.34-2.34-6.32-3.95l-.32-.94Z"/>
  <path class="cls-3" d="M145.27,458.11l8.16,9.05c-.38.48-4.43,2.44-5.14,1.57l-4.49-5.54c-1.25,1.71-8.52,5.53-9.36,2.96l-2.05-6.28c-.52-1.61-5.64-1.29-7.86-1.13-1.65.12-4.7-3.73-4.1-5.13.75-1.77,3.41-3.58,7.28-5.26l-2.56,7.27,11.92-2.34-.06,11.01,8.25-6.19Z"/>
  <path class="cls-3" d="M41.44,518.1l-3.27,4.09c-.63.78-2.2-.77-2.53-1.72l-3.84-10.9,13.73-3.69c-1.32-3.74-3.29-7.8-1.75-8.79,7.4-4.78,11.92,1.99,16.3-3.56l2.96,7.44-18.51-3.48,6.82,12.03-18.02,1.36,8.11,7.23Z"/>
  <path class="cls-3" d="M137.54,527.84l-.63-3.6c-.14-.83,2.87-2,3.11-1.2l1.22,4.21c.51,1.76.48,8.17-1.35,8.18s-6.88-1.15-8.21.1l-6.23,5.85c-1.46,1.37-6.42-1.44-8.14-2.55l-4.35-2.81c-.89-.58,1.26-3.42,2.04-4.14,1.03-.96,3.71.82,4.67,1.99l5.4,6.55,2.47-14.45,7.68,4.63,2.33-2.74ZM138.54,529.9l-2.74,1.05,2.74-1.05Z"/>
  <path class="cls-3" d="M112.8,539.76c-2.17,3.79-3.68,5.2-5.7,4.42-3.89-1.5-4.96-4.98-4.53-10.41l-13.23,1.55-2.16-10.25-6.82-.75c-1.23-.14-1.88-3.96-1.68-4.14l16.26,1.89-3.97,9.9,13.51-2.99.63,8.92c.13,1.76,5.03,1.68,7.69,1.86Z"/>
  <path class="cls-3" d="M168.49,479.82c-.14,1.17-1.57,5.82-2.66,5.41l-7-2.63,4.58-2.68c1.38-.81,1.87-4.39,2.36-6.77.22-.26,3.55-.13,3.44.73l-.73,5.94Z"/>
  <path class="cls-3" d="M104.64,583.95l6.35,3.02-10.81.44c.55-5.55,2.45-8.55,7.99-11.83l-3.53,8.38Z"/>
  <path class="cls-3" d="M86.13,575.7c8.08-1.14,10.5-11.11,11.46-20.71l3.3,13.31,1.85,1.33c3.04,3.62,1.18,4.68-1.95,1.74l-2.37-3.46-10.89,11.78-3.24-2.84-.62-1.43-1.02-3.01-1.03-.65-7.71.95,8.32-9.29.52,6.96.91,1.04,1.01,3,1.47,1.27Z"/>
  <path class="cls-3" d="M74.95,494.34c-3.01.71-7.9-1.7-10.69-4.87,4.23-.83,7.17,0,10.69,4.87Z"/>
  <path class="cls-3" d="M32.26,523.57l-2.87,5.61c-.4.78-3.33-.17-3.09-1.01l1.28-4.36,4.68-.24Z"/>
  <polygon class="cls-3" points="107.77 565.4 107.81 566.71 107.81 568.07 107.77 569.38 107.74 568.07 107.74 566.71 107.77 565.4"/>
  <polygon class="cls-3" points="33.38 541.27 33.42 542.59 33.42 543.94 33.38 545.26 33.35 543.94 33.35 542.59 33.38 541.27"/>
  <polygon class="cls-3" points="69.9 574.39 71.26 574.39 72.57 574.43 71.26 574.47 69.9 574.47 68.59 574.43 69.9 574.39"/>
  <rect class="cls-3" x="177.43" y="525.46" width="1.42" height="1.42" transform="translate(-319.88 280.08) rotate(-45)"/>
  <path class="cls-3" d="M112.61,423.08l.74,11.64-12.53-8.02-3.16,13.53-10.51-10.13-.59,15.41,1.9.5-1.33,2.49-1.74-1.72-5.22-3.02-1.95,2.22,2.89,7.12-16.34-.91,9.74-2.18c1.36-.3-3.99-11.81-1.03-11.38l4.51.65,5.06.73c.61.09-1.02-2.44-1.46-2.88l-1.73-1.74c-.23-3.77,2.07-14.57,5.92-13.45l6.12,1.78c1.21.35,4.24-2.53,5.49-2.37l15.22,1.72ZM75.99,444.31l3.02-1.53-3.02,1.53Z"/>
  <path class="cls-2" d="M285.62,112.84l-3.67-.05-2.14-4.53-2.11-5.24-18.33,2.35-1.78-8.32,1.93-1.46c.48-.55-.37-3.29-1.02-2.95l-3.09,2.47-5.56-.44c-.36-8.03-2.42-18.28,8.26-21.63l-7.16,17.23,16.87-6.04-6.82,17.22,18.1-10.97,2.22,10.85c3.54,3.41,4.83,7.17,4.3,11.49Z"/>
  <path class="cls-2" d="M281.07,61.28c-.29.54,3.68.43,4.3.29.92-.22,2.83,1.49,2.07,2.06s-3.15,2.16-4.03,2.53l-4.74,1.98c-1.23.51-2.37-3.55-2.05-4.89s1.83-5.2.77-5.56l-8.1-2.78,6.58-9.55c1.68-2.44,9.66-2.47,12.14-1.72l-14.96,8.63,13.02-.43-5.01,9.44Z"/>
  <path class="cls-2" d="M258.19,61.07l-4.46,2.68c-.72.43.08,3.84.89,3.6l3.57-1.05,4.01-1.38c.8-.28,2.22,2.45,1.4,2.66l-4.2,1.06c-2.15.54-10.02.56-9.21-1.48l2.45-6.19c.6-1.51-3.39-5.07-3.27-6.91.39-6.02,13.55-9.92,18.44-6.66l-14.37,6.3,6.35,2.56c1.2.49-.89,4.25-1.6,4.82Z"/>
  <path class="cls-2" d="M310.13,78.31l-3.17-5.06c-.68-1.08,1.35-4.26,1.81-4.63l8.37,12.73-.42-16.83c4.33,5.71,5.2,13.61,1.38,21.13-2.7-1.66-6.76-5.4-7.97-7.34Z"/>
  <path class="cls-2" d="M385.41,152.17c-2.83,1.51-10.23,2.18-12.09-.41-1.84-2.55-1.08-10.87.7-10.56,2.44,5.31,4.1,4.74,4.23.92l-.62-5.94c-.09-.88,2.75-1.13,2.87-.26l.55,4.23.12,6.2c.03,1.4,1.66,2.74,4.25,5.83Z"/>
  <path class="cls-2" d="M400.88,138.9l-8.83.09,1.55,7.42c.3,1.45-6.75.18-6.81-.19.79-3.36.79-9.29-.05-13.59l4.25-1.54c.98-.36-.09,3.37-.58,5.49l9.86-.93.61,3.26Z"/>
  <path class="cls-2" d="M225.44,96.55c.59,2.94,1.65,8.7-.53,8.94l-9.72,1.04,6.78-7.03c1.42-1.47-1.47-6.71-2.73-9.1-.34-.56,4.56-2.1,4.8-.93l1.41,7.09Z"/>
  <path class="cls-2" d="M227.87,83.01l-4.39-14.13-5.46,16.11c-2.92-8.07,1.52-17.94,10.85-20.6l-.99,18.63Z"/>
  <path class="cls-2" d="M243.86,69.33c-2.7,5.79-4.71,9.83-9.34,16.3l2.52-11.28.61-4.6c.17-1.29,3.57-.87,6.21-.42Z"/>
  <path class="cls-2" d="M299.57,75.57l-9.09,4.44c-1.19-6.48.37-11.63,4.96-17.02l-1.1,9.51,3.2-1.79c.89-.5,2.94,4.41,2.03,4.85Z"/>
  <path class="cls-2" d="M176,104.55c-.39-.57-.61-1.3,0-1.52l3.78-1.37,7.06-2.77c1.13-.44,2.62-5.46,3.44-4.56l3.14,3.41,3.41,2.8c-4.52-3.49-5.46-2.56-1.98,1.99l-2.64-3.62-4.07,4.87-10.93-.39,3.55,3.17c-4.54-3.49-5.39-2.48-2.01,1.98l-2.74-4Z"/>
  <polygon class="cls-2" points="310.17 35.21 305.78 24.06 314.42 18.32 310.17 35.21"/>
  <path class="cls-2" d="M305.01,98.95c-4.59-.15-4.67-7.59-.19-8.3.16.17.31,6.95.19,8.3Z"/>
  <path class="cls-2" d="M295.8,101.8l4.83-1.01c.78-.16,1.91,2.93,1.15,3.22l-3.21,1.2c-1.14.42-3.91-3.17-2.77-3.41Z"/>
  <path class="cls-2" d="M292.11,93.21c-.05-.8,3.78-.08,3.75.7l-.12,3.93c-.02.78-3.25,1.92-3.29,1.14l-.34-5.77Z"/>
  <path class="cls-2" d="M299.94,80.04c-.03-.72,3.59.24,3.41.94l-1.05,4.22c-.26,1.05-2.31-3.88-2.36-5.16Z"/>
  <polygon class="cls-2" points="395.29 125.08 395.32 126.39 395.32 127.75 395.29 129.06 395.25 127.75 395.25 126.39 395.29 125.08"/>
  <polygon class="cls-2" points="232.43 72.81 232.47 74.12 232.47 75.48 232.43 76.79 232.39 75.48 232.39 74.12 232.43 72.81"/>
  <rect class="cls-2" x="350.34" y="40.91" width="1.42" height="1.42" transform="translate(73.39 260.42) rotate(-45)"/>
  <rect class="cls-2" x="296.06" y="61.02" width="1.42" height="1.42" transform="translate(43.27 227.93) rotate(-45)"/>
  <rect class="cls-2" x="322.2" y="61.02" width="1.42" height="1.42" transform="translate(50.93 246.41) rotate(-45)"/>
  <polygon class="cls-2" points="158.04 94.9 159.04 95.91 158.04 97.21 157.03 95.91 158.04 94.9"/>
  <path class="cls-2" d="M384.73,525.86l14.97,6.52-.5-14.19,14.31,5.77-7.19-19.07,13.64,1.29c-2.58-4.01-6.94-7.65-12.32-11.43l14.23-6.76-16.26-8.12,4.86-8.86-8.99-1.47,7.19-3.82c1.85-.98,5.81,1.58,7.37,3.2l-2.17,9.73,12.49,8.51-9.8,8.83c5.26,3.65,7.69,9.94,5.82,17.17l-7.99-1.29,2.15,15.21-11.93-1.64-1.97,11.11-15.57-3.82-1.58,8.7c-.28,1.52-5.13,1.23-5.01.89,2.72-5.41,3.18-6.07,4.27-16.43Z"/>
  <path class="cls-2" d="M374.72,485.24l1.22-14.2,8.28,7.52-7.07,10.73-11.48-7.79c-.9.84-7.38,4.48-8.01,2.4l-2.4-7.92c-.62-2.04-5.82-2-9.56-2.31-2.5-.2-1.39-8.18.97-9.08l9.62-3.69-7.37,9.7,10.93-1.81.54,13.04,5.43-11.37,8.89,14.78Z"/>
  <path class="cls-2" d="M418.95,528.3l3.88-.29,1.22.62c4.13,2.38,6.25,7.53,5.69,13.66l-11.55-1.14,2.33,7.33c.49,1.54-1.69,5.33-3.37,5.2l-7.64-.58c-1.65-.12-1.13,11.29-3.15,11.48l-5.45.5c4.65-4.76,5.47-6.99,5.44-15.27l11.18.2-3.83-13.4,13.65,2.87-4.72-9.35-3.68-1.84Z"/>
  <path class="cls-2" d="M319.95,493.99l.53-10.08c.07-1.22-.41-4.76.75-4.97l6.79-1.2-6.39,14.13,1.35.88,18.7-5.61,3.66,11.37,9.9-12.87,1.48,10.1.59,1.25,5.55-6.29c-.01-.09.73,4.37,1.13,6.67.32,1.86-3.58,6.66-4.83,5.27l-3.77-4.16-.35-1.47c-.34-.21-2.03-1.34-2.03-1.34.06.06-1.53.96-2.48,1.58l-5.67,3.72c-1.51.99-3.49-4.16-4.69-7.38-3.91-1.16-13.38,1.26-16.33,4.42-.72.78-.12,6.35.89,6.02l4.52-1.48,5.99-1.96c1.27-.41.56,4.93-.03,8l-2.2-4.93-11,3.15-.42-12.47-1.65-.36Z"/>
  <path class="cls-2" d="M368.27,510.81l-1.68-4.8c-.22-.63,1.69-.75,2.36-.64s3.15,1.72,2.98,2.37l-2.89,10.87c-7.98-.3-9.23-.17-18.64,1.75l.34-15.98,2.33,14.02,6.11-10.4c.7-1.18,3.62,2.2,4.25,3.41l2.11,4.02c.59,1.13,3.17-3.4,2.74-4.62Z"/>
  <path class="cls-2" d="M287.51,473.2l-.27-4.61c7.34-1.48,14.2-1.43,21.31,1.2l-19.17,1.49,11.51,7.44-13.81,4.44,4.73-5.12c1.08-1.17-3.63-4.21-4.3-4.84Z"/>
  <path class="cls-2" d="M377.8,512.61l-1.08-15c2.28-.46,5.01,5.01,4.92,9.08-.05,2.42-.01,5.28-1,5.9l-4.6,2.85-1.8-2.03,1.38-2.22,2.17,1.42Z"/>
  <path class="cls-2" d="M367.06,444.77l-1.81-2.25c-.46-.57-2.23-2.87-2.35-2.22l-1.58,8.28c-.76-.65-2.62-3.21-3.1-4.8s2.77-6.81,4.37-7.26c2.32-.65,5.79,5.15,5.71,6.88l1.03,1.5c-.21-.06,3.5.9,3.46.99-1.64,3.97-4.05,5.78-4.01,5.97l-1.09-5.89-.63-1.2Z"/>
  <polygon class="cls-2" points="395.18 561.39 387.21 560.06 392.06 549.64 396.41 560.11 398.09 561.36 396.6 563.31 395.18 561.39"/>
  <path class="cls-2" d="M424.74,562.31c.61.35,3.03,7.24,1.84,7.82l-12.91,6.34c-2.14-5.28-2.05-10.73,1.69-15.51l1.69,12.78,7.7-11.43Z"/>
  <path class="cls-2" d="M448.98,519.53c4.54,3.49,5.46,2.55,2.02-2.01l2.84,3.63,3.11,6.85.73,1.48-.05,3.16-2.09-3.48-3.07-6.97-3.49-2.67Z"/>
  <path class="cls-2" d="M304,448.25c-.1-.4-.47-3.65.53-4.17l6.12-3.17c1.35-2.49,5.7-6.9,8.36-6.92l15.36-.09,9.09-11.9c8.28,2.37,9.78,11.92,7.95,18.89l-6.83-13.48c-5.02,7.14-7.73,13.8-6.97,19.29,2.91,3.35,6.44,8.33,6.21,9.43-6.74-4.26-10.09-6.41-14.81-7.82l2.62,12.88-7.04-2.17c-1.51-.47-5.96,1.67-5.26,3.03l4.35,8.44c1.99-2.35-1.84,2.16-1.91,2.25l-4.81-1.48c-.67-.21-1.61,1.63-1.4,2.3l1.62,5.27c.26,1.82-6.4-3-5.6-4.85l3.45-7.98,3.02-7.86c.69-1.8,6.09-2.63,7.32-4.22,3.76-4.86-2.34-15.05-9.56-14.04l1.69,7.69,2.1,1.69-2.01,1.41-.69-1.08-6.86-3.07c-1.44-.65-2.83,3.73-2.52,5.03l2.74,2.15c1.04,3.62,0,3.88-2.31.83l-1.19-1.84-2.73-4.44Z"/>
  <rect class="cls-2" x="404.63" y="545.57" width="1.42" height="1.42" transform="translate(-267.56 446.62) rotate(-45)"/>
  <path class="cls-2" d="M130.65,258.4l8.44.05c1.92.01,1.74,14.86,4.21,12.05l1.93-2.2,10.84-.11c.07,6.11,2.45,11.41-4.29,17l1.07-13.1c-.19-.52-7.36-.21-10.11.58-7.41,2.12.53,15.24-5.42,24.66l16.69,1.55c.93,2.5.22,9.61-1.94,10.84l-8.63,4.92.89,1.35c2.34-1.86,13.33.12,12.93,3.93-1.18,11.29-16.37,12.92-24.35,9.24l19.81-5.3-9.64-6.65-1.47-1.25-4.37-.91c-.95-.2-1.64-2.83-1.27-2.5l16.64-7.59c-9.28-8.95-15.67-3.92-24.76-1.7,6.75-7.95,9.98-12.92,10.04-21.29l-7.96-.62,7.25-9.33c1.78-2.3-1.05-9.55-3.9-12.39l-15.22,15.56-.41-16.47c-12.27,4.36-15.21,13.61-10.99,23.34l-9.02-4.91,6.6,21.34c-7.67-4.95-11.99-8.91-17.52-14.57-2.67,12.73,10.49,13,18.95,22.33l-10.16,3.16c7.63,3.9,9.46.13,16.76-3.57-.46,16.92-23.4,3.76-25.68,13.49l-2.43,10.36,10.22,1.69-7.61,3.83c-2.17,1.09-6.53,14.73-1.17,25.14-3.99-.21-5.65-2.51-5.39-4.77l.88-7.54-14.07,1.62c-2.85.33-3.7-9.43-1.95-11.66,1.5-1.91,4.71-4.9,6.84-6.52l-5.48,14.72c8.9,1.07,15.69-4.95,15.59-9.57l-.35-17.69s-5.98-3.2-8.06-4.31c-2.62-1.41-.61-9.64,2.01-11.03s9.49-1.82,11.3-1.14c-5.31,2.3-10.62,5.08-10.64,9.86.7,2.71,11.19,2.55,12.97.02s4.46-7.66,5.53-10.31c-9.73-3.99-14.05-9.39-10.86-17.44,2.16-5.44,3.09-13.42,3.23-18.78l4.58-8.63c1.01-1.9,7.69-1.85,8.9-.06l3.36,4.99c.44.65,2.8-.81,2.81-1.6l.09-6.29c12.66-2.93,15.25,4.09,23.71,4.14ZM97.25,259.5c-6.7,2.66-8.85,9.08-8.29,15.67.35,4.1,3.39,8.76,6.82,12.94.08-13.09,9.59-20.21,1.47-28.62Z"/>
  <path class="cls-1" d="M160.45,247.56l10.22,26.36,2.43,6.54-9.57-.5-.57-8.55c-.13-1.98-3.7-2.96-5.72-3.4-3.95-13.81-7.45-28.16-8.7-42.17l-.18-2.07,7.78,1.51c.94,8.37,1.86,15.97,4.31,22.29Z"/>
  <path class="cls-2" d="M129.49,336.05l1.07-2.33,2.15,2.03c1.11,5.02.37,12.59-1.87,16.36l-9.12-4.19c-1.09,5.56-2.92,11.45-5.94,12.57-3.62,1.34-9.3-2.29-12.42-6.74l-14.83,6.76,7.74-7.17c2-1.85,4.47-6.64,6.98-10.51.91,5.93,5.61,14.88,11.99,11.59,4.18-2.16,3.78-12.86,4.79-18.83l3.84,7.16c.89,1.66,3.5,3.12,6.88,4.67l-.21-10-1.05-1.36Z"/>
  <path class="cls-2" d="M36.18,365.35l-5.58,17.89-.77-14.36-12.58,5.8,4.59-15.53-8.4-.46c1.58-9.06,9.95-14.32,17.52-11.42-6.82,2.91-10.55,3.86-13.93,9.05l15.98-1.34-12.25,13.21,15.41-2.85Z"/>
  <path class="cls-2" d="M71.29,324.82c-2.67,6.66-10.5,8.87-19,7.04l1.9-12.45-5.21-4.24c-1.5-1.22-3.85-4.4-4.52-6.1-.67-1.7,4.62-4.7,6.23-4.73-.87.95-2.89,7.94-.76,8.28l14.46,2.31c-4.51,3.1-8.02,6.08-9.56,12.45,3.67,1.17,8.94-.41,16.47-2.57Z"/>
  <path class="cls-2" d="M170.87,296.1c.1.66.37,4.18,1.4,3.84l5.46-1.79c2.04-.67,5.63-1.64,7.33-1.61,1.36.02,3.11,2.34,3.72,3.55l2.95,5.88-5.44,5.71c-3.66,4.7-11.98,6.12-16.69,3.43,5.87-1.62,10.73-2.89,12.98-4.65,1.94-1.51,2.81-8.04,2.73-9.49l-22.75.32c3.58-3.46,6.06-4.9,8.31-5.2Z"/>
  <path class="cls-2" d="M170.87,296.1l6.54-7.99,2.11-.12-1.41,6.05c-.5,1.84-5.3,1.79-7.24,2.06Z"/>
  <path class="cls-2" d="M178.77,339.43c-2.05,3.56-6.73,6.23-11.87,6.54l-5.14-20.76,17.01,14.22Z"/>
  <path class="cls-2" d="M99.65,332.52l-5.11-3.7c-1.1-.8,3.25-3.88,5.25-5.25,2.31,5.85,4.75,10.48,9.96,11.35l3.92-14.4,4.45,7.55c1.03,1.74-8.78,10.85-10.22,9.9l-8.25-5.44Z"/>
  <path class="cls-2" d="M143.05,348.59c3.38-1.9,4.35-8.02,4.97-14.73l3.56,8.79,2.39,2.06c-1.4.47-3.43,1.14-2.48.82l-1.49-1.46-4.3,9.42c-1.86-.29-3.27-.4-3.63-1.23l-1.21-2.81-1.59-1.1c-.09-3.73.46-8.68,1.93-12.23l.72,10.73,1.14,1.74Z"/>
  <path class="cls-2" d="M167.18,348.83l.5,4.62c.12,1.12-1.61,3.19-2.71,3.18l-.13-3.28c-.06-.8-2.52-1.3-3.43-1.5l-5.49-1.24c-.76-.17-.85-3.48-.81-4.47l12.07,2.69Z"/>
  <polygon class="cls-2" points="63.69 300.51 52.63 304.97 52.37 297.41 63.69 300.51"/>
  <path class="cls-2" d="M38.54,309.22l-7.09,3c-.98.42-3.29-1.42-2.34-2.08l6.11-4.26c.37.38,3.46,3.47,3.33,3.33Z"/>
  <path class="cls-2" d="M108.79,376.19l2.71-12c2.26,3.55,2.8,9.08-2.71,12Z"/>
  <path class="cls-2" d="M121.04,332.34l1.56-15.29c4.09,4.57,2.21,11.44-1.56,15.29Z"/>
  <polygon class="cls-2" points="107.77 283.92 107.81 285.23 107.81 286.59 107.77 287.9 107.74 286.59 107.74 285.23 107.77 283.92"/>
  <path class="cls-2" d="M150.22,287.7c-4.69,1.33-5.33,1.59-4.99,1.26l3.33-3.25c.49-.48,2.48,2.87,1.66,2Z"/>
  <rect class="cls-2" x="127.17" y="330.44" width="1.42" height="1.42" transform="translate(-196.7 187.42) rotate(-45)"/>
  <polygon class="cls-2" points="105.76 376.39 106.77 377.39 105.76 378.4 104.28 377.39 105.76 376.39"/>
  <path class="cls-1" d="M321.29,312.28l2.49.05,4.74,27.44,10.39-19.17,5.16-.42c-.54,4.54-2.39,9.89-4.71,14.97l-12.31,26.99c1.74,1.63,5.51,4.47,6.78,4.14,4.03-2.34,11.88-4.8,15.85-4.05l4.14,1.57-10.25,7.52c-5.36,1.19-12.06,2.34-17.44,2.29-11.38-.1-11.97,5.76-18.89-1.39l9.04-12.41,7.84-11.47-3.94-14.78.22-7.94c.06-2.18-1.57-5.78-2.88-7.82l.11-5.61,3.68.08Z"/>
  <polygon class="cls-2" points="310.36 288.71 301.28 284.25 311.38 283.88 310.36 288.71"/>
  <path class="cls-2" d="M337.27,317.31l-13.5-4.98-2.49-.05-2.78-8.85c-3.49.79-6.7,1.82-8.56,1.63l-10.36-1.02c.73-7.81,9.23-6.84,10.77-15.33l7.07-.44-8.42,12.76c3.99.09,8.93-.46,10.63-2.49,1.46-1.74,2.92-6.38,4.32-9.96,1.24,2.27,2.3,5.72,3.88,6.31l6.04,2.25c-5.1.71-9.3,1.06-10.8,3.46-1.28,2.05,1.1,10.4,3.29,9.52l11.42-4.58-.52,11.78ZM304.81,299.98l-1.01,1.01,1.01,1.01,1.01-1.01-1.01-1.01Z"/>
  <path class="cls-2" d="M301.28,284.25c-5.04-2.48-11-5.88-15.01.84-1.15,1.93,4.27,4.84,9.08,5.25l-8.63,12.27-8.67-1.63.78-25.96,4.78-6.7,15.28,1.1-12.15,3.6,6.04,5.73c1.21,1.15,4.92-2.75,6.25-4.1,8.93-8.98,3.24-19.15,7.58-18.14l6.53,1.52c.09-2.62,1.41-9.65,3.2-8.7l5.58,2.96.84.55,1.65-11.03c.72.09,6.73.79,4.67.55l-4.53,14.57-2.7-1.41-1.18-1.89c-.27-.45-6.03-.7-5.69.7l1.56,6.4c.21.88,1.39,4.27.53,3.97l-4.52-1.62-5.61-2.01c-1.14-.41-2.01,4.89-1,5.55l4.46,2.9c10.06,6.53-9.09,2.78-9.11,7.4l-.06,7.33Z"/>
  <path class="cls-4" d="M347.36,327.94c-.42,2.92-.11,6.74.78,10.62l-.45,5.09-5.67,5.43c-1.1,1.24,2.23,4.53,3.52,4.08l5.13-.84-.98,9.93c-3.97-.75-11.82,1.7-15.85,4.05-1.27.33-5.04-2.51-6.78-4.14l12.31-26.99c2.32-5.08,4.17-10.43,4.71-14.97l-2.05-2.8c2.83.56,6.59,1.79,6.37,3.32l-1.04,7.23Z"/>
  <path class="cls-2" d="M385.04,268.22c-.6-2.18-1.1-6.07-2.15-5.9l-6.02.98-2.91-10.16-4.07,6.92-11.38,3.44-8.87-13.29c9.25-3.87,16.51,7.43,18.98,4.81l5.98-6.36,5.67,9.41c2.15.06,8.06,1,7.46,2.68l-2.68,7.46ZM357.09,253.74l-1.01,1.01,1.01,1.01,1.01-1.01-1.01-1.01Z"/>
  <path class="cls-2" d="M376.11,294.39l15.13,7.02-7.34-15.89,9.85,3.32-5.99-11.03c5.62-.45,12.13,7.72,10.72,11.42l-5.71,14.96-12.4-.57-4.26-9.24Z"/>
  <path class="cls-2" d="M358.08,366c-.41-.95-1.04-2.8-1.13-3.76l-1-10.25-5.29.33-5.13.84,2.15-9.51.45-5.09,8.34-2.78-5.86,12.61c6.8-2.45,11.33-4.72,15.25-7.96.29,1.48,1.06,5.8,2.48,5.64l6.03-.69c-1.54,4.56-8.42,4.87-13.29,2.62-1.24,2.06-3.58,5.87-2.79,7.17l3.73,6.12-3.95,4.71Z"/>
  <path class="cls-2" d="M356.94,287.76l-3.76-6.84-14.61.29.8-10.21c.25-3.24-12.5-6.02-9.31-8.13l4.36-2.9,6.65-4.42c1.56-1.03,6.66,2.45,6.7,2.92l-13.11,3.98c2.35,6.07,15.47,2.22,13.4,4.55l-3.42,3.84c-1.24,1.4-2.55,4.65-2.68,6.46-.13,1.81,5.91,1.6,7.46.59l6.94-4.51,1.53,12.06c.05.38,1.01,2.2,1.29,2.29l7.73,2.34,1.37-16.48,8.22,9.75,5.64-11.96-1.66,14.8-9.25-2.88-4.31,8.66c-.91,1.83-7.32-.34-8.48-2.02l-1.48-2.15Z"/>
  <polygon class="cls-4" points="337.27 317.31 338.91 320.61 328.52 339.78 323.78 312.34 337.27 317.31"/>
  <path class="cls-2" d="M347.36,327.94l1.04-7.23c.22-1.53-3.54-2.76-6.37-3.32l9.32-7.01c-.43,6.57-.51,10.39,2.75,12.82,1.95,1.45,7.68-5.84,5.99-7.55l-6.17-6.25-.9-3.83c3.46,1.63,7.11,3.18,8.24,1.84l4.37-5.21-3.53,14.02c-.75,3-1.07,10.45-3.88,10.87l-10.86.85Z"/>
  <path class="cls-2" d="M383.19,331.58c-1.38-.26-6.17.43-5.64-.34l2.35-3.36,2.03-2.91c.44-.62-.18-3.61-.81-3.23l-5.12,3.1-3.1.03c3.48-3.54,6.58-5.51,8.49-5.1s2.95,4.95,4,8.02l6.64,4.04c1.58.96.13,7.11-1.68,7.51-2.17.48-7.62.58-7.89.17l5.23-3.24c.81-.5,2.57-3.38,1.61-3.56l-6.11-1.14Z"/>
  <path class="cls-2" d="M367.69,301.63c.66-.36,3.34-1.81,2.21-1.2l1.19,1.56,3.69,4.91c.97,1.28,4.76,1.3,7.94,1.95.07,2.73-6.58,5.89-7.85,3.73l-5.39-9.14-1.8-1.8Z"/>
  <rect class="cls-2" x="393.64" y="322.37" width="10.34" height="4.48" transform="translate(-110.18 251.44) rotate(-30.96)"/>
  <path class="cls-2" d="M332.7,284.54l-5.95,3.37c-.61.35-1.51-2.36-1.04-2.88l3.17-3.46,3.82,2.97Z"/>
  <path class="cls-2" d="M332.59,253.7l.45-8.14-.45,8.14Z"/>
  <polygon class="cls-2" points="365.46 357.25 366.81 357.25 368.13 357.29 366.81 357.32 365.46 357.32 364.14 357.29 365.46 357.25"/>
  <circle class="cls-2" cx="368.15" cy="336.17" r="1.73"/>
  <rect class="cls-2" x="400.61" y="300.28" width="1.42" height="1.42" transform="translate(-95.29 371.93) rotate(-45)"/>
  <path class="cls-3" d="M148.36,223.75l.18,2.07c-.77-.16-4.78-.75-4.87-2.37l-.47-9.25-10.52-1.19.46-10.36-9.05-2.93c-1.65-.53-.37-5.51,1.08-6.56l5.32-3.85-4.59,9.96,13.76.77-3.87,8.66c-.64,1.44,4.1,3.04,5.61,2.62l5.1-1.42,1.84,13.84Z"/>
  <path class="cls-3" d="M145.24,268.3l-1.93,2.2c-2.47,2.82-2.29-12.04-4.21-12.05l-8.44-.05.67-12.34,2.7-.16-1.04,10.17,11.76-1.94.5,14.16Z"/>
  <path class="cls-3" d="M181.89,238.58c2.18-3.97,5.11,1.55,2.7,2.85l-8.47,4.57c-1.66.89-5.4-3.76-4.86-5.57l2.22-7.42,1.75,5.56,1.03,3.24c.38,1.19,4.26-1.72,5.63-3.24Z"/>
  <path class="cls-3" d="M87.73,247.45c-.84.05,1.4-5.04,3.07-7.79,1.42-2.35,8.92-.35,10.43.75l-10.95,5.19,1.49,1.69,8.43,1.85-10.03.24s-.71-.57-2.44-1.94Z"/>
  <path class="cls-3" d="M100.52,231.45l-10.56-.91c2.62-4.94,8.18-2.51,10.56.91Z"/>
  <path class="cls-3" d="M146.49,246.73c-5.24-3.92-4.31-8.47-2.24-13.26l2.24,13.26Z"/>
  <path class="cls-3" d="M140.9,188.76l-8.14-.45,8.14.45Z"/>
  <polygon class="cls-3" points="87.67 231.64 87.7 232.95 87.7 234.31 87.67 235.62 87.63 234.31 87.63 232.95 87.67 231.64"/>
  <path class="cls-1" d="M217.43,219.66l.26-3.21-.26,3.21Z"/>
  <path class="cls-3" d="M288.38,519.65l10.03,4.95-5.85,10.73-6-3.31c.16-3.96-.43-8.36-1.91-10.93-1.83-3.17-5.45.81-13.88-.09-.88-.09.7-3.41,1.58-3.33l4.03.35c.05.58-.21-2.67-.29-3.64-.07-.84-2.02-1.41-2.61-.8l-2.16,2.25-9.74-6.28.82-7.99,2.73,6.38c-.09-.22,9.84.3,10.28-.56l2.08-3.98c1.78-.17,7.64,5.1,5.9,6.36l-5.62,4.06,10.61,5.84Z"/>
  <path class="cls-3" d="M267.24,440.85c1.3-.29,5.43-1.66,5.67-3.09l.89-5.18,9.44-2.14c-.75-4.09-1.27-8.64.6-8.84l5.63-.6c-2.7,2.41-5.74,4.82-5.02,6.46l2.98,6.83c3.08,2.49.09,2.51-2.11,1.22l-8.18-.13c-1.26-.02-1.26,5.11-.98,4.79l4.72,2.73c1.02.59,1.02,4.7-.13,4.45l-5.84-1.27-1.92,2.06.83,4.95-3.97,3.05.76,6.46c-.06.99-6.76-1.31-5.76-2.68l4.94-6.8-2.59-12.28ZM272.14,446.74l.79-1.53-.79,1.53Z"/>
  <path class="cls-3" d="M299.2,427.43c1.03.94-4.32,1.01-4.74-.38-.52-1.73.96-5.53,2.23-7.03l4.32-5.12c.9-1.07,4.87,2.36,4.69,2.62l-4.55,1.54c-1.22.41-1.56,3.7-1.95,8.36Z"/>
  <path class="cls-3" d="M322.67,416.36c-6.11-.71-10.15,4.96-11.36,12.06.01.19-4.45-2.4-3.76-3.18l4.27-4.84,5.14-5.83c1.34-1.52,5.42-.55,7,.65l1.16.88,2.13,4.62c1.08,2.34,6.76-4.52,11.85-2.83l-14.09,10-1.32-10.14-1.01-1.39Z"/>
  <path class="cls-3" d="M282.54,534.36l-10.11,7.56c-.49-1.48.93-5.29,2.42-6.81,1.28-1.29,6.21-1.54,7.69-.75Z"/>
  <path class="cls-3" d="M292.03,537.27c-.25.91-2.17,2.48-2.97,1.98l-1.79-1.65,4.76-.32Z"/>
  <path class="cls-3" d="M70.13,407.13l-2.53,1.5-11.43-8.89,7.62-11.32c7.58.15,1.57,8.75,6.34,18.71Z"/>
  <path class="cls-3" d="M378.65,233.02c2.23.27,1.47.18-.7-.09-4.78-.59-4.48-.55.7.09Z"/>
  <polygon class="cls-3" points="356.95 362.24 353.82 363.82 349.68 362.25 350.66 352.32 355.95 351.99 356.95 362.24"/>
  <rect class="cls-4" x="119.13" y="416.89" width="1.42" height="1.42" transform="translate(-260.19 207.05) rotate(-45)"/>
  <polygon class="cls-3" points="202.6 409.52 203.96 409.52 205.27 409.56 203.96 409.6 202.6 409.6 201.29 409.56 202.6 409.52"/>
  <polygon class="cls-3" points="196.24 400.53 196.28 401.84 196.28 403.2 196.24 404.51 196.2 403.2 196.2 401.84 196.24 400.53"/>
  <path class="cls-3" d="M321.29,312.28l-3.68-.08-6.87-.14c-1.75-.04-1.61-5.83-.79-7,1.86.18,5.07-.84,8.56-1.63l2.78,8.85Z"/>
  <path class="cls-4" d="M188.55,287.01c-1.75-5.17-1.62-11.89.92-17.61,3.42,1.11,6.55,4.82,6.59,7.31.07,4.05-.73,7.37-7.51,10.29Z"/>
  <path class="cls-3" d="M279.82,108.27l2.14,4.53c-.65.14-3.7.69-3.65,1.65l.24,5.06c.2,4.14-7.14,8.91-13.45,2.71l14.72-13.94Z"/>
  <path class="cls-3" d="M257.59,97.06l-2.18-1.93,3.09-2.47c.65-.34,1.5,2.39,1.02,2.95l-1.93,1.46Z"/>
  <path class="cls-3" d="M202.78,584.32c-3.33,2.79-12.08-4.29-11.34-8.65.34-1.98,6.83-3.04,8.52-1.97,1.69,1.07,2.07,3.77,2.82,10.62Z"/>
  <path class="cls-4" d="M245.54,188.89l-3.22.84c-1.18.18-3.62-2.22-3.83-3.41l-1.4-9.11,6.92-1.31c2.07-.39,6.96,4.03,5.85,5.86l-4.33,7.12Z"/>
  <path class="cls-3" d="M179.51,163.59c-5.81-7.51-7.22-13.43-6.62-23.51,4.7,2.42,9.4,5.4,10.31,8.49,1.18,4-.45,11.79-3.69,15.02Z"/>
  <path class="cls-3" d="M193.27,147.86l-.26,6.31c-.04,1.01-.61.23-5.93-.36l.74-19.74c6.47,3.78,5.69,7.89,5.45,13.79Z"/>
  <path class="cls-3" d="M193.81,264.24l.48-7.18-.48,7.18Z"/>
  <rect class="cls-4" x="189.5" y="262.08" width="1.42" height="1.42" transform="translate(-130.11 211.47) rotate(-45)"/>
  <path class="cls-4" d="M320.39,325.64l-.22,7.94-4.04,10.73c-4.96-1.6-7.48-12.05-3.63-17.51l7.89-1.16Z"/>
  <path class="cls-3" d="M97.25,259.5c8.12,8.4-1.38,15.52-1.47,28.62-3.43-4.19-6.47-8.84-6.82-12.94-.56-6.59,1.59-13.01,8.29-15.67Z"/>
  <path class="cls-3" d="M347.69,343.65l-2.15,9.51c-1.29.45-4.62-2.84-3.52-4.08l5.67-5.43Z"/>
  <rect class="cls-3" x="304.1" y="300.28" width="1.42" height="1.42" transform="translate(-123.55 303.69) rotate(-45)"/>
  <rect class="cls-3" x="356.38" y="254.03" width="1.42" height="1.42" transform="translate(-75.54 327.11) rotate(-45)"/>
  <rect class="cls-2" x="157.03" y="149.19" width="4.02" height="10.05"/>
</svg>