<svg xmlns="http://www.w3.org/2000/svg" id="Layer_1" data-name="Layer 1" viewBox="0 0 66.74 66.74"><defs><style>.cls-2{fill:#6d7246}</style></defs><path d="m66.46 15.18.03 36.55s-.11.04-.12.14c-.95 7.78-7.24 13.81-14.89 14.61l-36.42-.03C7.03 65.38.91 59.17.25 51V15.71C.91 7.38 7.39.91 15.71.25H51c8.22.66 14.47 6.85 15.46 14.93m-5.5 34.67V16.82c0-6.12-4.94-11.06-11.06-11.06H16.82c-6.12 0-11.06 4.94-11.06 11.06V49.9c.01 6.12 4.94 11.06 11.06 11.06H49.9c6.12 0 11.06-4.93 11.06-11.11" class="cls-2"/><path d="M60.96 16.82v33.03c0 6.18-4.94 11.11-11.06 11.11H16.82c-6.12 0-11.05-4.94-11.06-11.06V16.82c0-6.12 4.94-11.06 11.06-11.06H49.9c6.12 0 11.06 4.94 11.06 11.06m-5.53-1.41c0-2.28-1.84-4.13-4.12-4.13a4.131 4.131 0 0 0 0 8.26s4.12-1.85 4.12-4.13m-5.52 17.95c0-9.15-7.41-16.56-16.55-16.56s-16.55 7.41-16.55 16.56 7.41 16.55 16.55 16.55 16.55-7.41 16.55-16.55" style="fill:#cdd0b3"/><path d="M51.31 11.28c2.28 0 4.12 1.85 4.12 4.13s-1.84 4.13-4.12 4.13a4.131 4.131 0 0 1 0-8.26M33.36 16.8c9.14 0 16.55 7.41 16.55 16.56S42.5 49.91 33.36 49.91 16.81 42.5 16.81 33.36 24.22 16.8 33.36 16.8m11.03 16.56c0-6.1-4.94-11.04-11.03-11.04s-11.03 4.94-11.03 11.04 4.94 11.03 11.03 11.03 11.03-4.94 11.03-11.03" class="cls-2"/></svg>