<svg xmlns="http://www.w3.org/2000/svg" id="Layer_1" data-name="Layer 1" viewBox="0 0 89.27 55.58"><defs><style>.cls-1{fill:#90975d}</style></defs><path d="M0 11.74v-8.9c.08-.06.18-.12.21-.34C.36 1.39 1.27.26 2.57.17 13.78-.6 26.23 1.25 36.07 6.9c5.41 3.11 9.7 7.45 12.78 12.88 5.31 9.35 7.14 20.96 6.67 31.87L29.71 25.86c-1.1-1.09-2.77-.99-3.8.01-.95.92-1.2 2.64-.11 3.73l25.9 25.92C39.73 56 26.76 53.83 16.91 47 9.5 41.86 5.17 34.42 2.59 25.89 1.18 21.19.58 16.5 0 11.74M60.96 52.5l.13-3.93 10.54-10.54c1.13-1.13 1.15-2.78.1-3.88s-2.82-1.14-3.96.02l-7.04 7.02c-.52-5.26-1.45-10.09-3.06-14.94 4.21-4.8 9.85-7.39 15.97-8.74 4.28-.91 8.55-1.19 12.91-.93 1.63.1 2.73 1.34 2.72 2.93l-.02 5.26c-.65 11.33-4.71 22.05-15.47 27.1-4.18 1.96-8.58 3.04-13.27 3.47.26-.91.42-1.81.45-2.84" class="cls-1"/></svg>