<svg xmlns="http://www.w3.org/2000/svg" id="Layer_1" data-name="Layer 1" viewBox="0 0 169.81 116.52"><defs><style>.cls-1{fill:#7a5a37}</style></defs><path d="m92.69 116.43-13.93.09c-.47 0-.79-.27-.85-.61-.25-1.31 2.02-.6 2.8-2.62.41-1.05.68-2.15.67-3.38V85.76a8.8 8.8 0 0 0-.69-3.38c-.86-2.09-2.93-1.51-2.83-2.66.03-.31.28-.68.74-.68l13.58-.02c.52 0 .83.28.89.72.14 1.07-1.96.53-2.83 2.6a8.6 8.6 0 0 0-.7 3.42v24.38c0 2.29.79 4.37 2.87 4.82.35.08.51.44.62.62.1.17.04.84-.36.85m-6.7-24.27c1.09-3.66-1.4-9.81-4.58-11.88.51 2.02 1.45 3.64 1.31 5.71-.1 1.42 2.48 3.35 3.27 6.17m.4-11.6c-1.11-.2-1.6-.16-2.62 0l1.42 2.08c.41-.9.58-1.45 1.2-2.07m.59 17.58c1.11-2.22 1.27-4.58 1.3-6.95l.1-6.73c.02-1.44.5-2.73 1.36-3.97-1.39-.24-2.37.52-2.92 1.39-.62.98-.75 2.16-.35 3.24 2.2 5.98.51 9.47-2.5 14.57-.92 1.56-1.46 3.19-1.14 5.1l4.16-6.66Zm-4.2-9.03v10.02c2.66-3.65 3.13-6.52 0-10.02m1.06 26 2.99-.05c-.77-.77-1.3-1.55-1.58-2.64-.21.04-.48.01-.48-.07-1.02-5.32 2.73-8.12 3.37-10.36.29-1.03.14-2.13.03-3.34l-2.93 4.7c-1.12 1.81-2.23 3.66-2.44 5.84-.19 2-.34 3.87-1.33 5.7 1.1.45 1.47-1.4 2.97-1.04-.21.46-.49.57-.61 1.25m5.61-.13c-.52-1.58-1.03-2.59-1.09-3.93l-.13-6.43c-1.03 1.42-1.91 2.85-2.1 4.58-.28 2.48.85 5.16 3.33 5.78M143.55 108.16c-1.49.2-2.72.22-4.03.03l-2.98-9.8-1.85-.02v9.86l-3.82-.01.04-23.69 7.04.07c1.95.02 3.77 1.32 4.44 3.1 1.15 3.08.91 7.99-2.04 9.89l3.21 10.57Zm-5.53-19.83c-1-.52-2.24-.29-3.39-.28l.04 6.92c1.02.03 2.13.17 3.06-.24 1.85-.8 2.08-5.47.29-6.41M46.9 103.08l.12-3.34 3.77-.03-.12 3.73c-.04 1.42-.71 2.86-1.9 3.79-2.35 1.84-5.95 1.92-8.28-.03-1.52-1.28-2.05-3.38-2.04-5.33l.06-11.82c.02-3.73 3.05-6.16 6.61-5.85 2.56.22 4.66 1.68 5.31 4.27.32 1.29.38 2.66.26 3.9l-3.61-.05-.17-2.46c-.09-1.31-.94-2.13-2.21-2.19-.97-.04-2.38.84-2.38 2.18l.03 13.04c0 1.32 1.2 2.21 2.18 2.24 1.17.04 2.31-.65 2.36-2.06M101.63 103.05c.23-1.13.14-2.2.11-3.35l3.64-.11c.32 2.44.14 5.55-1.4 7.16-2.39 2.5-6.65 2.5-9.11.1-1.05-1.03-1.64-2.59-1.63-4.05l.02-12.73c0-3.45 2.7-5.89 6.09-5.84 1.87.03 3.75.53 4.86 2.1 1.25 1.76 1.44 3.99 1.19 5.99l-3.58-.04-.15-2.42c-.08-1.29-1.01-2.18-2.21-2.2-1.12-.01-2.39.84-2.39 2.22l-.06 12.87c0 1.29 1.01 2.19 2.08 2.36 1.24.19 2.25-.61 2.54-2.05M168.21 97.56l-5.34.08v7.09l6.84.03.1 3.5-10.69.02.01-23.78 10.52-.05.16 3.54-6.91.01-.06 6.1 5.34-.01ZM34.7 97.55l-5.26.07.05 7.09 6.81.01.03 3.58-10.7-.02.01-23.78H36.3l.04 3.55-6.89-.02-.01 6.07h5.22ZM155.06 97.58h-5.3v7.14l6.79-.01.03 3.58-10.57-.02.02-23.75 10.53-.02.05 3.51-6.85.01v6.08l5.28-.03ZM9 97.57l-5.37.06.01 7.1 6.84.03.13 3.51L0 108.25V84.51l10.51-.01.07 3.5-6.93.05-.02 6.05 5.33.05ZM59.98 108.2l-3.8.05-.01-20.15-4.16-.18-.03-3.41 12.13-.03L64.2 88l-4.23.04ZM124.73 108.2l-3.84.06-.02-20.17-4.13-.09-.04-3.48 12.11-.03.07 3.52-4.2.06ZM23.5 104.71l.07 3.55-10.39.02-.04-23.72 3.8-.02-.03 20.17ZM117.64 94.07l-9.1 16.23 2.54-12.09-4.67.22 8.26-15.6c.12-.22.2-.42.65-.3l-2.66 11.79Z" class="cls-1"/><path d="m78.86 108.26-4.1-.04-2.91-9.84-1.84-.03v9.9l-3.81-.04V84.53h6.63c2.29 0 4.21 1.42 5.05 3.5.78 3.61.79 7.44-2.25 9.62l3.23 10.6Zm-4.54-18.57c-.29-1.02-1.13-1.63-2.21-1.66l-2.12-.07-.04 7.04 2.39-.06c2.05-.05 2.5-3.4 1.98-5.25M107.05 75.72c-3.07-.31-5.27-2.27-6.6-4.92-2.23-.67-4.84-.82-7.05.21-2.31 1.08-3.81 3.38-4.41 5.8l-6.96-.02c-1.65-5.58-5.79-7.51-11.4-6.05-1.39 2.6-3.59 4.61-6.59 4.97-2.58.31-5.09-.55-7.33-1.88 1.15-2.7 3.16-4.86 5.86-5.91 2.61-1.02 5.48-.42 7.72 1.19l4.59-.54c-4.53-2.72-10.87-4.43-15.82-3.02-.96.86-1.63 2.24-2.7 3-2.8 1.97-6.26 2.04-9.3.53-.82-.41-1.78-.65-2.2-1.54 2.53-5.09 8.39-7.63 13.01-4.31.64.46 1.33.52 2.1.43l2.79-.34-2.92-1.63c-2.17-1.21-4.77-2.66-7.27-2.67-2.22 1.13-4.35 2.53-6.95 2.19-3.12-.41-5.85-2.24-7.69-4.87 2.2-2.45 5.33-3.86 8.59-3.56 2.79.25 4.89 2.07 6.28 4.45 1.95.49 3.67 1.04 5.72 1.87-.35-1.16-1.04-1.84-1.59-2.8-3.58-.74-6.34-3.22-7.02-6.87-.4-2.16-.25-4.35.62-6.35 5.22 1.1 8.86 4.63 8.32 9.96-.08.79-.46 1.79-.29 2.58.64 1.9 1.94 3.53 3.59 4.66-1.28-2.97-2.47-8.56-.81-8.46.5.03.62.38.65.91.26 4.03 1.46 9.06 5.24 10.39l4.66 1.65L70.4 62c-2.44-.43-4.65-1.84-5.63-4.21-.74-1.79-.71-3.79-.24-5.62 4.57.52 7.71 3.42 7.28 7.96-.28 2.98 3.52 5.95 6.17 7.65 2.06 1.32 3.71 2.84 5.15 5.02.52-8.04-.38-16.34-8.78-18.94-2.44-.92-4.71-1.96-6.93-3.4-2.69.38-5.29-.24-7.1-2.23a9.62 9.62 0 0 1-2.41-7.7c5.72-.73 10.5 2.63 10.55 8.53 1.64 1.14 3.24 2.38 5.6 2.57-2.92-2.56-4.76-5.38-6.29-8.77-.87-1.92-2.28-4.13-4.17-4.98-2.31.21-4.58.58-6.56-.87-1.82-1.33-3.16-3.27-3.79-5.66 2.43-1.12 5.26-1.23 7.61-.03 2.05 1.04 3.15 3.1 3.66 5.28.96.75 1.78 1.44 2.53 2.32.36-1.32-.18-2.16-.76-3.06-3.04-4.71-.32-10.04 4.61-12.56 1.56 2.25 2.51 4.82 2.2 7.51-.32 2.78-2.12 4.95-4.49 6.42 0 2.53.54 4.89 1.88 7.15-.19-3.54.91-5.44 3.48-7.52 1.62 1.44 2.36 3.32 2.36 5.34 0 2.07-1.06 3.82-2.76 5.22-.93.77 3.12 4.15 4.94 5.56 2.37 1.84 4.19 3.93 5.67 6.63l.17-8.67c.04-1.98.02-4.02-.84-5.81l-2.34-4.8c-2.72-.81-5.02-2.59-6.03-5.29-.95-2.54-.74-5.34.43-7.8 2.69.62 4.95 2.08 6.4 4.26 1.57 2.36 1.61 5.32.61 8.01l1.84 3.24.19-10.81c-2.44-2.06-4.08-5.02-3.83-8.28.25-3.28 2.1-6.11 4.58-8.31 5.14 4.31 6.59 10.81 1.9 15.61-.26.26-.97.74-.98 1.19-.09 3.53-.06 6.89.19 10.6.91-1.04 1.26-2.12 1.83-3.23-1.93-4.64.25-9.58 4.79-11.52.78-.34 1.47-.79 2.4-.55 2.09 5.03.38 10.52-4.54 12.35-1.14.43-1.57.97-2.09 2.03-1.21 2.46-2.36 4.99-2.31 7.84l.18 9.89c1.26-2.07 2.57-3.84 4.32-5.39l5.67-5c.31-.28.95-1.16.72-1.57-.97-1.18-2.18-2.06-2.6-3.6-.67-2.45.04-5.2 1.91-6.98.45-.11 1.1.57 1.29.9 1.97 1.6 2.61 3.81 2.32 6.49 1.17-1.98 2.16-4.75 1.78-7.14-1.76-1.46-3.57-2.92-4.11-5.24-.7-3.01-.04-6.1 1.89-8.67 1.8.88 3.34 2.09 4.49 3.7 1.94 2.7 1.86 6.25.04 9.02-.55.84-1.01 1.59-.59 2.81.7-1.02 1.52-1.63 2.46-2.41.56-2.42 1.99-4.6 4.36-5.52 2.21-.85 4.61-.58 6.84.32-.46 2.64-2.1 4.84-4.36 6.15-1.81 1.04-3.91.51-5.83.35-2.28 1.12-3.74 3.83-4.74 6.13-1.37 3.16-3.34 5.5-5.84 7.89 2.3-.46 4.02-1.55 5.71-2.79.01-2.89 1.22-5.54 3.57-7.07 2.07-1.35 4.53-1.78 6.98-1.51.31 2.78-.45 5.44-2.14 7.5-2.86 3.5-6.99 2.13-7.77 2.66-2.23 1.51-4.51 2.55-7.08 3.37-3.12 1-5.61 3.42-6.84 6.43-.85 2.09-1.43 4.15-1.42 6.38l.04 6.02c3.15-5.03 8.4-5.67 11.1-10.99.58-1.15-.83-4.26 2.06-7.22 1.4-1.44 3.36-2.2 5.45-2.49.29 1.84.51 3.75-.16 5.51-.92 2.43-3.23 3.92-5.69 4.34l-1.55 2.76 3.33-1.09c5.2-1.7 6.28-5.88 6.61-11.22.02-.38.48-.63.71-.64 1.57-.1.28 5.27-.62 8.26 1.3-1.26 3.04-2.84 3.33-4.61-.32-2.67-.74-5.25.74-7.63 1.59-2.54 4.25-4.15 7.28-4.71.65 1.62.88 3.27.79 4.99-.22 4.14-3.1 7.44-7.14 8.21-.63.94-1.27 1.63-1.74 2.82 1.7-.61 3.07-1.3 4.77-1.6.64-.11 1.18-.53 1.54-1.07 2.01-2.98 5.45-4.42 8.95-3.42 2.08.59 3.94 1.72 5.45 3.37-2.29 2.99-5.53 5.14-9.23 4.83-2.08-.17-3.73-1.43-5.48-2.3-1.85.17-3.82.93-5.37 1.79l-4.8 2.65 4.18.36c2.93-2.4 6.87-2.62 9.95-.46 1.69 1.19 3.17 2.6 3.82 4.66-4.84 3.29-10.44 3.16-13.58-1.72-.4-.62-.8-.9-1.55-.98-5.2-.56-10.37.65-14.86 3.37l3.99.54c.4.05.86-.18 1.2-.38 2.58-1.55 5.79-1.83 8.4-.22 2.03 1.24 3.58 3.08 4.57 5.3-2.17 1.36-4.59 2.18-7.23 1.91M85.4 21.74c.95 2.89.46 5.52.74 8.34 4.07-4.11 3.09-8.75-.71-12.89-3.92 4.14-4.66 8.73-.8 12.87.4-2.85-.05-5.54.78-8.33M68.8 35.37c2.35-1.51 3.2-4.02 3-6.45-.28-1.36-.58-2.56-1.34-3.87-3.72 2.66-5.26 6.03-3.17 10.02.46-2.24 1.1-5.42 2.19-6.39.14-.13.24-.02.26.07.03.14-.02.42-.04.54l-.91 6.08Zm32.49-6.9c1.6 1.94 1.57 4.23 2.29 6.51 2.21-4.07.54-7.25-3.13-9.9-2.25 3.63-1.8 7.95 1.69 10.44-.14-2.42-1.05-4.55-.86-7.05m-23.16 3.64c1.79 1.7 2.3 3.71 3.56 5.67.98-4.27-1.23-7.38-5.3-8.94-1.41 4.15.27 8.38 4.07 9.7-.94-2.38-2.36-4.17-2.33-6.43m14.73.76-2.36 5.59c3.73-1.35 5.48-5.27 4.1-9.61-3.94 1.42-6.41 4.52-5.37 8.9 1.11-1.84 2.88-5.77 3.6-5.53.15.05.15.37.03.64m-35.19.92c-.28-.18.24-.52.63-.38 1.56.53 2.9 1.13 4.34 1.94-.82-3.1-4.61-4.2-7.74-3.18 1.16 3.06 3.94 5.31 7.26 4.53l-4.48-2.91Zm51.08 2.84c1.28.45 2.23.11 3.26-.11 1.89-.85 3.27-2.36 4-4.38-3.18-1.04-6.75.01-7.75 3.14 1.64-.81 3.13-1.66 4.85-1.94.24.29-.07.65-.35.82l-4.01 2.46Zm-46.89 7.63c2.25.81 3.35 2.52 5.1 3.73-.31-4.21-3.93-6.19-7.8-6.31-.08 4.19 3.11 7.9 7.07 7.47-1.7-1.6-3.67-2.79-4.38-4.89m46.97.81-4.14 4.1c4.28.25 7-3.12 7.09-7.44-3.96.03-7.43 1.92-7.74 6.17 1.65-1.31 4.68-4.16 5.03-3.51.07.13-.07.5-.25.68M53.45 48.1c1.83 1.63 2.4 3.67 3.78 5.69 1.09-4.31-1.22-7.63-5.86-9.16-1.05 4.29.33 8.58 4.6 9.9l-1.11-2.28c-.62-1.28-1.6-2.53-1.41-4.15m64.3.25c-.66 2.36-1.86 4.08-2.88 6.19 4.49-1.49 5.62-5.51 4.69-9.92l-3.24 1.69c-2.34 1.7-3.49 4.55-2.74 7.52l3.13-5.02c.23-.36.66-1 1.03-.45m-66.96 9.96-7.21-1.54c2.43-.98 4.78-.16 7.35.03-3.07-3.89-7.65-3.47-11.22-.34 3.54 3.64 7.17 4.54 11.08 1.86m80.47-1.83c-3.69-3.17-8.17-3.55-11.2.26 2.62-.16 4.96-1 7.36.06l-7.16 1.45c3.62 2.72 7.45 1.87 11-1.77m-74.16 9.09c-2.73.21-4.66 1.26-7.01.8 2.09-1.47 4.39-1.56 6.75-2.27-3.96-2.22-7.79-.66-10.27 3.12 3.92 2.6 8.26 1.98 10.54-1.65m56.74-.01c2.54 3.73 6.53 4.13 10.62 1.73-2.61-3.85-6.4-5.39-10.32-3.22 2.33.64 6.71 1.6 6.42 2.34-.05.12-.45.19-.6.16Zm-51.76 6.53c1.9-1.5 4.07-1.8 6.31-2.58-3.93-1.72-7.77-.19-9.84 3.69 3.77 2.15 7.94 1.55 10.3-2.21-2.47.08-4.93 1.68-6.76 1.1m39.99-1.1c2.5 3.8 6.48 4.36 10.43 2.16-2.44-3.86-5.92-5.43-9.86-3.58 2.15.7 3.98 1.12 5.73 2.13l.35.29c.14.11.05.23-.04.25-.14.03-.43.08-.57.05l-6.03-1.3ZM88.01 2.97c2.53 3.79 1.21 7.88-2.5 10.85-3.11-2-4.73-5.8-3.35-9.32.68-1.76 1.78-3.26 3.26-4.49 1.18.74 1.84 1.84 2.59 2.97" class="cls-1"/><path d="M142.99 51.23c-3.29 4.09-8.44 4.97-11.95 1.37-.42-.43-.86-.68-1.22-1.32 1.68-2.38 4.38-4.03 7.39-3.6 2.33.34 4.34 1.81 5.78 3.55M35.26 54.84c-3.05.24-5.53-1.47-7.32-3.65 1.76-1.97 3.89-3.45 6.51-3.55 2.76-.11 5.11 1.52 6.71 3.65-1.54 1.82-3.4 3.36-5.9 3.55M130.93 38.18c-.72 3.68-4.06 5.65-7.84 6.02-1.16-3.72-.2-7.79 3.13-9.54 1.44-.76 2.89-1.24 4.5-1.48.44 1.7.53 3.32.21 5M105.27 14.14c2.3 3.12 1.45 6.62-1.07 9.76-2.84-1.34-5.04-4.06-4.9-7.3.09-2.09 1.13-4 2.4-5.62 1.59.71 2.59 1.85 3.56 3.16M47.78 44.3c-2.05-.3-3.87-.85-5.42-2.09-2.4-1.91-2.98-5.61-2.15-8.89 2.6.21 5.32 1.28 6.83 3.5 1.51 2.21 1.42 4.99.73 7.48M70.76 13.6c1.94 4.01.18 8.19-3.95 10.32-1.81-1.92-2.95-4.55-2.3-7.23.6-2.46 2.37-4.42 4.52-5.75.9.75 1.26 1.66 1.74 2.66M112.35 26.81c-.91 1.95-2.76 3.06-4.61 3.73-1.3-2.01-1.73-4.41-.91-6.59.81-2.16 2.66-3.67 4.94-4.53 1.28 2.19 1.71 4.96.58 7.39M63.14 30.6c-3.65-1.42-5.94-4.38-5.14-8.11l1.11-3c2.24.79 4.18 2.29 4.98 4.54.79 2.22.26 4.56-.94 6.57M118.9 29.04c-1.76.49-3.46.08-5.07-.55.38-1.92 1.44-3.75 3.15-4.78 2.04-1.22 4.48-1.02 6.74-.23-.48 2.55-2.17 4.82-4.81 5.56M57.11 28.35c-1.69.93-3.7 1.18-5.48.56-2.34-.81-3.89-2.87-4.43-5.38 2.48-1.05 5.31-.95 7.51.64 1.16 1.09 1.85 2.34 2.4 4.18M94.84 15.68c-.86 1.77-2.48 2.83-4.32 3.41-1.13-1.73-1.56-4.03-.72-6.02.83-1.97 2.56-3.22 4.67-3.99.99 2.02 1.43 4.41.37 6.59M80.43 19.13c-1.85-.69-3.53-1.77-4.36-3.5-1.01-2.08-.61-4.41.34-6.57 2.04.71 3.65 2.02 4.7 3.89.68 2.02.52 4.17-.68 6.18" class="cls-1"/><path d="M128.44 49.99c-1.9 1.31-4.15 1.21-6.1.5.34-3.84 3.41-6.29 7.11-5.93.61.06 1.19-.07 1.82.34a6.63 6.63 0 0 1-2.83 5.09M48.57 50.46c-2.23 1.01-4.97.65-6.75-.99-1.32-1.21-1.97-2.75-2.22-4.58 2.7-.82 5.57-.25 7.49 1.86.69 1.07 1.17 2.05 1.48 3.71M134.91 67.46c-1.59.69-3.43.83-5.09.31-2.24-.7-3.57-2.74-4.1-4.9 1.54-.54 3.02-.92 4.62-.57 2.31.73 3.9 2.53 4.57 5.16M45.19 62.9c-1.01 3.65-3.38 5.62-7 5.1-.76-.11-1.45-.07-2.14-.57.52-2.39 2.22-4.43 4.62-5.07 1.54-.42 3.11-.08 4.52.55M78.08 20.12c1.31 1.82 1.25 4.02.55 6.13-1.93-.22-3.76-1.37-4.64-2.83-1.17-1.93-1.15-4.12-.32-6.04 1.81.41 3.35 1.26 4.41 2.74M55.84 22.54c-1.78-.54-3.39-1.47-4.27-3.02-1.06-1.88-.93-4.15-.02-6.15 2.15.52 3.94 1.95 4.76 3.99.5 1.69.4 3.39-.47 5.18M119.47 19.24c-.84 1.79-2.66 2.73-4.45 3.23-.91-1.79-1.03-3.89-.18-5.65.86-1.78 2.52-2.88 4.49-3.51.76 1.83 1.04 3.99.14 5.93M97.16 22.99c-.95 1.92-2.86 2.88-4.83 3.2-.83-2.03-.75-4.29.49-6.05 1.03-1.46 2.61-2.4 4.44-2.77.63 1.79.79 3.8-.1 5.62M78.48 65.39c-1.99-.53-3.8-1.83-4.49-3.77-.64-1.78-.33-3.68.42-5.4 2.28.76 4.08 2.29 4.61 4.54.36 1.51.03 2.94-.54 4.64M96.92 61.66c-.76 1.92-2.54 3.11-4.36 3.7-.95-1.89-1.21-3.85-.2-5.83.74-1.44 2.35-2.87 4.26-3.24.66 1.77.99 3.62.3 5.38M118.66 41.86c-1.29.76-2.74.84-4.02.72-.19-2.05.43-3.91 1.69-5.21 1.36-1.41 3.29-1.88 5.3-1.68.14 2.49-.75 4.85-2.97 6.17M56.35 42.6c-1.46.07-2.81-.05-3.93-.69-2.25-1.3-3.23-3.58-3.15-6.19 2.67-.4 5.49.8 6.54 3.48.41 1.06.48 2.11.55 3.41M82.09 52.78c-1.74-.47-3.37-1.33-4.19-2.94-.91-1.78-.81-3.93-.02-5.79 1.48.39 2.9 1.21 3.8 2.47 1.28 1.8 1.33 4.09.42 6.26M93.2 49.49c-.78 1.72-2.45 2.76-4.33 3.19-.98-1.93-.93-4.28.3-6.06.89-1.29 2.29-2.08 3.84-2.69.83 1.74.98 3.82.19 5.57M41.68 28.07c-1.69-.59-2.74-1.94-3.44-3.5 1.76-1.08 3.89-1.43 5.77-.57 1.33.61 2.22 1.81 2.83 3.12-1.57 1.01-3.34 1.57-5.16.94M132.6 24.67c-.31 1.47-2.04 3-3.2 3.34-1.94.67-3.67.21-5.29-.92.62-1.65 1.97-2.9 3.35-3.31 1.74-.51 3.97-.27 5.13.88M39.18 60.12c-.51 1.46-2.34 2.5-3.54 2.74-1.87.37-3.5-.37-4.85-1.5 1.11-1.86 2.78-3.06 4.76-3.08 1.17-.01 2.98.74 3.63 1.83M109.85 11.84c-.63 1-1.63 1.7-2.68 2.28-1.28-1.7-1.62-3.96-.61-5.83.65-1.21 1.71-2.06 2.96-2.71 1.3 1.89 1.54 4.32.33 6.26M64.63 8.89c.65 1.77.2 3.62-.83 5.14-1.17-.47-2.17-1.25-2.81-2.3-1.18-1.93-.86-4.33.38-6.17 1.44.74 2.68 1.76 3.25 3.33M139.41 61.93c-2.73 1.9-6.05 1.02-7.72-1.86 1.1-1.2 2.6-1.81 4.19-1.72 2.25.12 4.22 2.47 4.23 2.85 0 .36-.35.48-.7.73M101.08 4.23c.42.18 1.12 3.15-.2 5.29-.71 1.15-2.2 2.08-3.69 2.41-1.49-3.23 0-6.57 3.29-7.58.19-.06.41-.2.59-.12M73.77 7.13c.69 1.37.63 3.42.04 4.71-1.59-.04-3-1-3.9-2.5a5.35 5.35 0 0 1-.21-4.92c1.73.04 3.26 1.12 4.07 2.72M137.67 45.75c-1.38.48-3.58.12-4.56-.95.05-1.47 1.87-2.86 2.99-3.27 1.87-.52 3.59-.15 5.03.99-.8 1.48-1.78 2.64-3.47 3.23M38.02 44.74c-1.34 1.07-3.1 1.55-4.88.98-1.33-.43-2.83-1.65-3.29-3.3 1.67-1.21 3.83-1.45 5.58-.58 1.16.57 1.89 1.56 2.59 2.9M38.93 40.46c-1.61.42-3.47-.05-4.66-1.13-1.22-1.11-1.82-2.82-1.72-4.48 1.71-.16 3.26.12 4.51 1.16 1.16.96 1.86 2.4 1.87 4.45M121.76 75.74c.05.4.24.76.03 1.06-.12.17-.58.07-.84.08-3.28.04-5.56-2.32-5.45-5.69 3-.69 5.89 1.25 6.27 4.56M138.35 34.84c.15 1.63-.51 3.22-1.57 4.33-1.18 1.23-2.84 1.62-4.68 1.35-.16-1.6.42-3.26 1.52-4.32 1.21-1.17 2.82-1.53 4.73-1.36M54.77 74.33c-1.16 1.98-3.42 2.84-5.67 2.43.01-1.31.26-2.59.99-3.59 1.22-1.68 3.29-2.36 5.35-2.04 0 1.12-.12 2.25-.67 3.19M79.13 8.3c-1.66-.44-3.21-1.7-3.66-3.44-.37-1.45-.05-3 .7-4.36 1.63.47 3.01 1.76 3.53 3.36.47 1.46.14 2.97-.57 4.44M95.08 5.73c-.64 1.28-1.84 2.05-3.16 2.61-.99-1.5-1.24-3.51-.4-5.16C92.15 1.94 93.3 1 94.68.45c.97 1.53 1.26 3.56.4 5.28M123.37 33.61c-1.25.63-3.56.61-4.5-.33-.19-1.49 1.45-2.93 2.48-3.43 1.69-.72 3.37-.53 4.89.32-.62 1.51-1.35 2.67-2.87 3.44M127.57 16.07c.2 1.57-.64 3.14-1.64 4.01-1.43 1.24-3.09 1.47-4.89.94.08-1.5.75-2.98 1.73-3.82 1.33-1.14 2.81-1.37 4.81-1.13M52.2 33.29c-2.7 1.67-6.02.46-7.22-2.44-.09-.23-.3-.45-.24-.67.06-.26.41-.24.62-.33 2.9-1.2 6.07.17 6.84 3.44M49.75 20.92c-1.24.82-3.37.32-4.65-.67-.97-.75-2.03-2.63-1.72-4 1.24-.57 3.21-.17 4.37.7.99.74 2.12 2.26 2 3.97M62.58 18.82c-1.01-.05-2.11-.37-3-.95-1.7-1.11-2.31-3.21-1.98-5.16 3.27.11 5.68 2.71 4.98 6.1M111.71 17.59c-.98.77-2.15 1.1-3.3 1.24-.33-1.61-.1-3.12 1.04-4.36.87-.95 2.27-1.82 3.86-1.76.38 1.77-.11 3.71-1.6 4.88M48.55 71.48c-1.32 2.6-4.47 3.27-6.92 1.66.48-1.28 1.66-2.17 2.69-2.55 1.44-.53 2.82-.15 4.22.89M129.4 73.11c-2.45 1.73-5.58.99-6.93-1.63 1.13-.98 2.55-1.34 3.98-.99 1.19.53 2.25 1.2 2.95 2.63M38.27 33.59c-1.06.54-2.76-.42-3.48-1.17-.96-1.01-1.36-2.28-1.18-3.69 1.37-.1 2.6.3 3.52 1.13.88.79 1.71 2.39 1.13 3.72M137.33 28.7c.21 2.73-1.73 5.09-4.61 5.06a3.64 3.64 0 0 1 .92-3.67c.89-.88 2.12-1.51 3.7-1.39" class="cls-1"/></svg>