<svg xmlns="http://www.w3.org/2000/svg" id="Layer_1" data-name="Layer 1" viewBox="0 0 75.35 53.11"><defs><style>.cls-1{fill:#cdd0b3}</style></defs><path d="M75.1 5.65v41.81c-.11.09-.15.16-.21.41-.7 2.77-3.2 4.99-6.25 4.99H6.71C3.26 52.85.65 50.15.25 46.83V6.29C.66 2.87 3.35.25 6.85.25h61.79c3.1.01 5.61 2.28 6.28 5.11.04.2.11.23.18.29m-4.4 39.72.02-37.64-18.95 18.83ZM42.2 29.88 67.6 4.62H7.75l25.4 25.25c2.58 2.41 6.47 2.41 9.05.01M7.76 48.49h59.81l-18.91-18.8-3.44 3.38a10.947 10.947 0 0 1-15.16-.08l-3.37-3.3Zm-3.12-3.1 18.94-18.83L4.64 7.73Z" style="fill:#6d7246"/><path d="m70.72 7.73-.02 37.64-18.93-18.81ZM67.6 4.62 42.2 29.88c-2.58 2.4-6.47 2.4-9.05-.01L7.75 4.62Z" class="cls-1"/><path d="M67.57 48.49H7.76l18.93-18.8 3.37 3.3a10.947 10.947 0 0 0 15.16.08l3.44-3.38ZM23.58 26.56 4.64 45.39V7.73Z" class="cls-1"/></svg>