<svg xmlns="http://www.w3.org/2000/svg" id="Layer_1" data-name="Layer 1" viewBox="0 0 49.43 68.1"><path d="M48.79 20.3c.64 3.52.49 6.98-.4 10.47-3.13 12.34-13.48 26.37-21.77 36.05-.45.54-.9.85-1.54 1.03h-.89c-.58-.24-1-.57-1.45-1.1C16.02 58.88 9.25 49.78 4.7 40.46c-1.54-3.17-2.8-6.29-3.66-9.69C.15 27.28 0 23.82.64 20.3 2.9 7.97 14.17-.67 26.68.33 37.69 1.2 46.8 9.44 48.79 20.3" style="fill:#6d7246"/><path d="m25.93 38.34.8 14.53h-4.06l.82-14.53.31-5.68-5.5-6.92s-.02-.03-.03-.03c-.11-.06 0-.18.08-.09l.04.03 5.55 4.57.28-4.97-3.81-4.78-.02-.03-.05-.07s-.02-.03-.03-.03c-.1-.06 0-.16.07-.08l.04.04.05.05.04.03 3.8 3.12.33-5.82h.13l.34 5.82 4.05-3.28-3.96 5.04.27 4.96 5.74-4.66-5.6 7.11.31 5.67Z" style="fill:#7a5a37"/><path d="m25.93 38.34-.31-5.67 5.6-7.11-5.74 4.66-.27-4.96 3.96-5.04-4.05 3.28-.34-5.82h-.13l-.33 5.82-3.8-3.12-.1.09 3.81 4.78-.28 4.97-5.55-4.57-.09.08 5.5 6.92-.31 5.68a6.09 6.09 0 0 1-4.44-3.83c-2.5-.46-4.44-2.39-4.86-4.84s.58-4.59 2.43-6.05c-1.52-1.49-2.15-3.65-1.65-5.71s2-3.67 4-4.31c.84-2.57 3.16-4.28 5.78-4.25 2.59 0 4.91 1.68 5.73 4.22 2.01.66 3.52 2.31 4.01 4.35s-.14 4.2-1.65 5.69c1.93 1.57 2.96 3.93 2.31 6.46a6.02 6.02 0 0 1-4.76 4.43c-.75 1.98-2.41 3.41-4.46 3.83Zm-5.55-18.07c-.06-.08-.17.02-.07.08Zm.04.04-.08.07.05.07.08-.09Zm-2.08 5.31c-.07-.1-.19.02-.08.09Z" style="fill:#bac381"/></svg>